<?xml version="1.0" standalone="no"?>
<!DOCTYPE svg PUBLIC "-//W3C//DTD SVG 1.1//EN" "http://www.w3.org/Graphics/SVG/1.1/DTD/svg11.dtd" >
<svg>
<metadata>
Created by FontForge 20120731 at Mon Sep 26 13:36:27 2016
 By ,,,
Copyright (c) 2008 by Jos Buivenga. All rights reserved.
</metadata>
<defs>
<font id="MuseoSans-500" horiz-adv-x="389" >
  <font-face 
    font-family="Museo Sans 500"
    font-weight="400"
    font-stretch="normal"
    units-per-em="1000"
    panose-1="2 0 0 0 0 0 0 0 0 0"
    ascent="750"
    descent="-250"
    x-height="506"
    cap-height="706"
    bbox="-121 -210 1088 892"
    underline-thickness="50"
    underline-position="-50"
    unicode-range="U+0020-FB04"
  />
<missing-glyph horiz-adv-x="510" 
d="M5 0v700h500v-700h-500zM255 395l170 255h-340zM285 350l170 -255v510zM55 95l170 255l-170 255v-510zM85 50h340l-170 255z" />
    <glyph glyph-name="f_f" unicode="ff" horiz-adv-x="672" 
d="M439 0v428h-240v-428h-96v428h-63v78h63v17q0 48 14 83.5t34 55t48 31t49.5 15t44.5 3.5l37 -3v-83q-10 2 -25 2q-17 0 -32.5 -3.5t-33.5 -13.5t-29 -33t-11 -56v-15h240v17q0 48 14 83.5t34 55t48 31t49.5 15t44.5 3.5l37 -3v-83q-10 2 -25 2q-17 0 -32.5 -3.5
t-33.5 -13.5t-29 -33t-11 -56v-15h120v-78h-120v-428h-96z" />
    <glyph glyph-name="fi" unicode="fi" horiz-adv-x="585" 
d="M412 0v428h-213v-428h-96v428h-63v78h63v17q0 48 14 83.5t34 55t48 31t49.5 15t44.5 3.5l37 -3v-83q-10 2 -25 2q-17 0 -32.5 -3.5t-33.5 -13.5t-29 -33t-11 -56v-15h310v-506h-97zM411 607v99h98v-99h-98z" />
    <glyph glyph-name="fl" unicode="fl" horiz-adv-x="601" 
d="M103 0v421h-63v78h63v24q0 48 14 83.5t34 55t48 31t49.5 15t44.5 3.5l37 -3v-83q-10 2 -25 2q-17 0 -32.5 -3.5t-33.5 -13.5t-29 -33t-11 -56v-22h120v-78h-120v-421h-96zM406 138v568h97v-551q0 -42 14 -57t40 -15l17 1v-86q-15 -2 -32 -2q-136 0 -136 142z" />
    <glyph glyph-name="f_f_i" unicode="ffi" horiz-adv-x="921" 
d="M439 0v428h-240v-428h-96v428h-63v78h63v17q0 48 14 83.5t34 55t48 31t49.5 15t44.5 3.5l37 -3v-83q-10 2 -25 2q-17 0 -32.5 -3.5t-33.5 -13.5t-29 -33t-11 -56v-15h240v17q0 48 14 83.5t34 55t48 31t49.5 15t44.5 3.5l37 -3v-83q-10 2 -25 2q-17 0 -32.5 -3.5
t-33.5 -13.5t-29 -33t-11 -56v-15h310v-506h-97v428h-213v-428h-96zM747 607v99h98v-99h-98z" />
    <glyph glyph-name="f_f_l" unicode="ffl" horiz-adv-x="937" 
d="M439 0v428h-240v-428h-96v428h-63v78h63v17q0 48 14 83.5t34 55t48 31t49.5 15t44.5 3.5l37 -3v-83q-10 2 -25 2q-17 0 -32.5 -3.5t-33.5 -13.5t-29 -33t-11 -56v-15h240v17q0 48 14 83.5t34 55t48 31t49.5 15t44.5 3.5l37 -3v-83q-10 2 -25 2q-17 0 -32.5 -3.5
t-33.5 -13.5t-29 -33t-11 -56v-15h120v-78h-120v-428h-96zM742 138v568h97v-551q0 -42 14 -57t40 -15l17 1v-86q-15 -2 -32 -2q-136 0 -136 142z" />
    <glyph glyph-name="f_j" unicode="fj" horiz-adv-x="584" 
d="M103 0v428h-63v78h63v17q0 48 14 83.5t34 55t48 31t49.5 15t44.5 3.5l37 -3v-83q-10 2 -25 2q-17 0 -32.5 -3.5t-33.5 -13.5t-29 -33t-11 -56v-15h309v-523q0 -59 -20.5 -100t-53.5 -58.5t-61 -24t-58 -6.5l-34 2v83q9 -1 22 -1q17 0 33 4t34.5 14t30 34t11.5 59v439
h-213v-428h-96zM411 607v99h98v-99h-98z" />
    <glyph glyph-name=".notdef" horiz-adv-x="510" 
d="M5 0v700h500v-700h-500zM255 395l170 255h-340zM285 350l170 -255v510zM55 95l170 255l-170 255v-510zM85 50h340l-170 255z" />
    <glyph glyph-name=".null" horiz-adv-x="0" 
 />
    <glyph glyph-name="nonmarkingreturn" horiz-adv-x="333" 
 />
    <glyph glyph-name="space" unicode=" " horiz-adv-x="257" 
 />
    <glyph glyph-name="exclam" unicode="!" horiz-adv-x="318" 
d="M116 194l-7 512h100l-6 -512h-87zM110 0v97h99v-97h-99z" />
    <glyph glyph-name="quotedbl" unicode="&#x22;" horiz-adv-x="342" 
d="M203 530v188h76v-188h-76zM63 530v188h76v-188h-76z" />
    <glyph glyph-name="numbersign" unicode="#" horiz-adv-x="718" 
d="M141 0l33 191h-130l12 74h131l29 168h-129l12 73h130l35 200h81l-35 -200h155l35 200h81l-35 -200h131l-13 -73h-130l-30 -168h130l-13 -74h-129l-34 -191h-81l33 191h-155l-33 -191h-81zM268 265h155l30 168h-155z" />
    <glyph glyph-name="dollar" unicode="$" horiz-adv-x="566" 
d="M54 81l56 75q3 -3 8.5 -8t24.5 -18.5t38.5 -23.5t49.5 -18t59 -8q52 0 87 28t35 76q0 40 -35.5 69.5t-86.5 51t-102 46.5t-86.5 68t-35.5 102q0 73 51.5 127.5t134.5 66.5v94h71v-93q50 -4 92.5 -21t60.5 -33l18 -15l-45 -82q-7 7 -20.5 17t-54 27t-80.5 17
q-56 0 -92 -30t-36 -73q0 -28 19 -50.5t49.5 -38.5t67.5 -31t74 -33.5t67.5 -41.5t49.5 -59t19 -82q0 -77 -51 -132t-138 -65v-92h-71v92q-36 4 -69.5 14.5t-56 23t-39.5 25t-25 20.5z" />
    <glyph glyph-name="percent" unicode="%" horiz-adv-x="761" 
d="M199 422q-63 0 -107 43t-44 105q0 61 44 104.5t107 43.5t107.5 -43.5t44.5 -104.5t-44.5 -104.5t-107.5 -43.5zM63 0l540 706h94l-540 -706h-94zM199 496q31 0 52.5 21t21.5 53q0 31 -21.5 53t-52.5 22t-52.5 -22t-21.5 -53q0 -32 21.5 -53t52.5 -21zM410 136
q0 61 44.5 104.5t107.5 43.5q62 0 107 -43.5t45 -104.5t-45 -104.5t-107 -43.5q-64 0 -108 43t-44 105zM488 136q0 -32 21 -53t53 -21q31 0 52.5 21.5t21.5 52.5t-21.5 53t-52.5 22t-52.5 -22t-21.5 -53z" />
    <glyph glyph-name="ampersand" unicode="&#x26;" horiz-adv-x="684" 
d="M54 198q0 60 33.5 111t90.5 70v2q-4 1 -10 4t-22 15t-28.5 28t-22.5 45t-10 63q0 86 60.5 134t156.5 48q17 0 38.5 -3t34.5 -5l13 -3l-25 -79q-29 6 -53 6q-54 0 -89.5 -29t-35.5 -79q0 -19 5.5 -36.5t18.5 -35.5t40 -28.5t66 -10.5h131v96h97v-96h94v-86h-94v-94
q0 -117 -65 -182t-179 -65q-109 0 -177 60t-68 150zM155 203q0 -52 40 -88t104 -36q70 0 108.5 39.5t38.5 120.5v90h-135q-75 0 -115.5 -33t-40.5 -93z" />
    <glyph glyph-name="quotesingle" unicode="'" horiz-adv-x="203" 
d="M63 530v188h77v-188h-77z" />
    <glyph glyph-name="parenleft" unicode="(" horiz-adv-x="302" 
d="M189 -95q-116 193 -116 435q0 210 116 395h85q-113 -189 -113 -396q0 -229 113 -434h-85z" />
    <glyph glyph-name="parenright" unicode=")" horiz-adv-x="302" 
d="M113 -95h-85q113 205 113 434q0 207 -113 396h85q116 -185 116 -395q0 -242 -116 -435z" />
    <glyph glyph-name="asterisk" unicode="*" horiz-adv-x="467" 
d="M155 329l-72 52l89 110v2l-136 37l26 84l133 -50l-7 142h91l-8 -142l134 50l27 -84l-137 -37v-2l88 -110l-71 -52l-77 118h-2z" />
    <glyph glyph-name="plus" unicode="+" horiz-adv-x="683" 
d="M77 246v78h224v246h82v-246h223v-78h-223v-246h-82v246h-224z" />
    <glyph glyph-name="comma" unicode="," horiz-adv-x="255" 
d="M27 -101l62 206h99l-84 -206h-77z" />
    <glyph glyph-name="hyphen" unicode="-" horiz-adv-x="472" 
d="M90 242v86h292v-86h-292z" />
    <glyph glyph-name="period" unicode="." horiz-adv-x="254" 
d="M76 0v103h102v-103h-102z" />
    <glyph glyph-name="slash" unicode="/" horiz-adv-x="404" 
d="M36 -42l254 786h86l-254 -786h-86z" />
    <glyph glyph-name="zero" unicode="0" horiz-adv-x="625" 
d="M312 -12q-249 0 -249 366q0 364 249 364q250 0 250 -364q0 -366 -250 -366zM312 79q149 0 149 275q0 273 -149 273q-148 0 -148 -273q0 -275 148 -275z" />
    <glyph glyph-name="one" unicode="1" horiz-adv-x="489" 
d="M56 0v86h156v456l1 44h-2q-8 -16 -34 -41l-66 -65l-60 62l169 164h88v-620h154v-86h-406z" />
    <glyph glyph-name="two" unicode="2" horiz-adv-x="572" 
d="M60 0q-5 32 -5 54q0 59 25.5 109.5t64 83.5t83.5 66t83.5 59.5t64 62t25.5 73.5q0 52 -35.5 84.5t-91.5 32.5q-26 0 -50.5 -9.5t-40.5 -22.5t-28.5 -26t-18.5 -23l-5 -9l-73 49q3 5 8 14.5t24.5 32.5t43 40.5t63 32t84.5 14.5q98 0 160.5 -56t62.5 -147q0 -47 -18.5 -88
t-48.5 -70.5t-66 -56.5t-72 -51t-66 -48t-49 -53.5t-19 -61.5h350v-86h-455z" />
    <glyph glyph-name="three" unicode="3" horiz-adv-x="567" 
d="M40 84l54 75q8 -9 22 -21.5t59 -34t90 -21.5q60 0 102 36.5t42 92.5q0 62 -47 96t-117 34h-49l-23 53l154 181l44 46v2q-21 -3 -60 -3h-239v86h422v-63l-192 -221q82 -9 144.5 -61t62.5 -146t-67 -160.5t-173 -66.5q-40 0 -78.5 10t-64.5 24t-46.5 28t-29.5 24z" />
    <glyph glyph-name="four" unicode="4" horiz-adv-x="606" 
d="M31 189v62l326 455h113v-433h96v-84h-96v-189h-97v189h-342zM140 273h233v257l4 70h-2q-16 -33 -35 -58l-200 -267v-2z" />
    <glyph glyph-name="five" unicode="5" horiz-adv-x="563" 
d="M48 86l55 72q2 -3 6.5 -8t19.5 -18.5t31.5 -23.5t43 -18t54.5 -8q64 0 109.5 40t45.5 103t-46 104t-115 41q-31 0 -60.5 -9t-43.5 -17l-15 -9l-57 21l35 350h356v-86h-270l-17 -149l-5 -37h2q39 22 91 22q109 0 177.5 -66.5t68.5 -163.5q0 -102 -71.5 -170t-178.5 -68
q-41 0 -78 10t-61 24.5t-42.5 29t-26.5 24.5z" />
    <glyph glyph-name="six" unicode="6" horiz-adv-x="599" 
d="M323 -12q-115 0 -189.5 92t-74.5 241q0 70 19.5 138.5t57 127.5t100 95t141.5 36q37 0 71 -7t50 -15l16 -7l-32 -85q-45 23 -101 23q-91 0 -145 -69.5t-67 -167.5h2q22 30 65.5 48.5t90.5 18.5q99 0 161 -66.5t62 -166.5q0 -104 -64 -170t-163 -66zM322 79q59 0 94.5 41
t35.5 104q0 66 -39.5 107.5t-105.5 41.5q-59 0 -101.5 -30t-42.5 -69q0 -72 47 -133.5t112 -61.5z" />
    <glyph glyph-name="seven" unicode="7" horiz-adv-x="529" 
d="M86 0l275 556q9 18 19 34t16 24l6 7v2q-16 -3 -52 -3h-315v86h472v-68l-319 -638h-102z" />
    <glyph glyph-name="eight" unicode="8" horiz-adv-x="607" 
d="M57 204q0 37 14 71.5t36.5 59t36 36.5t26.5 21q-79 57 -79 141q0 76 57 130.5t163 54.5q99 0 160.5 -51.5t61.5 -137.5q0 -91 -84 -184q96 -59 96 -150q0 -85 -67.5 -146t-174.5 -61t-176.5 60.5t-69.5 155.5zM443 198q0 18 -9 34.5t-21 28t-35 25t-40.5 21.5t-47.5 21.5
t-47 21.5q-85 -59 -85 -140q0 -59 43 -96t102 -37q57 0 98.5 34t41.5 87zM189 531q0 -14 5 -27t10.5 -23t19.5 -21t23 -17t29 -16t30 -14.5t34.5 -14.5t33.5 -14q62 62 62 139q0 48 -35 77t-91 29q-57 0 -89 -28t-32 -70z" />
    <glyph glyph-name="nine" unicode="9" horiz-adv-x="599" 
d="M222 -12q-37 0 -71.5 7t-50.5 15l-15 7l32 86q45 -24 101 -24q91 0 145 69.5t67 167.5h-2q-21 -30 -65 -48t-91 -18q-99 0 -161 66t-62 166q0 104 64 170t163 66q114 0 189 -92t75 -241q0 -70 -19.5 -138.5t-57 -127.5t-100 -95t-141.5 -36zM292 333q59 0 101.5 30.5
t42.5 68.5q0 72 -47 133.5t-112 61.5q-60 0 -95 -41t-35 -104q0 -66 39 -107.5t106 -41.5z" />
    <glyph glyph-name="colon" unicode=":" horiz-adv-x="292" 
d="M95 403v103h102v-103h-102zM95 0v103h102v-103h-102z" />
    <glyph glyph-name="semicolon" unicode=";" horiz-adv-x="293" 
d="M47 -101l53 206h100l-75 -206h-78zM101 403v103h102v-103h-102z" />
    <glyph glyph-name="less" unicode="&#x3c;" horiz-adv-x="558" 
d="M33 252v66l466 208v-89l-358 -151v-2l358 -151v-89z" />
    <glyph glyph-name="equal" unicode="=" horiz-adv-x="669" 
d="M96 340v78h477v-78h-477zM96 151v78h477v-78h-477z" />
    <glyph glyph-name="greater" unicode="&#x3e;" horiz-adv-x="558" 
d="M59 44v89l357 151v2l-357 151v89l466 -208v-66z" />
    <glyph glyph-name="question" unicode="?" horiz-adv-x="489" 
d="M144 194v47q0 42 17.5 76.5t42.5 58.5t50 46t42.5 49.5t17.5 58.5q0 42 -32.5 70.5t-81.5 28.5q-28 0 -56.5 -10.5t-43.5 -20.5l-14 -11l-54 69q7 7 21 17.5t60 28.5t94 18q87 0 148 -51t61 -132q0 -46 -18 -82.5t-44 -61t-52.5 -47t-44.5 -50.5t-18 -61v-41h-95zM142 0
v97h99v-97h-99z" />
    <glyph glyph-name="at" unicode="@" horiz-adv-x="821" 
d="M59 241q0 155 106 262.5t259 107.5q135 0 197.5 -57.5t62.5 -145.5v-283h72v-73h-273q-91 0 -149 55.5t-58 133.5q0 77 57.5 132t149.5 55h108q-2 45 -44.5 74t-117.5 29q-115 0 -194 -85.5t-79 -204.5q0 -121 79.5 -204t204.5 -83v-79q-166 0 -273.5 105.5t-107.5 260.5
zM374 242q0 -49 33 -83t83 -34h101v236h-99q-52 0 -85 -34.5t-33 -84.5z" />
    <glyph glyph-name="A" unicode="A" horiz-adv-x="628" 
d="M517 0l-71 203h-266l-70 -203h-102l254 706h104l254 -706h-103zM315 609h-2q-16 -64 -28 -100l-79 -224h214l-78 224z" />
    <glyph glyph-name="B" unicode="B" horiz-adv-x="634" 
d="M96 0v706h247q91 0 148 -48t57 -132q0 -51 -23.5 -91t-64.5 -61v-2q54 -16 85 -63t31 -108q0 -96 -64.5 -148.5t-162.5 -52.5h-253zM195 409h148q47 0 75.5 30t28.5 77t-28 75.5t-78 28.5h-146v-211zM195 86h159q56 0 88.5 32.5t32.5 87.5q0 54 -33.5 87.5t-88.5 33.5
h-158v-241z" />
    <glyph glyph-name="C" unicode="C" horiz-adv-x="722" 
d="M48 357q0 154 102.5 257.5t256.5 103.5q48 0 92 -9.5t72.5 -23t50.5 -27.5t32 -24l10 -9l-49 -74q-9 9 -26 21.5t-70.5 34t-107.5 21.5q-116 0 -188.5 -77.5t-72.5 -192.5q0 -116 73.5 -197.5t188.5 -81.5q59 0 113.5 23t79.5 46l25 23l53 -71q-4 -5 -11.5 -12.5
t-34 -26.5t-56 -34t-76 -27t-96.5 -12q-157 0 -259 106t-102 263z" />
    <glyph glyph-name="D" unicode="D" horiz-adv-x="740" 
d="M96 0v706h234q164 0 261 -93.5t97 -258.5q0 -166 -97 -260t-261 -94h-234zM195 86h128q121 0 192 70t71 198q0 127 -71 196.5t-192 69.5h-128v-534z" />
    <glyph glyph-name="E" unicode="E" horiz-adv-x="573" 
d="M96 0v706h410v-86h-311v-221h253v-86h-253v-227h328v-86h-427z" />
    <glyph glyph-name="F" unicode="F" horiz-adv-x="521" 
d="M96 0v706h389v-86h-290v-232h247v-86h-247v-302h-99z" />
    <glyph glyph-name="G" unicode="G" horiz-adv-x="760" 
d="M49 354q0 154 103 259t257 105q47 0 91 -9t73 -21t51 -24.5t32 -21.5l10 -9l-50 -74q-9 8 -25.5 19.5t-68.5 30.5t-105 19q-121 0 -193.5 -77.5t-72.5 -194.5q0 -122 74 -199.5t186 -77.5q54 0 104 22t73 44l23 22v102h-115v86h205v-355h-87v44l1 30h-2l-9 -9t-27 -21
t-44 -26t-60.5 -20.5t-76.5 -9.5q-145 0 -246 103.5t-101 262.5z" />
    <glyph glyph-name="H" unicode="H" horiz-adv-x="756" 
d="M96 0v706h99v-310h366v310h99v-706h-99v310h-366v-310h-99z" />
    <glyph glyph-name="I" unicode="I" horiz-adv-x="291" 
d="M96 0v706h99v-706h-99z" />
    <glyph glyph-name="J" unicode="J" horiz-adv-x="537" 
d="M30 203v35h98v-30q0 -67 32.5 -98t79.5 -31t78.5 30t31.5 95v416h-178v86h277v-503q0 -107 -62 -161t-148 -54t-147.5 54.5t-61.5 160.5z" />
    <glyph glyph-name="K" unicode="K" horiz-adv-x="623" 
d="M96 0v706h99v-297h105l178 297h109l-205 -335v-2l218 -369h-112l-188 324h-105v-324h-99z" />
    <glyph glyph-name="L" unicode="L" horiz-adv-x="529" 
d="M96 0v706h99v-620h316v-86h-415z" />
    <glyph glyph-name="M" unicode="M" horiz-adv-x="866" 
d="M74 0l57 706h104l162 -382l35 -95h2q19 56 35 95l162 382h104l57 -706h-98l-35 445l-1 104h-2q-21 -65 -38 -104l-141 -318h-88l-140 318l-38 106h-2q1 -63 -2 -106l-34 -445h-99z" />
    <glyph glyph-name="N" unicode="N" horiz-adv-x="757" 
d="M96 0v706h98l314 -459q12 -17 26.5 -42.5t23.5 -42.5l9 -17h2q-7 63 -7 102v459h99v-706h-97l-315 458q-12 17 -26.5 43t-23.5 43l-9 17h-2q7 -63 7 -103v-458h-99z" />
    <glyph glyph-name="O" unicode="O" horiz-adv-x="821" 
d="M48 358q0 152 105 256t258 104t257.5 -104t104.5 -256q0 -156 -104.5 -263t-257.5 -107t-258 107t-105 263zM150 358q0 -118 76 -198.5t185 -80.5t184.5 80.5t75.5 198.5q0 115 -75.5 192.5t-184.5 77.5t-185 -77.5t-76 -192.5z" />
    <glyph glyph-name="P" unicode="P" horiz-adv-x="607" 
d="M96 0v706h258q98 0 160 -60.5t62 -160.5t-62.5 -162t-159.5 -62h-159v-261h-99zM195 347h143q64 0 100.5 37t36.5 101q0 63 -36.5 99t-99.5 36h-144v-273z" />
    <glyph glyph-name="Q" unicode="Q" horiz-adv-x="833" 
d="M49 357q0 153 104.5 257t257.5 104q154 0 258.5 -104t104.5 -257q0 -132 -83 -233l84 -80l-58 -62l-82 82q-95 -76 -224 -76q-153 0 -257.5 107t-104.5 262zM151 357q0 -118 75 -198t185 -80q88 0 153 52l-83 81l58 62l81 -82q52 71 52 165q0 116 -75 193.5t-186 77.5
q-110 0 -185 -77.5t-75 -193.5z" />
    <glyph glyph-name="R" unicode="R" horiz-adv-x="641" 
d="M96 0v706h216q89 0 132 -16q55 -20 87 -71t32 -120q0 -68 -34.5 -120t-92.5 -71v-2q8 -9 21 -32l150 -274h-112l-149 281h-151v-281h-99zM195 367h142q58 0 91.5 34.5t33.5 93.5q0 78 -56 109q-30 16 -97 16h-114v-253z" />
    <glyph glyph-name="S" unicode="S" horiz-adv-x="546" 
d="M42 81l56 75q3 -3 8.5 -8t24.5 -18.5t38.5 -23.5t49.5 -18t59 -8q52 0 87 28t35 76q0 31 -19 55t-49 41t-66.5 32.5t-73 33.5t-66.5 40t-49 56.5t-19 78.5q0 83 64.5 140t163.5 57q58 0 108 -18t71 -36l21 -17l-45 -82q-7 7 -20.5 17t-54 27t-80.5 17q-55 0 -91.5 -30
t-36.5 -73q0 -40 35 -68t85.5 -48t101 -44t85.5 -68.5t35 -107.5q0 -85 -61 -142t-163 -57q-42 0 -81.5 9.5t-66 23t-47 27.5t-29.5 24z" />
    <glyph glyph-name="T" unicode="T" horiz-adv-x="593" 
d="M247 0v620h-242v86h583v-86h-242v-620h-99z" />
    <glyph glyph-name="U" unicode="U" horiz-adv-x="728" 
d="M86 250v456h99v-456q0 -80 48 -125.5t130 -45.5q83 0 131.5 45.5t48.5 127.5v454h99v-456q0 -117 -77 -189.5t-201 -72.5t-201 72.5t-77 189.5z" />
    <glyph glyph-name="V" unicode="V" horiz-adv-x="632" 
d="M267 0l-261 706h107l175 -499l27 -97h2q14 59 27 97l177 499h105l-260 -706h-99z" />
    <glyph glyph-name="W" unicode="W" horiz-adv-x="948" 
d="M428 706h88l138 -518l15 -75h2q3 37 13 75l130 518h102l-185 -706h-115l-122 458l-21 100h-2q-9 -55 -21 -100l-122 -458h-115l-180 706h102l125 -518l13 -75h2q5 36 15 75z" />
    <glyph glyph-name="X" unicode="X" horiz-adv-x="612" 
d="M22 0l223 364l-209 342h114l111 -191l45 -84h2q20 45 43 84l111 191h114l-209 -342l223 -364h-112l-128 217l-45 81h-2q-19 -42 -42 -81l-128 -217h-111z" />
    <glyph glyph-name="Y" unicode="Y" horiz-adv-x="588" 
d="M245 0v299l-237 407h112l131 -232l43 -89h2q21 49 43 89l129 232h112l-236 -407v-299h-99z" />
    <glyph glyph-name="Z" unicode="Z" horiz-adv-x="607" 
d="M41 0v66l340 490q12 18 25 34t20 24l6 7v2q-19 -3 -53 -3h-320v86h496v-65l-340 -491q-12 -17 -24.5 -33t-19.5 -23l-7 -8v-2q19 2 53 2h342v-86h-518z" />
    <glyph glyph-name="bracketleft" unicode="[" horiz-adv-x="301" 
d="M101 -95v830h165v-73h-80v-683h80v-74h-165z" />
    <glyph glyph-name="backslash" unicode="\" horiz-adv-x="404" 
d="M282 -42l-254 786h86l254 -786h-86z" />
    <glyph glyph-name="bracketright" unicode="]" horiz-adv-x="302" 
d="M35 -21h81v683h-81v73h166v-830h-166v74z" />
    <glyph glyph-name="asciicircum" unicode="^" horiz-adv-x="613" 
d="M69 247l200 459h63l199 -459h-87l-144 352l-143 -352h-88z" />
    <glyph glyph-name="underscore" unicode="_" horiz-adv-x="594" 
d="M28 0h538v-78h-538v78z" />
    <glyph glyph-name="grave" unicode="`" horiz-adv-x="499" 
d="M256 755l-95 127h104l73 -127h-82z" />
    <glyph glyph-name="a" unicode="a" horiz-adv-x="528" 
d="M35 142q0 174 305 174h22v9q0 111 -111 111q-35 0 -70 -12t-53 -24l-18 -13l-40 71q8 7 23.5 17t64.5 26.5t101 16.5q96 0 148 -51t52 -147v-320h-90v48l2 40h-2l-5.5 -11t-17 -24t-30 -30t-46 -24t-63.5 -11q-70 0 -121 41t-51 113zM133 147q0 -33 25 -57t70 -24
q58 0 96.5 50.5t38.5 110.5v16h-25q-205 0 -205 -96z" />
    <glyph glyph-name="b" unicode="b" horiz-adv-x="600" 
d="M76 0v706h97v-231l-2 -43h2q2 3 5.5 9t17.5 21t30.5 26t46 20.5t62.5 9.5q101 0 161.5 -73t60.5 -192t-64.5 -192t-165.5 -73q-32 0 -60 9t-45 21.5t-30 25.5t-18 22l-6 9h-2q2 -16 2 -38v-37h-92zM170 251q0 -73 37.5 -126.5t105.5 -53.5q62 0 104 48.5t42 132.5
q0 82 -39.5 131.5t-103.5 49.5q-62 0 -104 -45.5t-42 -136.5z" />
    <glyph glyph-name="c" unicode="c" horiz-adv-x="547" 
d="M40 253q0 113 76.5 189t194.5 76q56 0 103.5 -18.5t67.5 -37.5l19 -18l-46 -68q-6 6 -17.5 16t-48 26t-74.5 16q-76 0 -126 -51t-50 -129t50.5 -130t128.5 -52q42 0 81 17t57 34l18 17l39 -71l-8.5 -8.5t-24.5 -19.5t-41 -24.5t-56.5 -19.5t-71.5 -9q-119 0 -195 75
t-76 190z" />
    <glyph glyph-name="d" unicode="d" horiz-adv-x="601" 
d="M43 253q0 120 64 192.5t165 72.5q33 0 61 -8t44.5 -20t29 -24t17.5 -20l4 -8h2q-2 15 -2 34v234h97v-706h-92v48l1 34h-2q-2 -4 -5.5 -10t-17 -22.5t-31 -29t-47.5 -22.5t-65 -10q-102 0 -162.5 73t-60.5 192zM142 253q0 -82 39.5 -131.5t103.5 -49.5q62 0 104 45.5
t42 136.5q0 73 -37.5 126.5t-105.5 53.5q-62 0 -104 -48.5t-42 -132.5z" />
    <glyph glyph-name="e" unicode="e" horiz-adv-x="555" 
d="M41 253q0 119 71.5 192t181.5 73q103 0 161 -67t58 -170l-3 -42h-369q4 -80 53.5 -123.5t120.5 -43.5q39 0 76.5 15t55.5 29l18 15l40 -71q-8 -8 -24 -20t-67 -32t-105 -20q-118 0 -193 75.5t-75 189.5zM144 312h270q-2 63 -36.5 96t-85.5 33q-57 0 -97.5 -34t-50.5 -95z
" />
    <glyph glyph-name="f" unicode="f" horiz-adv-x="336" 
d="M103 0v421h-63v78h63v24q0 48 14 83.5t34 55t48 31t49.5 15t44.5 3.5l37 -3v-83q-10 2 -25 2q-17 0 -32.5 -3.5t-33.5 -13.5t-29 -33t-11 -56v-22h120v-78h-120v-421h-96z" />
    <glyph glyph-name="g" unicode="g" horiz-adv-x="593" 
d="M121 -92q63 -34 139 -34q72 0 116 34.5t44 107.5v37l1 32h-2q-47 -79 -150 -79t-164.5 73.5t-61.5 185.5t59 182.5t162 70.5q34 0 63 -7.5t46 -19t29 -22.5t16 -19l5 -7h2q-1 7 -1 16v47h93v-485q0 -60 -21.5 -106t-58.5 -72.5t-81 -39.5t-94 -13q-91 0 -173 42zM288 90
q59 0 96.5 41t37.5 133q0 170 -143 170q-65 0 -101.5 -44.5t-36.5 -122.5q0 -80 39.5 -128.5t107.5 -48.5z" />
    <glyph glyph-name="h" unicode="h" horiz-adv-x="603" 
d="M76 0v706h97v-259l-2 -42h2q20 44 69 78.5t118 34.5q174 0 174 -194v-324h-97v302q0 61 -20 94t-76 33t-100 -35t-60 -90q-8 -27 -8 -67v-237h-97z" />
    <glyph glyph-name="i" unicode="i" horiz-adv-x="249" 
d="M75 607v99h98v-99h-98zM76 0v506h97v-506h-97z" />
    <glyph glyph-name="j" unicode="j" horiz-adv-x="248" 
d="M75 607v99h98v-99h-98zM76 506h96v-523q0 -59 -20.5 -100t-53.5 -58.5t-61 -24t-58 -6.5l-34 2v83q9 -1 22 -1q17 0 33 4t34.5 14t30 34t11.5 59v517z" />
    <glyph glyph-name="k" unicode="k" horiz-adv-x="526" 
d="M76 0v706h97v-386h71l138 186h110l-168 -223v-2l187 -281h-113l-152 238h-73v-238h-97z" />
    <glyph glyph-name="l" unicode="l" horiz-adv-x="265" 
d="M70 138v568h97v-551q0 -42 14 -57t40 -15l17 1v-86q-15 -2 -32 -2q-136 0 -136 142z" />
    <glyph glyph-name="m" unicode="m" horiz-adv-x="914" 
d="M76 0v506h94v-67l-2 -37h2q19 47 68 81.5t106 34.5q126 0 152 -115h2q22 48 71.5 81.5t108.5 33.5q167 0 167 -194v-324h-97v303q0 61 -18.5 94t-71.5 33q-51 0 -89.5 -37t-52.5 -92q-7 -29 -7 -70v-231h-97v303q0 60 -17.5 93.5t-70.5 33.5t-91.5 -38t-53.5 -95
q-6 -24 -6 -66v-231h-97z" />
    <glyph glyph-name="n" unicode="n" horiz-adv-x="603" 
d="M76 0v506h94v-67l-2 -37h2q20 43 68 79.5t122 36.5q174 0 174 -194v-324h-97v302q0 61 -20 94t-76 33q-57 0 -100.5 -34.5t-59.5 -89.5q-8 -27 -8 -68v-237h-97z" />
    <glyph glyph-name="o" unicode="o" horiz-adv-x="624" 
d="M39 254q0 114 79 189t194 75t194 -75t79 -189t-79.5 -190t-193.5 -76t-193.5 76t-79.5 190zM138 254q0 -78 51 -130t123 -52q73 0 123.5 51.5t50.5 130.5q0 78 -50.5 129t-123.5 51q-72 0 -123 -51t-51 -129z" />
    <glyph glyph-name="p" unicode="p" horiz-adv-x="600" 
d="M76 -200v706h89v-43l-2 -37h2q2 4 5.5 10t18 22t32 28t48 22t66.5 10q101 0 161.5 -73t60.5 -192t-64.5 -192t-164.5 -73q-31 0 -58.5 8.5t-44.5 21t-29.5 24.5t-17.5 20l-5 9h-2q2 -18 2 -44v-227h-97zM170 251q0 -73 38.5 -126.5t104.5 -53.5q62 0 104 48.5t42 132.5
q0 82 -39.5 131.5t-103.5 49.5q-62 0 -104 -45.5t-42 -136.5z" />
    <glyph glyph-name="q" unicode="q" horiz-adv-x="601" 
d="M43 253q0 120 64 192.5t165 72.5q33 0 61.5 -9t45.5 -21t30 -24.5t18 -21.5l5 -9h2q-1 15 -1 35v38h92v-706h-97v231l2 44h-2q-2 -4 -5.5 -9.5t-17 -20.5t-30.5 -26.5t-46 -21t-63 -9.5q-102 0 -162.5 73t-60.5 192zM142 253q0 -82 39.5 -131.5t103.5 -49.5
q62 0 104 45.5t42 136.5q0 73 -37.5 126.5t-105.5 53.5q-62 0 -104 -48.5t-42 -132.5z" />
    <glyph glyph-name="r" unicode="r" horiz-adv-x="375" 
d="M76 0v506h94v-88l-2 -38h2q18 58 60.5 95t99.5 37l25 -2v-96q-13 3 -28 3q-47 0 -86 -32t-56 -87q-12 -39 -12 -91v-207h-97z" />
    <glyph glyph-name="s" unicode="s" horiz-adv-x="448" 
d="M35 62l47 69q6 -7 18 -16.5t50 -26t77 -16.5q34 0 59 17t25 46q0 25 -27 44t-65 33.5t-76 32t-65 50.5t-27 79q0 67 52 105.5t131 38.5q49 0 90 -14t57 -28l16 -14l-39 -73q-5 5 -14.5 12.5t-42 20t-68.5 12.5q-35 0 -59 -15.5t-24 -46.5q0 -25 27 -43t65 -32.5t76 -32
t65 -50.5t27 -79q0 -64 -50.5 -105.5t-132.5 -41.5q-55 0 -103 18.5t-68 37.5z" />
    <glyph glyph-name="t" unicode="t" horiz-adv-x="358" 
d="M97 185v236h-66v78h69v146h94v-146h122v-78h-122v-225q0 -29 8 -50.5t19.5 -33.5t27 -19t28 -9t25.5 -2l23 2v-86q-14 -2 -34 -2q-24 0 -46 3t-50 15t-48.5 31.5t-35 55.5t-14.5 84z" />
    <glyph glyph-name="u" unicode="u" horiz-adv-x="598" 
d="M69 182v324h97v-302q0 -61 19.5 -93.5t75.5 -32.5q74 0 119 56t45 135v237h97v-506h-94v67l2 37h-2q-19 -44 -68.5 -80t-117.5 -36q-173 0 -173 194z" />
    <glyph glyph-name="v" unicode="v" horiz-adv-x="502" 
d="M196 0l-189 506h103l123 -342q4 -12 8 -29.5t7 -28.5l2 -11h2l2 11q3 11 7.5 28.5t8.5 29.5l123 342h102l-187 -506h-112z" />
    <glyph glyph-name="w" unicode="w" horiz-adv-x="814" 
d="M180 0l-163 506h103l105 -355q3 -11 6.5 -25t4.5 -22l2 -7h2q5 28 13 54l110 354h89l109 -354l14 -54h2q4 28 12 54l106 355h102l-163 -506h-107l-105 325l-14 55h-2q-6 -29 -14 -55l-104 -325h-108z" />
    <glyph glyph-name="x" unicode="x" horiz-adv-x="508" 
d="M255 197h-2q-8 -16 -15 -28l-106 -169h-110l172 260l-163 246h111l94 -154l17 -30h2q9 17 17 30l94 154h111l-163 -246l172 -260h-110l-106 169z" />
    <glyph glyph-name="y" unicode="y" horiz-adv-x="510" 
d="M5 -179l34 74q28 -21 59 -21q60 0 91 74l25 58l-212 500h109l127 -331l19 -61h2q8 34 17 60l123 332h105l-237 -597q-23 -57 -66.5 -88t-97.5 -31q-25 0 -49.5 8t-36.5 16z" />
    <glyph glyph-name="z" unicode="z" horiz-adv-x="517" 
d="M39 0v56l255 320l42 47v2q-16 -2 -49 -2h-237v83h417v-56l-255 -321l-43 -46v-2q17 2 50 2h257v-83h-437z" />
    <glyph glyph-name="braceleft" unicode="{" horiz-adv-x="350" 
d="M134 77v96q0 29 -9 50.5t-21 32t-24.5 17t-21.5 7.5l-9 2v86q3 0 9 1t20.5 8t26 18t20.5 33t9 51v84q0 45 12.5 78.5t30 51t42 28.5t42 13.5t35.5 2.5l23 -1v-74h-14q-13 0 -24.5 -3.5t-27 -13t-25 -32t-9.5 -56.5v-103q0 -28 -8.5 -51t-20.5 -36.5t-23.5 -23
t-20.5 -13.5l-8 -3v-2q3 -1 8.5 -3t19.5 -12t24.5 -23t19.5 -36.5t9 -52.5v-115q0 -34 9.5 -56.5t25 -32t27 -13t24.5 -3.5h14v-74q-9 -2 -23 -2q-18 0 -35.5 2.5t-42 13.5t-42 28.5t-30 51.5t-12.5 79z" />
    <glyph glyph-name="bar" unicode="|" horiz-adv-x="283" 
d="M99 -159v951h85v-951h-85z" />
    <glyph glyph-name="braceright" unicode="}" horiz-adv-x="350" 
d="M31 -22h14q13 0 24.5 3.5t27 13t25 32t9.5 56.5v115q0 46 20.5 77.5t40.5 40.5l20 9v2q-3 1 -8.5 3.5t-19.5 12.5t-24.5 23t-19.5 36.5t-9 51.5v103q0 34 -9.5 56.5t-25 32t-27 13t-24.5 3.5h-14v74q9 1 23 1q18 0 35.5 -2.5t42 -13.5t42 -28.5t30 -51t12.5 -78.5v-84
q0 -29 9 -51t21 -33t24.5 -17.5t21.5 -7.5l9 -2v-86q-3 0 -9 -1t-20.5 -8t-26 -17.5t-20.5 -32t-9 -50.5v-96q0 -45 -12.5 -79t-30 -51.5t-42 -28.5t-42 -13.5t-35.5 -2.5l-23 2v74z" />
    <glyph glyph-name="asciitilde" unicode="~" horiz-adv-x="608" 
d="M67 204q0 85 36.5 127t103.5 42q35 0 63.5 -15.5t43.5 -33.5t37 -33.5t47 -15.5q36 0 51.5 28t15.5 66h79q0 -169 -139 -169q-35 0 -63.5 15t-43.5 33.5t-37.5 33.5t-47.5 15q-35 0 -51 -28t-16 -65h-79z" />
    <glyph glyph-name="uni00A0" unicode="&#xa0;" horiz-adv-x="257" 
 />
    <glyph glyph-name="exclamdown" unicode="&#xa1;" horiz-adv-x="289" 
d="M94 409v97h99v-97h-99zM94 -200l7 512h87l6 -512h-100z" />
    <glyph glyph-name="cent" unicode="&#xa2;" horiz-adv-x="576" 
d="M264 -13v86q-97 13 -154 91.5t-57 188.5q0 111 57 189.5t154 91.5v84h71v-84q65 -10 113.5 -50.5t74.5 -104.5l-88 -34q-44 99 -133 99q-70 0 -110 -53.5t-40 -137.5q0 -86 39 -138t111 -52q90 0 133 99l88 -35q-27 -61 -74.5 -104t-113.5 -50v-86h-71z" />
    <glyph glyph-name="sterling" unicode="&#xa3;" horiz-adv-x="591" 
d="M73 319v70h44v136q0 83 61.5 138t155.5 55q45 0 86.5 -16t61.5 -32l19 -16l-57 -69q-48 43 -109 43q-54 0 -86 -30.5t-32 -76.5v-132h184v-70h-184v-233h325v-86h-486v86h61v233h-44z" />
    <glyph glyph-name="yen" unicode="&#xa5;" horiz-adv-x="607" 
d="M90 347v63h103l-165 296h113l118 -220l43 -102h2q21 55 43 102l119 220h113l-166 -296h102v-63h-135l-27 -48v-37h162v-63h-162v-199h-100v199h-163v63h163v37l-27 48h-136z" />
    <glyph glyph-name="section" unicode="&#xa7;" horiz-adv-x="442" 
d="M139 111l-70 390q-6 23 -6 46q0 75 51 123t138 48q38 0 73.5 -13t51.5 -25l16 -13l-46 -64q-40 34 -95 34q-47 0 -77 -26t-30 -75q0 -18 6 -40l68 -385h-80zM48 -11l44 67q41 -37 97 -37q46 0 76 27.5t30 77.5q0 20 -6 45l-66 376h79l70 -390q5 -27 5 -45q0 -76 -51 -124
t-137 -48q-39 0 -74 13t-51 25z" />
    <glyph glyph-name="dieresis" unicode="&#xa8;" horiz-adv-x="499" 
d="M293 781v101h80v-101h-80zM126 781v101h80v-101h-80z" />
    <glyph glyph-name="copyright" unicode="&#xa9;" horiz-adv-x="821" 
d="M54 353q0 152 103.5 258.5t251.5 106.5q149 0 253.5 -106.5t104.5 -258.5t-104.5 -258.5t-253.5 -106.5q-148 0 -251.5 106.5t-103.5 258.5zM127 353q0 -125 81.5 -211t200.5 -86q121 0 203 86t82 211t-82 211t-203 86q-119 0 -200.5 -86t-81.5 -211zM219 352
q0 82 54.5 141t142.5 59q32 0 60.5 -10t46.5 -25t31.5 -29.5t19.5 -24.5l5 -10l-61 -33q-4 7 -11.5 17.5t-33 28t-54.5 17.5q-57 0 -90.5 -38.5t-33.5 -92.5q0 -56 33 -93.5t91 -37.5q18 0 35 6.5t28.5 15.5t19.5 18.5t12 16.5l4 6l61 -33q-2 -4 -6 -10.5t-18.5 -24
t-31.5 -30.5t-46 -23.5t-61 -10.5q-88 0 -142.5 58.5t-54.5 141.5z" />
    <glyph glyph-name="ordfeminine" unicode="&#xaa;" horiz-adv-x="422" 
d="M182 382q-43 0 -75.5 26t-32.5 71q0 110 188 110h10v6q0 63 -64 63q-19 0 -40 -7t-32 -14l-11 -7l-29 49q45 37 121 37q62 0 94.5 -32.5t32.5 -93.5v-201h-68v46h-2q-3 -6 -9.5 -15t-30 -23.5t-52.5 -14.5zM197 441q33 0 54 27.5t21 61.5v8h-12q-114 0 -114 -54
q0 -18 13.5 -30.5t37.5 -12.5zM73 265v57h275v-57h-275z" />
    <glyph glyph-name="guillemotleft" unicode="&#xab;" horiz-adv-x="556" 
d="M245 282l164 206h97l-164 -206l164 -205h-97zM208 77l-164 205l164 206h97l-164 -206l164 -205h-97z" />
    <glyph glyph-name="logicalnot" unicode="&#xac;" horiz-adv-x="614" 
d="M60 340v78h477v-267h-81v189h-396z" />
    <glyph glyph-name="uni00AD" unicode="&#xad;" horiz-adv-x="431" 
d="M70 242v86h292v-86h-292z" />
    <glyph glyph-name="registered" unicode="&#xae;" horiz-adv-x="821" 
d="M54 353q0 152 103.5 258.5t251.5 106.5q149 0 253.5 -106.5t104.5 -258.5t-104.5 -258.5t-253.5 -106.5q-148 0 -251.5 106.5t-103.5 258.5zM127 353q0 -125 81.5 -211t200.5 -86q121 0 203 86t82 211t-82 211t-203 86q-119 0 -200.5 -86t-81.5 -211zM287 166v377h145
q54 0 86.5 -31.5t32.5 -83.5q0 -40 -21 -66.5t-48 -33.5v-2q4 -4 13 -21l72 -139h-78l-70 146h-61v-146h-71zM358 364h60q28 0 44.5 17t16.5 47q0 29 -16.5 45t-44.5 16h-60v-125z" />
    <glyph glyph-name="macron" unicode="&#xaf;" horiz-adv-x="499" 
d="M122 784v70h255v-70h-255z" />
    <glyph glyph-name="degree" unicode="&#xb0;" 
d="M194 422q-63 0 -107 43t-44 105q0 61 44 104.5t107 43.5t107.5 -43.5t44.5 -104.5t-44.5 -104.5t-107.5 -43.5zM194 496q31 0 52.5 21.5t21.5 52.5t-21.5 53t-52.5 22t-52.5 -22t-21.5 -53t21.5 -52.5t52.5 -21.5z" />
    <glyph glyph-name="plusminus" unicode="&#xb1;" horiz-adv-x="681" 
d="M76 246v78h224v246h82v-246h223v-78h-223v-246h-82v246h-224zM92 -95h497v-78h-497v78z" />
    <glyph glyph-name="twosuperior" unicode="&#xb2;" 
d="M50 423l-3 36q0 47 22 83.5t53 59t62 42t53 42.5t22 50q0 28 -20.5 46.5t-51.5 18.5q-22 0 -43 -12t-31 -24l-10 -12l-49 45q2 3 5.5 8t16 17t27.5 21.5t38.5 17.5t49.5 8q62 0 103 -36.5t41 -94.5q0 -40 -20.5 -72t-50.5 -52.5t-60 -38.5t-51.5 -39.5t-23.5 -47.5h213
v-66h-292z" />
    <glyph glyph-name="threesuperior" unicode="&#xb3;" 
d="M187 413q-45 0 -81.5 16.5t-51.5 32.5l-14 17l42 53q4 -6 12 -14t34.5 -22t55.5 -14q33 0 58 22t25 54q0 33 -26.5 52t-62.5 19h-34l-16 38l89 103l24 24v2q-19 -3 -36 -3h-141v67h271v-48l-109 -126q50 -7 83.5 -39.5t33.5 -88.5q0 -59 -44.5 -102t-111.5 -43z" />
    <glyph glyph-name="acute" unicode="&#xb4;" horiz-adv-x="499" 
d="M161 755l73 127h104l-96 -127h-81z" />
    <glyph glyph-name="mu" unicode="&#xb5;" horiz-adv-x="619" 
d="M83 -200v706h97v-302q0 -61 19.5 -93.5t74.5 -32.5q75 0 120 56t45 135v237h97v-506h-94v69l2 35h-3q-2 -5 -6 -12.5t-19.5 -27.5t-35 -35.5t-53 -28t-72.5 -12.5q-30 0 -52.5 8t-30.5 16l-8 7h-2q7 -49 7 -78v-141h-86z" />
    <glyph glyph-name="mu" unicode="&#x3bc;" horiz-adv-x="619" 
d="M83 -200v706h97v-302q0 -61 19.5 -93.5t74.5 -32.5q75 0 120 56t45 135v237h97v-506h-94v69l2 35h-3q-2 -5 -6 -12.5t-19.5 -27.5t-35 -35.5t-53 -28t-72.5 -12.5q-30 0 -52.5 8t-30.5 16l-8 7h-2q7 -49 7 -78v-141h-86z" />
    <glyph glyph-name="paragraph" unicode="&#xb6;" horiz-adv-x="590" 
d="M280 -50v291q-97 0 -167 67.5t-70 165.5t69.5 165t166.5 67h272v-86h-196v-670h-75zM417 -50v613h74v-613h-74z" />
    <glyph glyph-name="periodcentered" unicode="&#xb7;" horiz-adv-x="275" 
d="M88 239v103h99v-103h-99z" />
    <glyph glyph-name="cedilla" unicode="&#xb8;" horiz-adv-x="499" 
d="M219 23l49 -10v-8l-12 -55q32 -4 52 -23t20 -50q0 -43 -29.5 -63.5t-72.5 -20.5q-14 0 -28 1.5t-20 3.5l-7 2v58q20 -7 42 -7q48 0 48 31t-53 31l-18 -1z" />
    <glyph glyph-name="onesuperior" unicode="&#xb9;" 
d="M71 423v66h93v249l2 26h-2q-4 -9 -18 -22l-35 -34l-46 49l106 103h68v-371h91v-66h-259z" />
    <glyph glyph-name="ordmasculine" unicode="&#xba;" horiz-adv-x="467" 
d="M233 384q-72 0 -121.5 47.5t-49.5 120.5q0 71 49.5 118t120.5 47q72 0 122 -47t50 -118q0 -73 -49.5 -120.5t-121.5 -47.5zM233 448q41 0 69.5 29.5t28.5 74.5q0 44 -28.5 72.5t-69.5 28.5q-42 0 -70.5 -28.5t-28.5 -72.5q0 -45 28.5 -74.5t70.5 -29.5zM78 265v57h312
v-57h-312z" />
    <glyph glyph-name="guillemotright" unicode="&#xbb;" horiz-adv-x="557" 
d="M252 77l164 205l-164 206h97l164 -206l-164 -205h-97zM50 77l164 205l-164 206h97l164 -206l-164 -205h-97z" />
    <glyph glyph-name="onequarter" unicode="&#xbc;" horiz-adv-x="967" 
d="M336 0h-75l336 706h75zM59 269v66h93v249l2 26h-2q-4 -9 -18 -22l-35 -34l-46 49l106 103h68v-371h91v-66h-259zM778 0v107h-208v50l201 280h81v-264h61v-66h-61v-107h-74zM652 173h126v123l3 58h-2q-14 -27 -29 -48l-98 -131v-2z" />
    <glyph glyph-name="onehalf" unicode="&#xbd;" horiz-adv-x="961" 
d="M338 0h-75l336 706h75zM59 269v66h93v249l2 26h-2q-4 -9 -18 -22l-35 -34l-46 49l106 103h68v-371h91v-66h-259zM603 0l-3 36q0 47 22 83.5t53 59t62 42t53 42.5t22 50q0 28 -20.5 46.5t-51.5 18.5q-22 0 -43 -12t-31 -24l-10 -12l-49 45q2 3 5.5 8t16 17t27.5 21.5
t38.5 17.5t49.5 8q62 0 103 -36.5t41 -94.5q0 -40 -20.5 -72t-50.5 -52.5t-60 -38.5t-51.5 -39.5t-23.5 -47.5h213v-66h-292z" />
    <glyph glyph-name="threequarters" unicode="&#xbe;" horiz-adv-x="979" 
d="M348 0h-75l336 706h75zM790 0v107h-208v50l201 280h81v-264h61v-66h-61v-107h-74zM664 173h126v123l3 58h-2q-14 -27 -29 -48l-98 -131v-2zM187 259q-45 0 -81.5 16.5t-51.5 32.5l-14 17l42 53q4 -6 12 -14t34.5 -22t55.5 -14q33 0 58 22t25 54q0 33 -26.5 52t-62.5 19
h-34l-16 38l89 103l24 24v2q-19 -3 -36 -3h-141v67h271v-48l-109 -126q50 -7 83.5 -39.5t33.5 -88.5q0 -59 -44.5 -102t-111.5 -43z" />
    <glyph glyph-name="questiondown" unicode="&#xbf;" horiz-adv-x="450" 
d="M214 409v97h99v-97h-99zM39 -28q0 39 13 71.5t33 53.5t42.5 43t42.5 39.5t33 42.5t13 53v37h94v-43q0 -42 -17.5 -77t-42.5 -58.5t-49.5 -45.5t-42 -49.5t-17.5 -58.5q0 -42 32.5 -71t81.5 -29q28 0 56.5 11t42.5 21l15 11l53 -69q-3 -3 -8 -7t-22 -15t-36 -19.5
t-48 -15.5t-60 -7q-87 0 -148 50.5t-61 131.5z" />
    <glyph glyph-name="Agrave" unicode="&#xc0;" horiz-adv-x="628" 
d="M517 0l-71 203h-266l-70 -203h-102l254 706h104l254 -706h-103zM315 609h-2q-16 -64 -28 -100l-79 -224h214l-78 224zM275 755l-95 127h104l73 -127h-82z" />
    <glyph glyph-name="Aacute" unicode="&#xc1;" horiz-adv-x="628" 
d="M517 0l-71 203h-266l-70 -203h-102l254 706h104l254 -706h-103zM315 609h-2q-16 -64 -28 -100l-79 -224h214l-78 224zM270 755l73 127h104l-96 -127h-81z" />
    <glyph glyph-name="Acircumflex" unicode="&#xc2;" horiz-adv-x="628" 
d="M517 0l-71 203h-266l-70 -203h-102l254 706h104l254 -706h-103zM315 609h-2q-16 -64 -28 -100l-79 -224h214l-78 224zM175 755l88 127h101l88 -127h-85l-53 80h-2l-52 -80h-85z" />
    <glyph glyph-name="Atilde" unicode="&#xc3;" horiz-adv-x="628" 
d="M517 0l-71 203h-266l-70 -203h-102l254 706h104l254 -706h-103zM315 609h-2q-16 -64 -28 -100l-79 -224h214l-78 224zM146 756q0 127 102 127q29 0 51 -17t40 -34t35 -17q20 0 29.5 19.5t9.5 45.5h70q0 -127 -102 -127q-29 0 -51 17t-40 34t-35 17q-39 0 -39 -65h-70z
" />
    <glyph glyph-name="Adieresis" unicode="&#xc4;" horiz-adv-x="628" 
d="M517 0l-71 203h-266l-70 -203h-102l254 706h104l254 -706h-103zM315 609h-2q-16 -64 -28 -100l-79 -224h214l-78 224zM358 781v101h80v-101h-80zM191 781v101h80v-101h-80z" />
    <glyph glyph-name="Aring" unicode="&#xc5;" horiz-adv-x="628" 
d="M517 0l-71 203h-266l-70 -203h-102l254 706h104l254 -706h-103zM315 609h-2q-16 -64 -28 -100l-79 -224h214l-78 224zM314 743q-35 0 -60 20.5t-25 53.5q0 34 25 54.5t60 20.5t60 -20.5t25 -54.5q0 -33 -25 -53.5t-60 -20.5zM314 784q14 0 23.5 9.5t9.5 23.5
q0 16 -9.5 25.5t-23.5 9.5q-15 0 -24 -9.5t-9 -25.5q0 -14 9 -23.5t24 -9.5z" />
    <glyph glyph-name="AE" unicode="&#xc6;" horiz-adv-x="878" 
d="M4 0l292 706h516v-86h-312v-221h254v-86h-254v-227h329v-86h-427v314h-169l-126 -314h-103zM356 620l-90 -224h136v224h-46z" />
    <glyph glyph-name="Ccedilla" unicode="&#xc7;" horiz-adv-x="724" 
d="M50 357q0 154 102.5 257.5t256.5 103.5q48 0 92 -9.5t72.5 -23t50.5 -27.5t32 -24l10 -9l-49 -74q-9 9 -26 21.5t-70.5 34t-107.5 21.5q-116 0 -188.5 -77.5t-72.5 -192.5q0 -116 73.5 -197.5t188.5 -81.5q59 0 113.5 23t79.5 46l25 23l53 -71q-4 -4 -11 -11.5t-32 -25.5
t-53 -32.5t-72 -27.5t-91 -15l-8 -38q32 -4 52 -23t20 -50q0 -43 -29.5 -63.5t-72.5 -20.5q-14 0 -28 1.5t-20 3.5l-7 2v58q20 -7 42 -7q48 0 48 31t-53 31l-18 -1l20 78q-142 13 -232 116.5t-90 250.5z" />
    <glyph glyph-name="Egrave" unicode="&#xc8;" horiz-adv-x="573" 
d="M96 0v706h410v-86h-311v-221h253v-86h-253v-227h328v-86h-427zM273 755l-95 127h104l73 -127h-82z" />
    <glyph glyph-name="Eacute" unicode="&#xc9;" horiz-adv-x="573" 
d="M96 0v706h410v-86h-311v-221h253v-86h-253v-227h328v-86h-427zM269 755l73 127h104l-96 -127h-81z" />
    <glyph glyph-name="Ecircumflex" unicode="&#xca;" horiz-adv-x="573" 
d="M96 0v706h410v-86h-311v-221h253v-86h-253v-227h328v-86h-427zM174 755l88 127h101l88 -127h-85l-53 80h-2l-52 -80h-85z" />
    <glyph glyph-name="Edieresis" unicode="&#xcb;" horiz-adv-x="573" 
d="M96 0v706h410v-86h-311v-221h253v-86h-253v-227h328v-86h-427zM356 781v101h80v-101h-80zM189 781v101h80v-101h-80z" />
    <glyph glyph-name="Igrave" unicode="&#xcc;" horiz-adv-x="291" 
d="M96 0v706h99v-706h-99zM107 755l-95 127h104l73 -127h-82z" />
    <glyph glyph-name="Iacute" unicode="&#xcd;" horiz-adv-x="291" 
d="M96 0v706h99v-706h-99zM103 755l73 127h104l-96 -127h-81z" />
    <glyph glyph-name="Icircumflex" unicode="&#xce;" horiz-adv-x="291" 
d="M96 0v706h99v-706h-99zM7 755l88 127h101l88 -127h-85l-53 80h-2l-52 -80h-85z" />
    <glyph glyph-name="Idieresis" unicode="&#xcf;" horiz-adv-x="291" 
d="M96 0v706h99v-706h-99zM190 781v101h80v-101h-80zM23 781v101h80v-101h-80z" />
    <glyph glyph-name="Eth" unicode="&#xd0;" horiz-adv-x="759" 
d="M115 0v312h-59v82h59v312h234q164 0 261 -93.5t97 -258.5q0 -166 -97 -260t-261 -94h-234zM214 86h128q121 0 192 70t71 198q0 127 -71 196.5t-192 69.5h-128v-226h149v-82h-149v-226z" />
    <glyph glyph-name="Ntilde" unicode="&#xd1;" horiz-adv-x="757" 
d="M96 0v706h98l314 -459q12 -17 26.5 -42.5t23.5 -42.5l9 -17h2q-7 63 -7 102v459h99v-706h-97l-315 458q-12 17 -26.5 43t-23.5 43l-9 17h-2q7 -63 7 -103v-458h-99zM210 756q0 127 102 127q29 0 51 -17t40 -34t35 -17q20 0 29.5 19.5t9.5 45.5h70q0 -127 -102 -127
q-29 0 -51 17t-40 34t-35 17q-39 0 -39 -65h-70z" />
    <glyph glyph-name="Ograve" unicode="&#xd2;" horiz-adv-x="821" 
d="M48 358q0 152 105 256t258 104t257.5 -104t104.5 -256q0 -156 -104.5 -263t-257.5 -107t-258 107t-105 263zM150 358q0 -118 76 -198.5t185 -80.5t184.5 80.5t75.5 198.5q0 115 -75.5 192.5t-184.5 77.5t-185 -77.5t-76 -192.5zM372 755l-95 127h104l73 -127h-82z" />
    <glyph glyph-name="Oacute" unicode="&#xd3;" horiz-adv-x="821" 
d="M48 358q0 152 105 256t258 104t257.5 -104t104.5 -256q0 -156 -104.5 -263t-257.5 -107t-258 107t-105 263zM150 358q0 -118 76 -198.5t185 -80.5t184.5 80.5t75.5 198.5q0 115 -75.5 192.5t-184.5 77.5t-185 -77.5t-76 -192.5zM368 755l73 127h104l-96 -127h-81z" />
    <glyph glyph-name="Ocircumflex" unicode="&#xd4;" horiz-adv-x="821" 
d="M48 358q0 152 105 256t258 104t257.5 -104t104.5 -256q0 -156 -104.5 -263t-257.5 -107t-258 107t-105 263zM150 358q0 -118 76 -198.5t185 -80.5t184.5 80.5t75.5 198.5q0 115 -75.5 192.5t-184.5 77.5t-185 -77.5t-76 -192.5zM272 755l88 127h101l88 -127h-85l-53 80
h-2l-52 -80h-85z" />
    <glyph glyph-name="Otilde" unicode="&#xd5;" horiz-adv-x="821" 
d="M48 358q0 152 105 256t258 104t257.5 -104t104.5 -256q0 -156 -104.5 -263t-257.5 -107t-258 107t-105 263zM150 358q0 -118 76 -198.5t185 -80.5t184.5 80.5t75.5 198.5q0 115 -75.5 192.5t-184.5 77.5t-185 -77.5t-76 -192.5zM243 756q0 127 102 127q29 0 51 -17
t40 -34t35 -17q20 0 29.5 19.5t9.5 45.5h70q0 -127 -102 -127q-29 0 -51 17t-40 34t-35 17q-39 0 -39 -65h-70z" />
    <glyph glyph-name="Odieresis" unicode="&#xd6;" horiz-adv-x="821" 
d="M48 358q0 152 105 256t258 104t257.5 -104t104.5 -256q0 -156 -104.5 -263t-257.5 -107t-258 107t-105 263zM150 358q0 -118 76 -198.5t185 -80.5t184.5 80.5t75.5 198.5q0 115 -75.5 192.5t-184.5 77.5t-185 -77.5t-76 -192.5zM455 781v101h80v-101h-80zM288 781v101h80
v-101h-80z" />
    <glyph glyph-name="multiply" unicode="&#xd7;" horiz-adv-x="645" 
d="M63 55l206 230l-206 230l55 55l204 -228l205 228l55 -55l-207 -230l207 -230l-55 -55l-205 227l-204 -227z" />
    <glyph glyph-name="Oslash" unicode="&#xd8;" horiz-adv-x="824" 
d="M50 358q0 152 105 256t258 104q100 0 185 -49l46 63l49 -34l-46 -64q60 -50 94 -121.5t34 -154.5q0 -156 -104.5 -263t-257.5 -107q-106 0 -192 53l-47 -66l-50 34l49 69q-58 51 -90.5 123.5t-32.5 156.5zM673 358q0 121 -82 198l-314 -438q61 -39 136 -39
q109 0 184.5 80.5t75.5 198.5zM152 358q0 -120 78 -201l313 435q-59 36 -130 36q-109 0 -185 -77.5t-76 -192.5z" />
    <glyph glyph-name="Ugrave" unicode="&#xd9;" horiz-adv-x="728" 
d="M86 250v456h99v-456q0 -80 48 -125.5t130 -45.5q83 0 131.5 45.5t48.5 127.5v454h99v-456q0 -117 -77 -189.5t-201 -72.5t-201 72.5t-77 189.5zM325 755l-95 127h104l73 -127h-82z" />
    <glyph glyph-name="Uacute" unicode="&#xda;" horiz-adv-x="728" 
d="M86 250v456h99v-456q0 -80 48 -125.5t130 -45.5q83 0 131.5 45.5t48.5 127.5v454h99v-456q0 -117 -77 -189.5t-201 -72.5t-201 72.5t-77 189.5zM320 755l73 127h104l-96 -127h-81z" />
    <glyph glyph-name="Ucircumflex" unicode="&#xdb;" horiz-adv-x="728" 
d="M86 250v456h99v-456q0 -80 48 -125.5t130 -45.5q83 0 131.5 45.5t48.5 127.5v454h99v-456q0 -117 -77 -189.5t-201 -72.5t-201 72.5t-77 189.5zM225 755l88 127h101l88 -127h-85l-53 80h-2l-52 -80h-85z" />
    <glyph glyph-name="Udieresis" unicode="&#xdc;" horiz-adv-x="728" 
d="M86 250v456h99v-456q0 -80 48 -125.5t130 -45.5q83 0 131.5 45.5t48.5 127.5v454h99v-456q0 -117 -77 -189.5t-201 -72.5t-201 72.5t-77 189.5zM408 781v101h80v-101h-80zM241 781v101h80v-101h-80z" />
    <glyph glyph-name="Yacute" unicode="&#xdd;" horiz-adv-x="588" 
d="M245 0v299l-237 407h112l131 -232l43 -89h2q21 49 43 89l129 232h112l-236 -407v-299h-99zM251 755l73 127h104l-96 -127h-81z" />
    <glyph glyph-name="Thorn" unicode="&#xde;" horiz-adv-x="607" 
d="M96 0v706h98v-120h160q98 0 159.5 -60.5t61.5 -160.5t-62 -162t-160 -62h-159v-141h-98zM194 227h144q64 0 100.5 37t36.5 101q0 63 -36.5 99t-99.5 36h-145v-273z" />
    <glyph glyph-name="germandbls" unicode="&#xdf;" horiz-adv-x="588" 
d="M76 0v530q0 88 64 138t152 50q82 0 136 -46.5t54 -114.5q0 -33 -15.5 -61.5t-34.5 -45.5t-34.5 -38t-15.5 -41q0 -17 18.5 -35t45 -36t52.5 -38.5t44.5 -51t18.5 -65.5q0 -72 -50 -112t-121 -40q-41 0 -76.5 7.5t-50.5 14.5l-15 7v86q56 -31 130 -31q36 0 60 18t24 54
q0 27 -28 53.5t-61.5 46t-61.5 51.5t-28 68q0 28 16 54t34.5 43.5t34.5 42t16 48.5q0 32 -25 55t-70 23q-48 0 -82 -29t-34 -82v-523h-97z" />
    <glyph glyph-name="agrave" unicode="&#xe0;" horiz-adv-x="528" 
d="M35 142q0 174 305 174h22v9q0 111 -111 111q-35 0 -70 -12t-53 -24l-18 -13l-40 71q8 7 23.5 17t64.5 26.5t101 16.5q96 0 148 -51t52 -147v-320h-90v48l2 40h-2l-5.5 -11t-17 -24t-30 -30t-46 -24t-63.5 -11q-70 0 -121 41t-51 113zM133 147q0 -33 25 -57t70 -24
q58 0 96.5 50.5t38.5 110.5v16h-25q-205 0 -205 -96zM224 579l-95 127h104l73 -127h-82z" />
    <glyph glyph-name="aacute" unicode="&#xe1;" horiz-adv-x="528" 
d="M35 142q0 174 305 174h22v9q0 111 -111 111q-35 0 -70 -12t-53 -24l-18 -13l-40 71q8 7 23.5 17t64.5 26.5t101 16.5q96 0 148 -51t52 -147v-320h-90v48l2 40h-2l-5.5 -11t-17 -24t-30 -30t-46 -24t-63.5 -11q-70 0 -121 41t-51 113zM133 147q0 -33 25 -57t70 -24
q58 0 96.5 50.5t38.5 110.5v16h-25q-205 0 -205 -96zM218 579l73 127h104l-96 -127h-81z" />
    <glyph glyph-name="acircumflex" unicode="&#xe2;" horiz-adv-x="528" 
d="M35 142q0 174 305 174h22v9q0 111 -111 111q-35 0 -70 -12t-53 -24l-18 -13l-40 71q8 7 23.5 17t64.5 26.5t101 16.5q96 0 148 -51t52 -147v-320h-90v48l2 40h-2l-5.5 -11t-17 -24t-30 -30t-46 -24t-63.5 -11q-70 0 -121 41t-51 113zM133 147q0 -33 25 -57t70 -24
q58 0 96.5 50.5t38.5 110.5v16h-25q-205 0 -205 -96zM123 579l88 127h101l88 -127h-85l-53 80h-2l-52 -80h-85z" />
    <glyph glyph-name="atilde" unicode="&#xe3;" horiz-adv-x="528" 
d="M35 142q0 174 305 174h22v9q0 111 -111 111q-35 0 -70 -12t-53 -24l-18 -13l-40 71q8 7 23.5 17t64.5 26.5t101 16.5q96 0 148 -51t52 -147v-320h-90v48l2 40h-2l-5.5 -11t-17 -24t-30 -30t-46 -24t-63.5 -11q-70 0 -121 41t-51 113zM133 147q0 -33 25 -57t70 -24
q58 0 96.5 50.5t38.5 110.5v16h-25q-205 0 -205 -96zM94 580q0 127 102 127q29 0 51 -17t40 -34t35 -17q20 0 29.5 19.5t9.5 45.5h70q0 -127 -102 -127q-36 0 -71.5 34t-54.5 34q-39 0 -39 -65h-70z" />
    <glyph glyph-name="adieresis" unicode="&#xe4;" horiz-adv-x="528" 
d="M35 142q0 174 305 174h22v9q0 111 -111 111q-35 0 -70 -12t-53 -24l-18 -13l-40 71q8 7 23.5 17t64.5 26.5t101 16.5q96 0 148 -51t52 -147v-320h-90v48l2 40h-2l-5.5 -11t-17 -24t-30 -30t-46 -24t-63.5 -11q-70 0 -121 41t-51 113zM133 147q0 -33 25 -57t70 -24
q58 0 96.5 50.5t38.5 110.5v16h-25q-205 0 -205 -96zM306 605v101h80v-101h-80zM139 605v101h80v-101h-80z" />
    <glyph glyph-name="aring" unicode="&#xe5;" horiz-adv-x="528" 
d="M35 142q0 174 305 174h22v9q0 111 -111 111q-35 0 -70 -12t-53 -24l-18 -13l-40 71q8 7 23.5 17t64.5 26.5t101 16.5q96 0 148 -51t52 -147v-320h-90v48l2 40h-2l-5.5 -11t-17 -24t-30 -30t-46 -24t-63.5 -11q-70 0 -121 41t-51 113zM133 147q0 -33 25 -57t70 -24
q58 0 96.5 50.5t38.5 110.5v16h-25q-205 0 -205 -96zM262 567q-35 0 -60 20.5t-25 53.5q0 34 25 54.5t60 20.5t60 -20.5t25 -54.5q0 -33 -25 -53.5t-60 -20.5zM262 608q14 0 23.5 9.5t9.5 23.5q0 16 -9.5 25.5t-23.5 9.5q-15 0 -24 -9.5t-9 -25.5q0 -14 9 -23.5t24 -9.5z
" />
    <glyph glyph-name="ae" unicode="&#xe6;" horiz-adv-x="864" 
d="M36 142q0 45 22 78.5t53.5 51t76 28.5t78.5 13.5t72 2.5h25v9q0 111 -114 111q-34 0 -68.5 -12t-52.5 -24l-18 -13l-39 71q3 2 8.5 6.5t23.5 14.5t38 18t51.5 14.5t63.5 6.5q127 0 168 -89h2q60 89 185 89q99 0 155 -69.5t56 -176.5l-2 -29h-363q4 -83 50.5 -127
t117.5 -44q39 0 76.5 14.5t55.5 29.5l18 14l40 -70q-8 -8 -24 -20t-67 -32t-104 -20q-75 0 -131 33.5t-87 93.5h-2q-5 -14 -16 -31.5t-33 -41t-59 -39t-83 -15.5q-73 0 -123 41.5t-50 112.5zM461 316h263q-2 61 -36 93t-84 32q-57 0 -95 -31.5t-48 -93.5zM135 147
q0 -34 24.5 -57.5t70.5 -23.5q59 0 96.5 50.5t37.5 111.5v15h-47q-182 0 -182 -96z" />
    <glyph glyph-name="ccedilla" unicode="&#xe7;" horiz-adv-x="548" 
d="M41 253q0 113 76.5 189t194.5 76q56 0 103.5 -18.5t66.5 -37.5l20 -18l-46 -68q-6 6 -17.5 16t-48 26t-74.5 16q-76 0 -126 -51t-50 -129t50.5 -130t128.5 -52q42 0 81 17t57 34l18 17l39 -71l-8 -8t-23 -18.5t-38.5 -24t-53 -20t-67.5 -10.5l-8 -38q32 -4 52 -23t20 -50
q0 -43 -29.5 -63.5t-72.5 -20.5q-14 0 -28 1.5t-20 3.5l-7 2v58q20 -7 42 -7q48 0 48 31t-53 31l-18 -1l20 79q-102 14 -165.5 86t-63.5 176z" />
    <glyph glyph-name="egrave" unicode="&#xe8;" horiz-adv-x="555" 
d="M41 253q0 119 71.5 192t181.5 73q103 0 161 -67t58 -170l-3 -42h-369q4 -80 53.5 -123.5t120.5 -43.5q39 0 76.5 15t55.5 29l18 15l40 -71q-8 -8 -24 -20t-67 -32t-105 -20q-118 0 -193 75.5t-75 189.5zM144 312h270q-2 63 -36.5 96t-85.5 33q-57 0 -97.5 -34t-50.5 -95z
M256 579l-95 127h104l73 -127h-82z" />
    <glyph glyph-name="eacute" unicode="&#xe9;" horiz-adv-x="555" 
d="M41 253q0 119 71.5 192t181.5 73q103 0 161 -67t58 -170l-3 -42h-369q4 -80 53.5 -123.5t120.5 -43.5q39 0 76.5 15t55.5 29l18 15l40 -71q-8 -8 -24 -20t-67 -32t-105 -20q-118 0 -193 75.5t-75 189.5zM144 312h270q-2 63 -36.5 96t-85.5 33q-57 0 -97.5 -34t-50.5 -95z
M251 579l73 127h104l-96 -127h-81z" />
    <glyph glyph-name="ecircumflex" unicode="&#xea;" horiz-adv-x="555" 
d="M41 253q0 119 71.5 192t181.5 73q103 0 161 -67t58 -170l-3 -42h-369q4 -80 53.5 -123.5t120.5 -43.5q39 0 76.5 15t55.5 29l18 15l40 -71q-8 -8 -24 -20t-67 -32t-105 -20q-118 0 -193 75.5t-75 189.5zM144 312h270q-2 63 -36.5 96t-85.5 33q-57 0 -97.5 -34t-50.5 -95z
M155 579l88 127h101l88 -127h-85l-53 80h-2l-52 -80h-85z" />
    <glyph glyph-name="edieresis" unicode="&#xeb;" horiz-adv-x="555" 
d="M41 253q0 119 71.5 192t181.5 73q103 0 161 -67t58 -170l-3 -42h-369q4 -80 53.5 -123.5t120.5 -43.5q39 0 76.5 15t55.5 29l18 15l40 -71q-8 -8 -24 -20t-67 -32t-105 -20q-118 0 -193 75.5t-75 189.5zM144 312h270q-2 63 -36.5 96t-85.5 33q-57 0 -97.5 -34t-50.5 -95z
M338 605v101h80v-101h-80zM171 605v101h80v-101h-80z" />
    <glyph glyph-name="igrave" unicode="&#xec;" horiz-adv-x="249" 
d="M86 579l-95 127h104l73 -127h-82zM76 0v506h97v-506h-97z" />
    <glyph glyph-name="iacute" unicode="&#xed;" horiz-adv-x="249" 
d="M82 579l73 127h104l-96 -127h-81zM76 0v506h97v-506h-97z" />
    <glyph glyph-name="icircumflex" unicode="&#xee;" horiz-adv-x="249" 
d="M76 0v506h97v-506h-97zM-13 579l88 127h101l88 -127h-85l-53 80h-2l-52 -80h-85z" />
    <glyph glyph-name="idieresis" unicode="&#xef;" horiz-adv-x="249" 
d="M169 605v101h80v-101h-80zM2 605v101h80v-101h-80zM76 0v506h97v-506h-97z" />
    <glyph glyph-name="eth" unicode="&#xf0;" horiz-adv-x="589" 
d="M43 235q0 94 63.5 162.5t173.5 68.5q36 0 66.5 -10.5t43.5 -21.5l13 -10h2q-30 80 -109 133l-181 -80l-10 62l124 55q-61 31 -129 46l27 79q116 -26 207 -80l139 61l9 -61l-92 -42q144 -120 144 -322q0 -53 -14.5 -102t-43.5 -91.5t-80 -68t-116 -25.5q-109 0 -173 73.5
t-64 173.5zM141 233q0 -66 37.5 -113.5t103.5 -47.5q39 0 69.5 16.5t48 44.5t26.5 59.5t9 65.5q0 57 -38.5 93.5t-102.5 36.5q-73 0 -113 -45.5t-40 -109.5z" />
    <glyph glyph-name="ntilde" unicode="&#xf1;" horiz-adv-x="603" 
d="M76 0v506h94v-67l-2 -37h2q20 43 68 79.5t122 36.5q174 0 174 -194v-324h-97v302q0 61 -20 94t-76 33q-57 0 -100.5 -34.5t-59.5 -89.5q-8 -27 -8 -68v-237h-97zM145 580q0 127 102 127q29 0 51 -17t40 -34t35 -17q20 0 29.5 19.5t9.5 45.5h70q0 -127 -102 -127
q-29 0 -51 17t-40 34t-35 17q-39 0 -39 -65h-70z" />
    <glyph glyph-name="ograve" unicode="&#xf2;" horiz-adv-x="624" 
d="M39 254q0 114 79 189t194 75t194 -75t79 -189t-79.5 -190t-193.5 -76t-193.5 76t-79.5 190zM138 254q0 -78 51 -130t123 -52q73 0 123.5 51.5t50.5 130.5q0 78 -50.5 129t-123.5 51q-72 0 -123 -51t-51 -129zM273 579l-95 127h104l73 -127h-82z" />
    <glyph glyph-name="oacute" unicode="&#xf3;" horiz-adv-x="624" 
d="M39 254q0 114 79 189t194 75t194 -75t79 -189t-79.5 -190t-193.5 -76t-193.5 76t-79.5 190zM138 254q0 -78 51 -130t123 -52q73 0 123.5 51.5t50.5 130.5q0 78 -50.5 129t-123.5 51q-72 0 -123 -51t-51 -129zM269 579l73 127h104l-96 -127h-81z" />
    <glyph glyph-name="ocircumflex" unicode="&#xf4;" horiz-adv-x="624" 
d="M39 254q0 114 79 189t194 75t194 -75t79 -189t-79.5 -190t-193.5 -76t-193.5 76t-79.5 190zM138 254q0 -78 51 -130t123 -52q73 0 123.5 51.5t50.5 130.5q0 78 -50.5 129t-123.5 51q-72 0 -123 -51t-51 -129zM174 579l88 127h101l88 -127h-85l-53 80h-2l-52 -80h-85z" />
    <glyph glyph-name="otilde" unicode="&#xf5;" horiz-adv-x="624" 
d="M39 254q0 114 79 189t194 75t194 -75t79 -189t-79.5 -190t-193.5 -76t-193.5 76t-79.5 190zM138 254q0 -78 51 -130t123 -52q73 0 123.5 51.5t50.5 130.5q0 78 -50.5 129t-123.5 51q-72 0 -123 -51t-51 -129zM144 580q0 127 102 127q29 0 51 -17t40 -34t35 -17
q20 0 29.5 19.5t9.5 45.5h70q0 -127 -102 -127q-29 0 -51 17t-40 34t-35 17q-39 0 -39 -65h-70z" />
    <glyph glyph-name="odieresis" unicode="&#xf6;" horiz-adv-x="624" 
d="M39 254q0 114 79 189t194 75t194 -75t79 -189t-79.5 -190t-193.5 -76t-193.5 76t-79.5 190zM138 254q0 -78 51 -130t123 -52q73 0 123.5 51.5t50.5 130.5q0 78 -50.5 129t-123.5 51q-72 0 -123 -51t-51 -129zM356 605v101h80v-101h-80zM189 605v101h80v-101h-80z" />
    <glyph glyph-name="divide" unicode="&#xf7;" horiz-adv-x="635" 
d="M270 435v91h94v-91h-94zM65 246v78h505v-78h-505zM270 44v91h94v-91h-94z" />
    <glyph glyph-name="oslash" unicode="&#xf8;" horiz-adv-x="624" 
d="M39 254q0 114 79 189t194 75q72 0 135 -33l40 55l47 -34l-39 -54q90 -77 90 -198q0 -114 -79.5 -190t-193.5 -76q-67 0 -128 29l-39 -55l-48 35l37 52q-95 77 -95 205zM138 254q0 -78 50 -130l208 289q-40 21 -84 21q-72 0 -123 -51t-51 -129zM486 254q0 72 -45 122
l-205 -287q36 -17 76 -17q73 0 123.5 51.5t50.5 130.5z" />
    <glyph glyph-name="ugrave" unicode="&#xf9;" horiz-adv-x="598" 
d="M69 182v324h97v-302q0 -61 19.5 -93.5t75.5 -32.5q74 0 119 56t45 135v237h97v-506h-94v67l2 37h-2q-19 -44 -68.5 -80t-117.5 -36q-173 0 -173 194zM257 579l-95 127h104l73 -127h-82z" />
    <glyph glyph-name="uacute" unicode="&#xfa;" horiz-adv-x="598" 
d="M69 182v324h97v-302q0 -61 19.5 -93.5t75.5 -32.5q74 0 119 56t45 135v237h97v-506h-94v67l2 37h-2q-19 -44 -68.5 -80t-117.5 -36q-173 0 -173 194zM252 579l73 127h104l-96 -127h-81z" />
    <glyph glyph-name="ucircumflex" unicode="&#xfb;" horiz-adv-x="598" 
d="M69 182v324h97v-302q0 -61 19.5 -93.5t75.5 -32.5q74 0 119 56t45 135v237h97v-506h-94v67l2 37h-2q-19 -44 -68.5 -80t-117.5 -36q-173 0 -173 194zM157 579l88 127h101l88 -127h-85l-53 80h-2l-52 -80h-85z" />
    <glyph glyph-name="udieresis" unicode="&#xfc;" horiz-adv-x="598" 
d="M69 182v324h97v-302q0 -61 19.5 -93.5t75.5 -32.5q74 0 119 56t45 135v237h97v-506h-94v67l2 37h-2q-19 -44 -68.5 -80t-117.5 -36q-173 0 -173 194zM340 605v101h80v-101h-80zM173 605v101h80v-101h-80z" />
    <glyph glyph-name="yacute" unicode="&#xfd;" horiz-adv-x="510" 
d="M5 -179l34 74q28 -21 59 -21q60 0 91 74l25 58l-212 500h109l127 -331l19 -61h2q8 34 17 60l123 332h105l-237 -597q-23 -57 -66.5 -88t-97.5 -31q-25 0 -49.5 8t-36.5 16zM215 579l73 127h104l-96 -127h-81z" />
    <glyph glyph-name="thorn" unicode="&#xfe;" horiz-adv-x="600" 
d="M76 -200v906h97v-230l-1 -42h2q1 1 9 11t14.5 17.5t21 18.5t29.5 18.5t37.5 13t47.5 5.5q102 0 163.5 -74t61.5 -191t-63.5 -191t-164.5 -74q-32 0 -60.5 8.5t-45.5 21t-29 24.5t-17 20l-5 9h-2q2 -18 2 -44v-227h-97zM170 252q0 -79 39.5 -129.5t105.5 -50.5
q62 0 103 50t41 131q0 80 -39 130.5t-103 50.5q-63 0 -105 -45t-42 -137z" />
    <glyph glyph-name="ydieresis" unicode="&#xff;" horiz-adv-x="510" 
d="M5 -179l34 74q28 -21 59 -21q60 0 91 74l25 58l-212 500h109l127 -331l19 -61h2q8 34 17 60l123 332h105l-237 -597q-23 -57 -66.5 -88t-97.5 -31q-25 0 -49.5 8t-36.5 16zM302 605v101h80v-101h-80zM135 605v101h80v-101h-80z" />
    <glyph glyph-name="Amacron" unicode="&#x100;" horiz-adv-x="628" 
d="M517 0l-71 203h-266l-70 -203h-102l254 706h104l254 -706h-103zM315 609h-2q-16 -64 -28 -100l-79 -224h214l-78 224zM187 784v70h255v-70h-255z" />
    <glyph glyph-name="amacron" unicode="&#x101;" horiz-adv-x="528" 
d="M35 142q0 174 305 174h22v9q0 111 -111 111q-35 0 -70 -12t-53 -24l-18 -13l-40 71q8 7 23.5 17t64.5 26.5t101 16.5q96 0 148 -51t52 -147v-320h-90v48l2 40h-2l-5.5 -11t-17 -24t-30 -30t-46 -24t-63.5 -11q-70 0 -121 41t-51 113zM133 147q0 -33 25 -57t70 -24
q58 0 96.5 50.5t38.5 110.5v16h-25q-205 0 -205 -96zM135 608v70h255v-70h-255z" />
    <glyph glyph-name="Abreve" unicode="&#x102;" horiz-adv-x="628" 
d="M517 0l-71 203h-266l-70 -203h-102l254 706h104l254 -706h-103zM315 609h-2q-16 -64 -28 -100l-79 -224h214l-78 224zM314 751q-55 0 -93.5 31t-38.5 86v14h72v-13q0 -30 17.5 -45t42.5 -15q24 0 41.5 15.5t17.5 45.5v12h72v-14q0 -55 -38.5 -86t-92.5 -31z" />
    <glyph glyph-name="abreve" unicode="&#x103;" horiz-adv-x="528" 
d="M35 142q0 174 305 174h22v9q0 111 -111 111q-35 0 -70 -12t-53 -24l-18 -13l-40 71q8 7 23.5 17t64.5 26.5t101 16.5q96 0 148 -51t52 -147v-320h-90v48l2 40h-2l-5.5 -11t-17 -24t-30 -30t-46 -24t-63.5 -11q-70 0 -121 41t-51 113zM133 147q0 -33 25 -57t70 -24
q58 0 96.5 50.5t38.5 110.5v16h-25q-205 0 -205 -96zM262 575q-55 0 -93.5 31t-38.5 86v14h72v-13q0 -30 17.5 -45t42.5 -15q24 0 41.5 15.5t17.5 45.5v12h72v-14q0 -55 -38.5 -86t-92.5 -31z" />
    <glyph glyph-name="Aogonek" unicode="&#x104;" horiz-adv-x="628" 
d="M517 0l-71 203h-266l-70 -203h-102l254 706h104l254 -706q-64 -54 -64 -89q0 -17 14 -27.5t28 -13.5l13 -2l-23 -75q-5 0 -12.5 1.5t-27.5 7.5t-35.5 15.5t-28 28t-12.5 42.5q0 55 69 110v2h-24zM315 609h-2q-16 -64 -28 -100l-79 -224h214l-78 224z" />
    <glyph glyph-name="aogonek" unicode="&#x105;" horiz-adv-x="528" 
d="M311 -112q0 52 58 101v59l2 40h-2l-5.5 -11t-17 -24t-30 -30t-46 -24t-63.5 -11q-70 0 -121 41t-51 113q0 174 305 174h22v9q0 111 -111 111q-35 0 -70 -12t-53 -24l-18 -13l-40 71q8 7 23.5 17t64.5 26.5t101 16.5q96 0 148 -51t52 -147v-320q-64 -54 -64 -89
q0 -17 13.5 -27.5t27.5 -13.5l14 -2l-23 -75q-5 0 -12.5 1.5t-27.5 7.5t-35.5 15.5t-28 28t-12.5 42.5zM133 147q0 -33 25 -57t70 -24q58 0 96.5 50.5t38.5 110.5v16h-25q-205 0 -205 -96z" />
    <glyph glyph-name="Cacute" unicode="&#x106;" horiz-adv-x="722" 
d="M48 357q0 154 102.5 257.5t256.5 103.5q48 0 92 -9.5t72.5 -23t50.5 -27.5t32 -24l10 -9l-49 -74q-9 9 -26 21.5t-70.5 34t-107.5 21.5q-116 0 -188.5 -77.5t-72.5 -192.5q0 -116 73.5 -197.5t188.5 -81.5q59 0 113.5 23t79.5 46l25 23l53 -71q-4 -5 -11.5 -12.5
t-34 -26.5t-56 -34t-76 -27t-96.5 -12q-157 0 -259 106t-102 263zM356 755l73 127h104l-96 -127h-81z" />
    <glyph glyph-name="cacute" unicode="&#x107;" horiz-adv-x="547" 
d="M40 253q0 113 76.5 189t194.5 76q56 0 103.5 -18.5t67.5 -37.5l19 -18l-46 -68q-6 6 -17.5 16t-48 26t-74.5 16q-76 0 -126 -51t-50 -129t50.5 -130t128.5 -52q42 0 81 17t57 34l18 17l39 -71l-8.5 -8.5t-24.5 -19.5t-41 -24.5t-56.5 -19.5t-71.5 -9q-119 0 -195 75
t-76 190zM249 579l73 127h104l-96 -127h-81z" />
    <glyph glyph-name="Ccircumflex" unicode="&#x108;" horiz-adv-x="722" 
d="M48 357q0 154 102.5 257.5t256.5 103.5q48 0 92 -9.5t72.5 -23t50.5 -27.5t32 -24l10 -9l-49 -74q-9 9 -26 21.5t-70.5 34t-107.5 21.5q-116 0 -188.5 -77.5t-72.5 -192.5q0 -116 73.5 -197.5t188.5 -81.5q59 0 113.5 23t79.5 46l25 23l53 -71q-4 -5 -11.5 -12.5
t-34 -26.5t-56 -34t-76 -27t-96.5 -12q-157 0 -259 106t-102 263zM261 755l88 127h101l88 -127h-85l-53 80h-2l-52 -80h-85z" />
    <glyph glyph-name="ccircumflex" unicode="&#x109;" horiz-adv-x="547" 
d="M40 253q0 113 76.5 189t194.5 76q56 0 103.5 -18.5t67.5 -37.5l19 -18l-46 -68q-6 6 -17.5 16t-48 26t-74.5 16q-76 0 -126 -51t-50 -129t50.5 -130t128.5 -52q42 0 81 17t57 34l18 17l39 -71l-8.5 -8.5t-24.5 -19.5t-41 -24.5t-56.5 -19.5t-71.5 -9q-119 0 -195 75
t-76 190zM154 579l88 127h101l88 -127h-85l-53 80h-2l-52 -80h-85z" />
    <glyph glyph-name="Cdotaccent" unicode="&#x10a;" horiz-adv-x="722" 
d="M48 357q0 154 102.5 257.5t256.5 103.5q48 0 92 -9.5t72.5 -23t50.5 -27.5t32 -24l10 -9l-49 -74q-9 9 -26 21.5t-70.5 34t-107.5 21.5q-116 0 -188.5 -77.5t-72.5 -192.5q0 -116 73.5 -197.5t188.5 -81.5q59 0 113.5 23t79.5 46l25 23l53 -71q-4 -5 -11.5 -12.5
t-34 -26.5t-56 -34t-76 -27t-96.5 -12q-157 0 -259 106t-102 263zM356 784v98h87v-98h-87z" />
    <glyph glyph-name="cdotaccent" unicode="&#x10b;" horiz-adv-x="547" 
d="M40 253q0 113 76.5 189t194.5 76q56 0 103.5 -18.5t67.5 -37.5l19 -18l-46 -68q-6 6 -17.5 16t-48 26t-74.5 16q-76 0 -126 -51t-50 -129t50.5 -130t128.5 -52q42 0 81 17t57 34l18 17l39 -71l-8.5 -8.5t-24.5 -19.5t-41 -24.5t-56.5 -19.5t-71.5 -9q-119 0 -195 75
t-76 190zM249 608v98h87v-98h-87z" />
    <glyph glyph-name="Ccaron" unicode="&#x10c;" horiz-adv-x="722" 
d="M48 357q0 154 102.5 257.5t256.5 103.5q48 0 92 -9.5t72.5 -23t50.5 -27.5t32 -24l10 -9l-49 -74q-9 9 -26 21.5t-70.5 34t-107.5 21.5q-116 0 -188.5 -77.5t-72.5 -192.5q0 -116 73.5 -197.5t188.5 -81.5q59 0 113.5 23t79.5 46l25 23l53 -71q-4 -5 -11.5 -12.5
t-34 -26.5t-56 -34t-76 -27t-96.5 -12q-157 0 -259 106t-102 263zM349 755l-88 127h85l52 -81h2l53 81h85l-88 -127h-101z" />
    <glyph glyph-name="ccaron" unicode="&#x10d;" horiz-adv-x="547" 
d="M40 253q0 113 76.5 189t194.5 76q56 0 103.5 -18.5t67.5 -37.5l19 -18l-46 -68q-6 6 -17.5 16t-48 26t-74.5 16q-76 0 -126 -51t-50 -129t50.5 -130t128.5 -52q42 0 81 17t57 34l18 17l39 -71l-8.5 -8.5t-24.5 -19.5t-41 -24.5t-56.5 -19.5t-71.5 -9q-119 0 -195 75
t-76 190zM242 579l-88 127h85l52 -81h2l53 81h85l-88 -127h-101z" />
    <glyph glyph-name="Dcaron" unicode="&#x10e;" horiz-adv-x="740" 
d="M96 0v706h234q164 0 261 -93.5t97 -258.5q0 -166 -97 -260t-261 -94h-234zM195 86h128q121 0 192 70t71 198q0 127 -71 196.5t-192 69.5h-128v-534zM294 755l-88 127h85l52 -81h2l53 81h85l-88 -127h-101z" />
    <glyph glyph-name="dcaron" unicode="&#x10f;" horiz-adv-x="631" 
d="M43 253q0 120 64 192.5t165 72.5q33 0 61 -8t44.5 -20t29 -24t17.5 -20l4 -8h2q-2 15 -2 34v234h97v-706h-92v48l1 34h-2q-2 -4 -5.5 -10t-17 -22.5t-31 -29t-47.5 -22.5t-65 -10q-102 0 -162.5 73t-60.5 192zM142 253q0 -82 39.5 -131.5t103.5 -49.5q62 0 104 45.5
t42 136.5q0 73 -37.5 126.5t-105.5 53.5q-62 0 -104 -48.5t-42 -132.5zM583 706h85q7 -27 7 -51q0 -41 -25 -94h-74q19 54 19 84t-12 61z" />
    <glyph glyph-name="Dcroat" unicode="&#x110;" horiz-adv-x="759" 
d="M115 0v312h-59v82h59v312h234q164 0 261 -93.5t97 -258.5q0 -166 -97 -260t-261 -94h-234zM214 86h128q121 0 192 70t71 198q0 127 -71 196.5t-192 69.5h-128v-226h149v-82h-149v-226z" />
    <glyph glyph-name="dcroat" unicode="&#x111;" horiz-adv-x="601" 
d="M298 563v63h130v80h97v-80h76v-63h-76v-563h-92v48l1 34h-2q-2 -4 -5.5 -10t-17 -22.5t-31 -29t-47.5 -22.5t-65 -10q-102 0 -162.5 73t-60.5 192q0 120 64 192.5t165 72.5q33 0 61 -8t44.5 -20t29 -24t17.5 -20l4 -8h2q-2 15 -2 34v91h-130zM142 253q0 -82 39.5 -131.5
t103.5 -49.5q62 0 104 45.5t42 136.5q0 73 -37.5 126.5t-105.5 53.5q-62 0 -104 -48.5t-42 -132.5z" />
    <glyph glyph-name="Emacron" unicode="&#x112;" horiz-adv-x="573" 
d="M96 0v706h410v-86h-311v-221h253v-86h-253v-227h328v-86h-427zM185 784v70h255v-70h-255z" />
    <glyph glyph-name="emacron" unicode="&#x113;" horiz-adv-x="555" 
d="M41 253q0 119 71.5 192t181.5 73q103 0 161 -67t58 -170l-3 -42h-369q4 -80 53.5 -123.5t120.5 -43.5q39 0 76.5 15t55.5 29l18 15l40 -71q-8 -8 -24 -20t-67 -32t-105 -20q-118 0 -193 75.5t-75 189.5zM144 312h270q-2 63 -36.5 96t-85.5 33q-57 0 -97.5 -34t-50.5 -95z
M167 608v70h255v-70h-255z" />
    <glyph glyph-name="Ebreve" unicode="&#x114;" horiz-adv-x="573" 
d="M96 0v706h410v-86h-311v-221h253v-86h-253v-227h328v-86h-427zM312 751q-55 0 -93.5 31t-38.5 86v14h72v-13q0 -30 17.5 -45t42.5 -15q24 0 41.5 15.5t17.5 45.5v12h72v-14q0 -55 -38.5 -86t-92.5 -31z" />
    <glyph glyph-name="ebreve" unicode="&#x115;" horiz-adv-x="555" 
d="M41 253q0 119 71.5 192t181.5 73q103 0 161 -67t58 -170l-3 -42h-369q4 -80 53.5 -123.5t120.5 -43.5q39 0 76.5 15t55.5 29l18 15l40 -71q-8 -8 -24 -20t-67 -32t-105 -20q-118 0 -193 75.5t-75 189.5zM144 312h270q-2 63 -36.5 96t-85.5 33q-57 0 -97.5 -34t-50.5 -95z
M294 575q-55 0 -93.5 31t-38.5 86v14h72v-13q0 -30 17.5 -45t42.5 -15q24 0 41.5 15.5t17.5 45.5v12h72v-14q0 -55 -38.5 -86t-92.5 -31z" />
    <glyph glyph-name="Edotaccent" unicode="&#x116;" horiz-adv-x="573" 
d="M96 0v706h410v-86h-311v-221h253v-86h-253v-227h328v-86h-427zM268 784v98h87v-98h-87z" />
    <glyph glyph-name="edotaccent" unicode="&#x117;" horiz-adv-x="555" 
d="M41 253q0 119 71.5 192t181.5 73q103 0 161 -67t58 -170l-3 -42h-369q4 -80 53.5 -123.5t120.5 -43.5q39 0 76.5 15t55.5 29l18 15l40 -71q-8 -8 -24 -20t-67 -32t-105 -20q-118 0 -193 75.5t-75 189.5zM144 312h270q-2 63 -36.5 96t-85.5 33q-57 0 -97.5 -34t-50.5 -95z
M250 608v98h87v-98h-87z" />
    <glyph glyph-name="Eogonek" unicode="&#x118;" horiz-adv-x="573" 
d="M96 0v706h410v-86h-311v-221h253v-86h-253v-227h328v-86q-64 -54 -64 -89q0 -17 13.5 -27.5t27.5 -13.5l14 -2l-23 -75q-5 0 -12.5 1.5t-27.5 7.5t-35.5 15.5t-28 28t-12.5 42.5q0 55 69 110v2h-348z" />
    <glyph glyph-name="eogonek" unicode="&#x119;" horiz-adv-x="556" 
d="M41 253q0 119 71.5 192t181.5 73q103 0 161 -67t58 -170l-3 -42h-369q4 -80 53.5 -123.5t120.5 -43.5q39 0 76.5 15t55.5 29l18 15l40 -71q-11 -10 -37 -29.5t-45.5 -34.5t-36 -38.5t-16.5 -46.5q0 -17 14 -27.5t28 -13.5l14 -2l-23 -75q-5 0 -12.5 1.5t-27.5 7.5
t-35.5 15.5t-28 28t-12.5 42.5q0 51 56 101v2q-17 -3 -34 -3q-118 0 -193 75.5t-75 189.5zM144 312h270q-2 63 -36.5 96t-85.5 33q-57 0 -97.5 -34t-50.5 -95z" />
    <glyph glyph-name="Ecaron" unicode="&#x11a;" horiz-adv-x="573" 
d="M96 0v706h410v-86h-311v-221h253v-86h-253v-227h328v-86h-427zM262 755l-88 127h85l52 -81h2l53 81h85l-88 -127h-101z" />
    <glyph glyph-name="ecaron" unicode="&#x11b;" horiz-adv-x="555" 
d="M41 253q0 119 71.5 192t181.5 73q103 0 161 -67t58 -170l-3 -42h-369q4 -80 53.5 -123.5t120.5 -43.5q39 0 76.5 15t55.5 29l18 15l40 -71q-8 -8 -24 -20t-67 -32t-105 -20q-118 0 -193 75.5t-75 189.5zM144 312h270q-2 63 -36.5 96t-85.5 33q-57 0 -97.5 -34t-50.5 -95z
M243 579l-88 127h85l52 -81h2l53 81h85l-88 -127h-101z" />
    <glyph glyph-name="Gcircumflex" unicode="&#x11c;" horiz-adv-x="760" 
d="M49 354q0 154 103 259t257 105q47 0 91 -9t73 -21t51 -24.5t32 -21.5l10 -9l-50 -74q-9 8 -25.5 19.5t-68.5 30.5t-105 19q-121 0 -193.5 -77.5t-72.5 -194.5q0 -122 74 -199.5t186 -77.5q54 0 104 22t73 44l23 22v102h-115v86h205v-355h-87v44l1 30h-2l-9 -9t-27 -21
t-44 -26t-60.5 -20.5t-76.5 -9.5q-145 0 -246 103.5t-101 262.5zM260 755l88 127h101l88 -127h-85l-53 80h-2l-52 -80h-85z" />
    <glyph glyph-name="gcircumflex" unicode="&#x11d;" horiz-adv-x="593" 
d="M121 -92q63 -34 139 -34q72 0 116 34.5t44 107.5v37l1 32h-2q-47 -79 -150 -79t-164.5 73.5t-61.5 185.5t59 182.5t162 70.5q34 0 63 -7.5t46 -19t29 -22.5t16 -19l5 -7h2q-1 7 -1 16v47h93v-485q0 -60 -21.5 -106t-58.5 -72.5t-81 -39.5t-94 -13q-91 0 -173 42zM288 90
q59 0 96.5 41t37.5 133q0 170 -143 170q-65 0 -101.5 -44.5t-36.5 -122.5q0 -80 39.5 -128.5t107.5 -48.5zM150 579l88 127h101l88 -127h-85l-53 80h-2l-52 -80h-85z" />
    <glyph glyph-name="Gbreve" unicode="&#x11e;" horiz-adv-x="760" 
d="M49 354q0 154 103 259t257 105q47 0 91 -9t73 -21t51 -24.5t32 -21.5l10 -9l-50 -74q-9 8 -25.5 19.5t-68.5 30.5t-105 19q-121 0 -193.5 -77.5t-72.5 -194.5q0 -122 74 -199.5t186 -77.5q54 0 104 22t73 44l23 22v102h-115v86h205v-355h-87v44l1 30h-2l-9 -9t-27 -21
t-44 -26t-60.5 -20.5t-76.5 -9.5q-145 0 -246 103.5t-101 262.5zM399 751q-55 0 -93.5 31t-38.5 86v14h72v-13q0 -30 17.5 -45t42.5 -15q24 0 41.5 15.5t17.5 45.5v12h72v-14q0 -55 -38.5 -86t-92.5 -31z" />
    <glyph glyph-name="gbreve" unicode="&#x11f;" horiz-adv-x="593" 
d="M121 -92q63 -34 139 -34q72 0 116 34.5t44 107.5v37l1 32h-2q-47 -79 -150 -79t-164.5 73.5t-61.5 185.5t59 182.5t162 70.5q34 0 63 -7.5t46 -19t29 -22.5t16 -19l5 -7h2q-1 7 -1 16v47h93v-485q0 -60 -21.5 -106t-58.5 -72.5t-81 -39.5t-94 -13q-91 0 -173 42zM288 90
q59 0 96.5 41t37.5 133q0 170 -143 170q-65 0 -101.5 -44.5t-36.5 -122.5q0 -80 39.5 -128.5t107.5 -48.5zM289 575q-55 0 -93.5 31t-38.5 86v14h72v-13q0 -30 17.5 -45t42.5 -15q24 0 41.5 15.5t17.5 45.5v12h72v-14q0 -55 -38.5 -86t-92.5 -31z" />
    <glyph glyph-name="Gdotaccent" unicode="&#x120;" horiz-adv-x="760" 
d="M49 354q0 154 103 259t257 105q47 0 91 -9t73 -21t51 -24.5t32 -21.5l10 -9l-50 -74q-9 8 -25.5 19.5t-68.5 30.5t-105 19q-121 0 -193.5 -77.5t-72.5 -194.5q0 -122 74 -199.5t186 -77.5q54 0 104 22t73 44l23 22v102h-115v86h205v-355h-87v44l1 30h-2l-9 -9t-27 -21
t-44 -26t-60.5 -20.5t-76.5 -9.5q-145 0 -246 103.5t-101 262.5zM355 784v98h87v-98h-87z" />
    <glyph glyph-name="gdotaccent" unicode="&#x121;" horiz-adv-x="593" 
d="M121 -92q63 -34 139 -34q72 0 116 34.5t44 107.5v37l1 32h-2q-47 -79 -150 -79t-164.5 73.5t-61.5 185.5t59 182.5t162 70.5q34 0 63 -7.5t46 -19t29 -22.5t16 -19l5 -7h2q-1 7 -1 16v47h93v-485q0 -60 -21.5 -106t-58.5 -72.5t-81 -39.5t-94 -13q-91 0 -173 42zM288 90
q59 0 96.5 41t37.5 133q0 170 -143 170q-65 0 -101.5 -44.5t-36.5 -122.5q0 -80 39.5 -128.5t107.5 -48.5zM245 608v98h87v-98h-87z" />
    <glyph glyph-name="Gcommaaccent" unicode="&#x122;" horiz-adv-x="760" 
d="M49 354q0 154 103 259t257 105q47 0 91 -9t73 -21t51 -24.5t32 -21.5l10 -9l-50 -74q-9 8 -25.5 19.5t-68.5 30.5t-105 19q-121 0 -193.5 -77.5t-72.5 -194.5q0 -122 74 -199.5t186 -77.5q54 0 104 22t73 44l23 22v102h-115v86h205v-355h-87v44l1 30h-2l-9 -9t-27 -21
t-44 -26t-60.5 -20.5t-76.5 -9.5q-145 0 -246 103.5t-101 262.5zM352 -59h85q7 -27 7 -51q0 -41 -25 -94h-74q19 54 19 84t-12 61z" />
    <glyph glyph-name="gcommaaccent" unicode="&#x123;" horiz-adv-x="593" 
d="M121 -92q63 -34 139 -34q72 0 116 34.5t44 107.5v37l1 32h-2q-47 -79 -150 -79t-164.5 73.5t-61.5 185.5t59 182.5t162 70.5q34 0 63 -7.5t46 -19t29 -22.5t16 -19l5 -7h2q-1 7 -1 16v47h93v-485q0 -60 -21.5 -106t-58.5 -72.5t-81 -39.5t-94 -13q-91 0 -173 42zM288 90
q59 0 96.5 41t37.5 133q0 170 -143 170q-65 0 -101.5 -44.5t-36.5 -122.5q0 -80 39.5 -128.5t107.5 -48.5zM333 563h-84q-7 27 -7 50q0 40 25 93h73q-19 -54 -19 -83t12 -60z" />
    <glyph glyph-name="Hcircumflex" unicode="&#x124;" horiz-adv-x="756" 
d="M96 0v706h99v-310h366v310h99v-706h-99v310h-366v-310h-99zM240 755l88 127h101l88 -127h-85l-53 80h-2l-52 -80h-85z" />
    <glyph glyph-name="hcircumflex" unicode="&#x125;" horiz-adv-x="603" 
d="M76 0v706h97v-259l-2 -42h2q20 44 69 78.5t118 34.5q174 0 174 -194v-324h-97v302q0 61 -20 94t-76 33t-100 -35t-60 -90q-8 -27 -8 -67v-237h-97zM-14 755l88 127h101l88 -127h-85l-53 80h-2l-52 -80h-85z" />
    <glyph glyph-name="Hbar" unicode="&#x126;" horiz-adv-x="800" 
d="M118 0v514h-62v68h62v124h99v-124h366v124h99v-124h63v-68h-63v-514h-99v310h-366v-310h-99zM217 396h366v118h-366v-118z" />
    <glyph glyph-name="hbar" unicode="&#x127;" horiz-adv-x="603" 
d="M4 563v63h72v80h97v-80h133v-63h-133v-116l-2 -42h2q20 44 69 78.5t118 34.5q174 0 174 -194v-324h-97v302q0 61 -20 94t-76 33t-100 -35t-60 -90q-8 -27 -8 -67v-237h-97v563h-72z" />
    <glyph glyph-name="Itilde" unicode="&#x128;" horiz-adv-x="291" 
d="M96 0v706h99v-706h-99zM-22 756q0 127 102 127q29 0 51 -17t40 -34t35 -17q20 0 29.5 19.5t9.5 45.5h70q0 -127 -102 -127q-29 0 -51 17t-40 34t-35 17q-39 0 -39 -65h-70z" />
    <glyph glyph-name="itilde" unicode="&#x129;" horiz-adv-x="249" 
d="M-43 580q0 127 102 127q29 0 51 -17t40 -34t35 -17q20 0 29.5 19.5t9.5 45.5h70q0 -127 -102 -127q-29 0 -51 17t-40 34t-35 17q-39 0 -39 -65h-70zM76 0v506h97v-506h-97z" />
    <glyph glyph-name="Imacron" unicode="&#x12a;" horiz-adv-x="291" 
d="M96 0v706h99v-706h-99zM19 784v70h255v-70h-255z" />
    <glyph glyph-name="imacron" unicode="&#x12b;" horiz-adv-x="249" 
d="M-2 608v70h255v-70h-255zM76 0v506h97v-506h-97z" />
    <glyph glyph-name="Ibreve" unicode="&#x12c;" horiz-adv-x="291" 
d="M96 0v706h99v-706h-99zM146 751q-55 0 -93.5 31t-38.5 86v14h72v-13q0 -30 17.5 -45t42.5 -15q24 0 41.5 15.5t17.5 45.5v12h72v-14q0 -55 -38.5 -86t-92.5 -31z" />
    <glyph glyph-name="ibreve" unicode="&#x12d;" horiz-adv-x="249" 
d="M126 575q-55 0 -93.5 31t-38.5 86v14h72v-13q0 -30 17.5 -45t42.5 -15q24 0 41.5 15.5t17.5 45.5v12h72v-14q0 -55 -38.5 -86t-92.5 -31zM76 0v506h97v-506h-97z" />
    <glyph glyph-name="Iogonek" unicode="&#x12e;" horiz-adv-x="291" 
d="M96 0v706h99v-706q-58 -49 -58 -89q0 -17 13.5 -27.5t27.5 -13.5l14 -2l-23 -75q-5 0 -12.5 1.5t-27.5 7.5t-35.5 15.5t-28 28t-12.5 42.5q0 60 63 110v2h-20z" />
    <glyph glyph-name="iogonek" unicode="&#x12f;" horiz-adv-x="249" 
d="M31 -112q0 50 45 95v523h97v-506q-59 -53 -59 -89q0 -17 14 -27.5t28 -13.5l14 -2l-23 -75q-5 0 -12.5 1.5t-27.5 7.5t-35.5 15.5t-28 28t-12.5 42.5zM75 607v99h98v-99h-98z" />
    <glyph glyph-name="Idotaccent" unicode="&#x130;" horiz-adv-x="291" 
d="M96 0v706h99v-706h-99zM102 784v98h87v-98h-87z" />
    <glyph glyph-name="dotlessi" unicode="&#x131;" horiz-adv-x="249" 
d="M76 0v506h97v-506h-97z" />
    <glyph glyph-name="IJ" unicode="&#x132;" horiz-adv-x="612" 
d="M286 -5v91q25 0 46.5 6t43.5 21.5t35 47.5t13 79v466h100v-467q0 -244 -238 -244zM96 0v706h99v-706h-99z" />
    <glyph glyph-name="ij" unicode="&#x133;" horiz-adv-x="499" 
d="M75 607v99h98v-99h-98zM76 0v506h97v-506h-97zM326 607v99h98v-99h-98zM327 506h96v-523q0 -59 -20.5 -100t-53.5 -58.5t-61 -24t-58 -6.5l-34 2v83q9 -1 22 -1q17 0 33 4t34.5 14t30 34t11.5 59v517z" />
    <glyph glyph-name="Jcircumflex" unicode="&#x134;" horiz-adv-x="537" 
d="M30 203v35h98v-30q0 -67 32.5 -98t79.5 -31t78.5 30t31.5 95v416h-178v86h277v-503q0 -107 -62 -161t-148 -54t-147.5 54.5t-61.5 160.5zM170 755l88 127h101l88 -127h-85l-53 80h-2l-52 -80h-85z" />
    <glyph glyph-name="jcircumflex" unicode="&#x135;" horiz-adv-x="248" 
d="M76 506h96v-523q0 -59 -20.5 -100t-53.5 -58.5t-61 -24t-58 -6.5l-34 2v83q9 -1 22 -1q17 0 33 4t34.5 14t30 34t11.5 59v517zM-13 579l88 127h94l88 -127h-82l-52 81h-2l-52 -81h-82z" />
    <glyph glyph-name="Kcommaaccent" unicode="&#x136;" horiz-adv-x="623" 
d="M96 0v706h99v-297h105l178 297h109l-205 -335v-2l218 -369h-112l-188 324h-105v-324h-99zM276 -59h85q7 -27 7 -51q0 -41 -25 -94h-74q19 54 19 84t-12 61z" />
    <glyph glyph-name="kcommaaccent" unicode="&#x137;" horiz-adv-x="526" 
d="M76 0v706h97v-386h71l138 186h110l-168 -223v-2l187 -281h-113l-152 238h-73v-238h-97zM229 -59h85q7 -27 7 -51q0 -41 -25 -94h-74q19 54 19 84t-12 61z" />
    <glyph glyph-name="kgreenlandic" unicode="&#x138;" horiz-adv-x="529" 
d="M76 0v506h97v-199h70l145 199h112l-176 -236v-2l179 -268h-116l-142 225h-72v-225h-97z" />
    <glyph glyph-name="Lacute" unicode="&#x139;" horiz-adv-x="529" 
d="M96 0v706h99v-620h316v-86h-415zM103 755l73 127h104l-96 -127h-81z" />
    <glyph glyph-name="lacute" unicode="&#x13a;" horiz-adv-x="265" 
d="M70 138v568h97v-551q0 -42 14 -57t40 -15l17 1v-86q-15 -2 -32 -2q-136 0 -136 142zM76 755l73 127h104l-96 -127h-81z" />
    <glyph glyph-name="Lcommaaccent" unicode="&#x13b;" horiz-adv-x="529" 
d="M96 0v706h99v-620h316v-86h-415zM265 -59h85q7 -27 7 -51q0 -41 -25 -94h-74q19 54 19 84t-12 61z" />
    <glyph glyph-name="lcommaaccent" unicode="&#x13c;" horiz-adv-x="265" 
d="M70 138v568h97v-551q0 -42 14 -57t40 -15l17 1v-86q-15 -2 -32 -2q-136 0 -136 142zM110 -59h85q7 -27 7 -51q0 -41 -25 -94h-74q19 54 19 84t-12 61z" />
    <glyph glyph-name="Lcaron" unicode="&#x13d;" horiz-adv-x="529" 
d="M96 0v706h99v-620h316v-86h-415zM280 706h85q7 -27 7 -51q0 -41 -25 -94h-74q19 54 19 84t-12 61z" />
    <glyph glyph-name="lcaron" unicode="&#x13e;" horiz-adv-x="295" 
d="M70 138v568h97v-551q0 -42 14 -57t40 -15l17 1v-86q-15 -2 -32 -2q-136 0 -136 142zM226 706h85q7 -27 7 -51q0 -41 -25 -94h-74q19 54 19 84t-12 61z" />
    <glyph glyph-name="Ldot" unicode="&#x13f;" horiz-adv-x="529" 
d="M96 0v706h99v-620h316v-86h-415zM312 328v103h99v-103h-99z" />
    <glyph glyph-name="ldot" unicode="&#x140;" horiz-adv-x="340" 
d="M70 138v568h97v-551q0 -42 14 -57t40 -15l17 1v-86q-15 -2 -32 -2q-136 0 -136 142zM240 328v103h99v-103h-99z" />
    <glyph glyph-name="Lslash" unicode="&#x141;" horiz-adv-x="552" 
d="M60 267v97l59 34v308h99v-252l109 63v-97l-109 -63v-271h316v-86h-415v301z" />
    <glyph glyph-name="lslash" unicode="&#x142;" horiz-adv-x="321" 
d="M36 275v97l73 42v292h97v-236l82 47v-97l-82 -47v-218q0 -42 14 -57t40 -15l17 1v-86q-15 -2 -32 -2q-136 0 -136 142v179z" />
    <glyph glyph-name="Nacute" unicode="&#x143;" horiz-adv-x="757" 
d="M96 0v706h98l314 -459q12 -17 26.5 -42.5t23.5 -42.5l9 -17h2q-7 63 -7 102v459h99v-706h-97l-315 458q-12 17 -26.5 43t-23.5 43l-9 17h-2q7 -63 7 -103v-458h-99zM335 755l73 127h104l-96 -127h-81z" />
    <glyph glyph-name="nacute" unicode="&#x144;" horiz-adv-x="603" 
d="M76 0v506h94v-67l-2 -37h2q20 43 68 79.5t122 36.5q174 0 174 -194v-324h-97v302q0 61 -20 94t-76 33q-57 0 -100.5 -34.5t-59.5 -89.5q-8 -27 -8 -68v-237h-97zM270 579l73 127h104l-96 -127h-81z" />
    <glyph glyph-name="Ncommaaccent" unicode="&#x145;" horiz-adv-x="757" 
d="M96 0v706h98l314 -459q12 -17 26.5 -42.5t23.5 -42.5l9 -17h2q-7 63 -7 102v459h99v-706h-97l-315 458q-12 17 -26.5 43t-23.5 43l-9 17h-2q7 -63 7 -103v-458h-99zM334 -59h85q7 -27 7 -51q0 -41 -25 -94h-74q19 54 19 84t-12 61z" />
    <glyph glyph-name="ncommaaccent" unicode="&#x146;" horiz-adv-x="603" 
d="M76 0v506h94v-67l-2 -37h2q20 43 68 79.5t122 36.5q174 0 174 -194v-324h-97v302q0 61 -20 94t-76 33q-57 0 -100.5 -34.5t-59.5 -89.5q-8 -27 -8 -68v-237h-97zM259 -59h85q7 -27 7 -51q0 -41 -25 -94h-74q19 54 19 84t-12 61z" />
    <glyph glyph-name="Ncaron" unicode="&#x147;" horiz-adv-x="757" 
d="M96 0v706h98l314 -459q12 -17 26.5 -42.5t23.5 -42.5l9 -17h2q-7 63 -7 102v459h99v-706h-97l-315 458q-12 17 -26.5 43t-23.5 43l-9 17h-2q7 -63 7 -103v-458h-99zM328 755l-88 127h85l52 -81h2l53 81h85l-88 -127h-101z" />
    <glyph glyph-name="ncaron" unicode="&#x148;" horiz-adv-x="603" 
d="M76 0v506h94v-67l-2 -37h2q20 43 68 79.5t122 36.5q174 0 174 -194v-324h-97v302q0 61 -20 94t-76 33q-57 0 -100.5 -34.5t-59.5 -89.5q-8 -27 -8 -68v-237h-97zM262 579l-88 127h85l52 -81h2l53 81h85l-88 -127h-101z" />
    <glyph glyph-name="napostrophe" unicode="&#x149;" horiz-adv-x="603" 
d="M76 0v506h94v-67l-2 -37h2q20 43 68 79.5t122 36.5q174 0 174 -194v-324h-97v302q0 61 -20 94t-76 33q-57 0 -100.5 -34.5t-59.5 -89.5q-8 -27 -8 -68v-237h-97zM3 706h85q7 -27 7 -51q0 -41 -25 -94h-74q19 54 19 84t-12 61z" />
    <glyph glyph-name="Eng" unicode="&#x14a;" horiz-adv-x="756" 
d="M96 0v706h97l315 -459q7 -11 15.5 -25.5t15.5 -27.5t13.5 -24.5t9.5 -17.5l4 -7h2q-6 63 -6 102v459h98v-679q0 -65 -20.5 -112.5t-55.5 -72.5t-73.5 -36t-82.5 -11v91q47 0 87 30t44 91l-311 451q-12 17 -26.5 42.5t-23.5 43.5l-8 17h-2q6 -63 6 -103v-458h-98z" />
    <glyph glyph-name="eng" unicode="&#x14b;" horiz-adv-x="603" 
d="M76 0v506h94v-75l-2 -29h2q20 43 68 79.5t122 36.5q89 0 131.5 -48t42.5 -146v-344q0 -48 -14.5 -84t-35 -55.5t-49 -31.5t-50.5 -15t-45 -3l-34 2v83q9 -1 22 -1q18 0 34 4t34.5 14.5t29.5 34.5t11 59v315q0 61 -19.5 94t-75.5 33q-58 0 -101.5 -34t-59.5 -90
q-8 -27 -8 -68v-237h-97z" />
    <glyph glyph-name="Omacron" unicode="&#x14c;" horiz-adv-x="821" 
d="M48 358q0 152 105 256t258 104t257.5 -104t104.5 -256q0 -156 -104.5 -263t-257.5 -107t-258 107t-105 263zM150 358q0 -118 76 -198.5t185 -80.5t184.5 80.5t75.5 198.5q0 115 -75.5 192.5t-184.5 77.5t-185 -77.5t-76 -192.5zM284 784v70h255v-70h-255z" />
    <glyph glyph-name="omacron" unicode="&#x14d;" horiz-adv-x="624" 
d="M39 254q0 114 79 189t194 75t194 -75t79 -189t-79.5 -190t-193.5 -76t-193.5 76t-79.5 190zM138 254q0 -78 51 -130t123 -52q73 0 123.5 51.5t50.5 130.5q0 78 -50.5 129t-123.5 51q-72 0 -123 -51t-51 -129zM185 608v70h255v-70h-255z" />
    <glyph glyph-name="Obreve" unicode="&#x14e;" horiz-adv-x="821" 
d="M48 358q0 152 105 256t258 104t257.5 -104t104.5 -256q0 -156 -104.5 -263t-257.5 -107t-258 107t-105 263zM150 358q0 -118 76 -198.5t185 -80.5t184.5 80.5t75.5 198.5q0 115 -75.5 192.5t-184.5 77.5t-185 -77.5t-76 -192.5zM411 751q-55 0 -93.5 31t-38.5 86v14h72
v-13q0 -30 17.5 -45t42.5 -15q24 0 41.5 15.5t17.5 45.5v12h72v-14q0 -55 -38.5 -86t-92.5 -31z" />
    <glyph glyph-name="obreve" unicode="&#x14f;" horiz-adv-x="624" 
d="M39 254q0 114 79 189t194 75t194 -75t79 -189t-79.5 -190t-193.5 -76t-193.5 76t-79.5 190zM138 254q0 -78 51 -130t123 -52q73 0 123.5 51.5t50.5 130.5q0 78 -50.5 129t-123.5 51q-72 0 -123 -51t-51 -129zM313 575q-55 0 -93.5 31t-38.5 86v14h72v-13q0 -30 17.5 -45
t42.5 -15q24 0 41.5 15.5t17.5 45.5v12h72v-14q0 -55 -38.5 -86t-92.5 -31z" />
    <glyph glyph-name="Ohungarumlaut" unicode="&#x150;" horiz-adv-x="821" 
d="M48 358q0 152 105 256t258 104t257.5 -104t104.5 -256q0 -156 -104.5 -263t-257.5 -107t-258 107t-105 263zM150 358q0 -118 76 -198.5t185 -80.5t184.5 80.5t75.5 198.5q0 115 -75.5 192.5t-184.5 77.5t-185 -77.5t-76 -192.5zM433 755l73 127h101l-96 -127h-78z
M279 755l68 127h87l-71 -127h-84z" />
    <glyph glyph-name="ohungarumlaut" unicode="&#x151;" horiz-adv-x="624" 
d="M39 254q0 114 79 189t194 75t194 -75t79 -189t-79.5 -190t-193.5 -76t-193.5 76t-79.5 190zM138 254q0 -78 51 -130t123 -52q73 0 123.5 51.5t50.5 130.5q0 78 -50.5 129t-123.5 51q-72 0 -123 -51t-51 -129zM335 579l73 127h101l-96 -127h-78zM181 579l68 127h87
l-71 -127h-84z" />
    <glyph glyph-name="OE" unicode="&#x152;" horiz-adv-x="960" 
d="M48 354q0 153 104.5 257t260.5 104q26 0 66.5 -4.5t56.5 -4.5h358v-86h-312v-221h254v-86h-254v-227h330v-86h-375q-16 0 -57 -4.5t-67 -4.5q-155 0 -260 104.5t-105 258.5zM150 354q0 -118 74 -197.5t189 -79.5q18 0 35.5 1.5t26.5 3.5l9 2v538q-31 8 -71 8
q-115 0 -189 -79.5t-74 -196.5z" />
    <glyph glyph-name="oe" unicode="&#x153;" horiz-adv-x="1000" 
d="M40 252q0 117 78.5 191.5t191.5 74.5q147 0 219 -120h2q64 120 208 120q103 0 161 -67t58 -170l-3 -42h-369q6 -80 55 -123.5t119 -43.5q39 0 76.5 15t55.5 29l18 15l40 -71q-8 -8 -24 -20t-67 -32t-105 -20q-153 0 -221 123h-2q-71 -123 -221 -123q-113 0 -191.5 73.5
t-78.5 190.5zM589 312h270q-2 62 -36 95.5t-85 33.5q-58 0 -98.5 -34t-50.5 -95zM139 252q0 -80 50 -130t123 -50t123.5 50.5t50.5 132.5q0 79 -51 129t-123 50t-122.5 -50.5t-50.5 -131.5z" />
    <glyph glyph-name="Racute" unicode="&#x154;" horiz-adv-x="641" 
d="M96 0v706h216q89 0 132 -16q55 -20 87 -71t32 -120q0 -68 -34.5 -120t-92.5 -71v-2q8 -9 21 -32l150 -274h-112l-149 281h-151v-281h-99zM195 367h142q58 0 91.5 34.5t33.5 93.5q0 78 -56 109q-30 16 -97 16h-114v-253zM265 755l73 127h104l-96 -127h-81z" />
    <glyph glyph-name="racute" unicode="&#x155;" horiz-adv-x="375" 
d="M76 0v506h94v-88l-2 -38h2q18 58 60.5 95t99.5 37l25 -2v-96q-13 3 -28 3q-47 0 -86 -32t-56 -87q-12 -39 -12 -91v-207h-97zM181 579l73 127h104l-96 -127h-81z" />
    <glyph glyph-name="Rcommaaccent" unicode="&#x156;" horiz-adv-x="641" 
d="M96 0v706h216q89 0 132 -16q55 -20 87 -71t32 -120q0 -68 -34.5 -120t-92.5 -71v-2q8 -9 21 -32l150 -274h-112l-149 281h-151v-281h-99zM195 367h142q58 0 91.5 34.5t33.5 93.5q0 78 -56 109q-30 16 -97 16h-114v-253zM284 -59h85q7 -27 7 -51q0 -41 -25 -94h-74
q19 54 19 84t-12 61z" />
    <glyph glyph-name="rcommaaccent" unicode="&#x157;" horiz-adv-x="375" 
d="M76 0v506h94v-88l-2 -38h2q18 58 60.5 95t99.5 37l25 -2v-96q-13 3 -28 3q-47 0 -86 -32t-56 -87q-12 -39 -12 -91v-207h-97zM81 -59h85q7 -27 7 -51q0 -41 -25 -94h-74q19 54 19 84t-12 61z" />
    <glyph glyph-name="Rcaron" unicode="&#x158;" horiz-adv-x="641" 
d="M96 0v706h216q89 0 132 -16q55 -20 87 -71t32 -120q0 -68 -34.5 -120t-92.5 -71v-2q8 -9 21 -32l150 -274h-112l-149 281h-151v-281h-99zM195 367h142q58 0 91.5 34.5t33.5 93.5q0 78 -56 109q-30 16 -97 16h-114v-253zM258 755l-88 127h85l52 -81h2l53 81h85l-88 -127
h-101z" />
    <glyph glyph-name="rcaron" unicode="&#x159;" horiz-adv-x="375" 
d="M76 0v506h94v-88l-2 -38h2q18 58 60.5 95t99.5 37l25 -2v-96q-13 3 -28 3q-47 0 -86 -32t-56 -87q-12 -39 -12 -91v-207h-97zM175 579l-88 127h85l52 -81h2l53 81h85l-88 -127h-101z" />
    <glyph glyph-name="Sacute" unicode="&#x15a;" horiz-adv-x="546" 
d="M42 81l56 75q3 -3 8.5 -8t24.5 -18.5t38.5 -23.5t49.5 -18t59 -8q52 0 87 28t35 76q0 31 -19 55t-49 41t-66.5 32.5t-73 33.5t-66.5 40t-49 56.5t-19 78.5q0 83 64.5 140t163.5 57q58 0 108 -18t71 -36l21 -17l-45 -82q-7 7 -20.5 17t-54 27t-80.5 17q-55 0 -91.5 -30
t-36.5 -73q0 -40 35 -68t85.5 -48t101 -44t85.5 -68.5t35 -107.5q0 -85 -61 -142t-163 -57q-42 0 -81.5 9.5t-66 23t-47 27.5t-29.5 24zM232 755l73 127h104l-96 -127h-81z" />
    <glyph glyph-name="sacute" unicode="&#x15b;" horiz-adv-x="448" 
d="M35 62l47 69q6 -7 18 -16.5t50 -26t77 -16.5q34 0 59 17t25 46q0 25 -27 44t-65 33.5t-76 32t-65 50.5t-27 79q0 67 52 105.5t131 38.5q49 0 90 -14t57 -28l16 -14l-39 -73q-5 5 -14.5 12.5t-42 20t-68.5 12.5q-35 0 -59 -15.5t-24 -46.5q0 -25 27 -43t65 -32.5t76 -32
t65 -50.5t27 -79q0 -64 -50.5 -105.5t-132.5 -41.5q-55 0 -103 18.5t-68 37.5zM185 579l73 127h104l-96 -127h-81z" />
    <glyph glyph-name="Scircumflex" unicode="&#x15c;" horiz-adv-x="546" 
d="M42 81l56 75q3 -3 8.5 -8t24.5 -18.5t38.5 -23.5t49.5 -18t59 -8q52 0 87 28t35 76q0 31 -19 55t-49 41t-66.5 32.5t-73 33.5t-66.5 40t-49 56.5t-19 78.5q0 83 64.5 140t163.5 57q58 0 108 -18t71 -36l21 -17l-45 -82q-7 7 -20.5 17t-54 27t-80.5 17q-55 0 -91.5 -30
t-36.5 -73q0 -40 35 -68t85.5 -48t101 -44t85.5 -68.5t35 -107.5q0 -85 -61 -142t-163 -57q-42 0 -81.5 9.5t-66 23t-47 27.5t-29.5 24zM137 755l88 127h101l88 -127h-85l-53 80h-2l-52 -80h-85z" />
    <glyph glyph-name="scircumflex" unicode="&#x15d;" horiz-adv-x="448" 
d="M35 62l47 69q6 -7 18 -16.5t50 -26t77 -16.5q34 0 59 17t25 46q0 25 -27 44t-65 33.5t-76 32t-65 50.5t-27 79q0 67 52 105.5t131 38.5q49 0 90 -14t57 -28l16 -14l-39 -73q-5 5 -14.5 12.5t-42 20t-68.5 12.5q-35 0 -59 -15.5t-24 -46.5q0 -25 27 -43t65 -32.5t76 -32
t65 -50.5t27 -79q0 -64 -50.5 -105.5t-132.5 -41.5q-55 0 -103 18.5t-68 37.5zM90 579l88 127h101l88 -127h-85l-53 80h-2l-52 -80h-85z" />
    <glyph glyph-name="Scedilla" unicode="&#x15e;" horiz-adv-x="546" 
d="M42 81l56 75q3 -3 8.5 -8t24.5 -18.5t38.5 -23.5t49.5 -18t59 -8q52 0 87 28t35 76q0 31 -19 55t-49 41t-66.5 32.5t-73 33.5t-66.5 40t-49 56.5t-19 78.5q0 83 64.5 140t163.5 57q58 0 108 -18t71 -36l21 -17l-45 -82q-7 7 -20.5 17t-54 27t-80.5 17q-55 0 -91.5 -30
t-36.5 -73q0 -40 35 -68t85.5 -48t101 -44t85.5 -68.5t35 -107.5q0 -79 -53.5 -134.5t-144.5 -63.5l-8 -39q32 -4 52 -23t20 -50q0 -43 -29.5 -63.5t-72.5 -20.5q-14 0 -28 1.5t-20 3.5l-7 2v58q20 -7 42 -7q48 0 48 31t-53 31l-18 -1l20 77q-59 5 -110.5 28t-73.5 43z" />
    <glyph glyph-name="scedilla" unicode="&#x15f;" horiz-adv-x="448" 
d="M35 62l47 69q6 -7 18 -16.5t50 -26t77 -16.5q34 0 59 17t25 46q0 25 -27 44t-65 33.5t-76 32t-65 50.5t-27 79q0 67 52 105.5t131 38.5q49 0 90 -14t57 -28l16 -14l-39 -73q-5 5 -14.5 12.5t-42 20t-68.5 12.5q-35 0 -59 -15.5t-24 -46.5q0 -25 27 -43t65 -32.5t76 -32
t65 -50.5t27 -79q0 -59 -44 -99.5t-117 -46.5l-8 -39q32 -4 52 -23t20 -50q0 -43 -29.5 -63.5t-72.5 -20.5q-14 0 -28 1.5t-21 3.5l-6 2v58q20 -7 42 -7q48 0 48 31t-53 31l-18 -1l20 78q-46 4 -86 22t-57 34z" />
    <glyph glyph-name="Scaron" unicode="&#x160;" horiz-adv-x="546" 
d="M42 81l56 75q3 -3 8.5 -8t24.5 -18.5t38.5 -23.5t49.5 -18t59 -8q52 0 87 28t35 76q0 31 -19 55t-49 41t-66.5 32.5t-73 33.5t-66.5 40t-49 56.5t-19 78.5q0 83 64.5 140t163.5 57q58 0 108 -18t71 -36l21 -17l-45 -82q-7 7 -20.5 17t-54 27t-80.5 17q-55 0 -91.5 -30
t-36.5 -73q0 -40 35 -68t85.5 -48t101 -44t85.5 -68.5t35 -107.5q0 -85 -61 -142t-163 -57q-42 0 -81.5 9.5t-66 23t-47 27.5t-29.5 24zM225 755l-88 127h85l52 -81h2l53 81h85l-88 -127h-101z" />
    <glyph glyph-name="scaron" unicode="&#x161;" horiz-adv-x="448" 
d="M35 62l47 69q6 -7 18 -16.5t50 -26t77 -16.5q34 0 59 17t25 46q0 25 -27 44t-65 33.5t-76 32t-65 50.5t-27 79q0 67 52 105.5t131 38.5q49 0 90 -14t57 -28l16 -14l-39 -73q-5 5 -14.5 12.5t-42 20t-68.5 12.5q-35 0 -59 -15.5t-24 -46.5q0 -25 27 -43t65 -32.5t76 -32
t65 -50.5t27 -79q0 -64 -50.5 -105.5t-132.5 -41.5q-55 0 -103 18.5t-68 37.5zM178 579l-88 127h85l52 -81h2l53 81h85l-88 -127h-101z" />
    <glyph glyph-name="Tcommaaccent" unicode="&#x162;" horiz-adv-x="593" 
d="M247 0v620h-242v86h583v-86h-242v-620h-22l-11 -50q32 -4 52 -23t20 -50q0 -43 -29.5 -63.5t-72.5 -20.5q-14 0 -28 1.5t-21 3.5l-6 2v58q20 -7 42 -7q48 0 48 31t-53 31l-18 -1l23 88h-23z" />
    <glyph glyph-name="tcommaaccent" unicode="&#x163;" horiz-adv-x="359" 
d="M98 185v236h-66v78h69v146h94v-146h122v-78h-122v-225q0 -29 8 -50.5t19.5 -33.5t27 -19t28 -9t25.5 -2l23 2v-86q-14 -2 -34 -2q-31 0 -57 5l-11 -51q32 -4 52 -23t20 -50q0 -43 -29.5 -63.5t-72.5 -20.5q-14 0 -28 1.5t-20 3.5l-7 2v58q20 -7 42 -7q48 0 48 31t-53 31
l-18 -1l28 106q-88 45 -88 167z" />
    <glyph glyph-name="Tcaron" unicode="&#x164;" horiz-adv-x="593" 
d="M247 0v620h-242v86h583v-86h-242v-620h-99zM246 755l-88 127h85l52 -81h2l53 81h85l-88 -127h-101z" />
    <glyph glyph-name="tcaron" unicode="&#x165;" horiz-adv-x="358" 
d="M97 185v236h-66v78h69v146h94v-146h122v-78h-122v-225q0 -29 8 -50.5t19.5 -33.5t27 -19t28 -9t25.5 -2l23 2v-86q-14 -2 -34 -2q-24 0 -46 3t-50 15t-48.5 31.5t-35 55.5t-14.5 84zM254 707h85q7 -27 7 -50q0 -40 -25 -92h-74q19 54 19 82q0 29 -12 60z" />
    <glyph glyph-name="Tbar" unicode="&#x166;" horiz-adv-x="616" 
d="M102 310v76h156v234h-242v86h583v-86h-242v-234h160v-76h-160v-310h-99v310h-156z" />
    <glyph glyph-name="tbar" unicode="&#x167;" horiz-adv-x="381" 
d="M40 259v68h70v94h-66v78h69v146h94v-146h122v-78h-122v-94h117v-68h-117v-67q0 -34 11 -57.5t29.5 -34t34.5 -14.5t33 -4l23 2v-86q-14 -2 -34 -2q-24 0 -46 3t-50 15t-48.5 31.5t-35 55.5t-14.5 84v74h-70z" />
    <glyph glyph-name="Utilde" unicode="&#x168;" horiz-adv-x="728" 
d="M86 250v456h99v-456q0 -80 48 -125.5t130 -45.5q83 0 131.5 45.5t48.5 127.5v454h99v-456q0 -117 -77 -189.5t-201 -72.5t-201 72.5t-77 189.5zM196 756q0 127 102 127q29 0 51 -17t40 -34t35 -17q20 0 29.5 19.5t9.5 45.5h70q0 -127 -102 -127q-29 0 -51 17t-40 34
t-35 17q-39 0 -39 -65h-70z" />
    <glyph glyph-name="utilde" unicode="&#x169;" horiz-adv-x="598" 
d="M69 182v324h97v-302q0 -61 19.5 -93.5t75.5 -32.5q74 0 119 56t45 135v237h97v-506h-94v67l2 37h-2q-19 -44 -68.5 -80t-117.5 -36q-173 0 -173 194zM128 580q0 127 102 127q29 0 51 -17t40 -34t35 -17q20 0 29.5 19.5t9.5 45.5h70q0 -127 -102 -127q-29 0 -51 17t-40 34
t-35 17q-39 0 -39 -65h-70z" />
    <glyph glyph-name="Umacron" unicode="&#x16a;" horiz-adv-x="728" 
d="M86 250v456h99v-456q0 -80 48 -125.5t130 -45.5q83 0 131.5 45.5t48.5 127.5v454h99v-456q0 -117 -77 -189.5t-201 -72.5t-201 72.5t-77 189.5zM237 784v70h255v-70h-255z" />
    <glyph glyph-name="umacron" unicode="&#x16b;" horiz-adv-x="598" 
d="M69 182v324h97v-302q0 -61 19.5 -93.5t75.5 -32.5q74 0 119 56t45 135v237h97v-506h-94v67l2 37h-2q-19 -44 -68.5 -80t-117.5 -36q-173 0 -173 194zM169 608v70h255v-70h-255z" />
    <glyph glyph-name="Ubreve" unicode="&#x16c;" horiz-adv-x="728" 
d="M86 250v456h99v-456q0 -80 48 -125.5t130 -45.5q83 0 131.5 45.5t48.5 127.5v454h99v-456q0 -117 -77 -189.5t-201 -72.5t-201 72.5t-77 189.5zM364 751q-55 0 -93.5 31t-38.5 86v14h72v-13q0 -30 17.5 -45t42.5 -15q24 0 41.5 15.5t17.5 45.5v12h72v-14q0 -55 -38.5 -86
t-92.5 -31z" />
    <glyph glyph-name="ubreve" unicode="&#x16d;" horiz-adv-x="598" 
d="M69 182v324h97v-302q0 -61 19.5 -93.5t75.5 -32.5q74 0 119 56t45 135v237h97v-506h-94v67l2 37h-2q-19 -44 -68.5 -80t-117.5 -36q-173 0 -173 194zM296 575q-55 0 -93.5 31t-38.5 86v14h72v-13q0 -30 17.5 -45t42.5 -15q24 0 41.5 15.5t17.5 45.5v12h72v-14
q0 -55 -38.5 -86t-92.5 -31z" />
    <glyph glyph-name="Uring" unicode="&#x16e;" horiz-adv-x="728" 
d="M86 250v456h99v-456q0 -80 48 -125.5t130 -45.5q83 0 131.5 45.5t48.5 127.5v454h99v-456q0 -117 -77 -189.5t-201 -72.5t-201 72.5t-77 189.5zM364 743q-35 0 -60 20.5t-25 53.5q0 34 25 54.5t60 20.5t60 -20.5t25 -54.5q0 -33 -25 -53.5t-60 -20.5zM364 784
q14 0 23.5 9.5t9.5 23.5q0 16 -9.5 25.5t-23.5 9.5q-15 0 -24 -9.5t-9 -25.5q0 -14 9 -23.5t24 -9.5z" />
    <glyph glyph-name="uring" unicode="&#x16f;" horiz-adv-x="598" 
d="M69 182v324h97v-302q0 -61 19.5 -93.5t75.5 -32.5q74 0 119 56t45 135v237h97v-506h-94v67l2 37h-2q-19 -44 -68.5 -80t-117.5 -36q-173 0 -173 194zM296 567q-35 0 -60 20.5t-25 53.5q0 34 25 54.5t60 20.5t60 -20.5t25 -54.5q0 -33 -25 -53.5t-60 -20.5zM296 608
q14 0 23.5 9.5t9.5 23.5q0 16 -9.5 25.5t-23.5 9.5q-15 0 -24 -9.5t-9 -25.5q0 -14 9 -23.5t24 -9.5z" />
    <glyph glyph-name="Uhungarumlaut" unicode="&#x170;" horiz-adv-x="728" 
d="M86 250v456h99v-456q0 -80 48 -125.5t130 -45.5q83 0 131.5 45.5t48.5 127.5v454h99v-456q0 -117 -77 -189.5t-201 -72.5t-201 72.5t-77 189.5zM386 755l73 127h101l-96 -127h-78zM232 755l68 127h87l-71 -127h-84z" />
    <glyph glyph-name="uhungarumlaut" unicode="&#x171;" horiz-adv-x="598" 
d="M69 182v324h97v-302q0 -61 19.5 -93.5t75.5 -32.5q74 0 119 56t45 135v237h97v-506h-94v67l2 37h-2q-19 -44 -68.5 -80t-117.5 -36q-173 0 -173 194zM318 579l73 127h101l-96 -127h-78zM164 579l68 127h87l-71 -127h-84z" />
    <glyph glyph-name="Uogonek" unicode="&#x172;" horiz-adv-x="727" 
d="M325 -112q0 52 52 100h-14q-124 0 -200.5 72t-76.5 190v456h98v-456q0 -80 48 -125.5t130 -45.5q83 0 131.5 45.5t48.5 127.5v454h98v-456q0 -47 -11 -85t-33 -65.5t-42 -44.5t-49 -37q-26 -18 -38 -26.5t-28.5 -23.5t-23.5 -28.5t-7 -28.5q0 -17 14 -27.5t28 -13.5
l14 -2l-23 -75q-5 0 -12.5 1.5t-27.5 7.5t-35.5 15.5t-28 28t-12.5 42.5z" />
    <glyph glyph-name="uogonek" unicode="&#x173;" horiz-adv-x="598" 
d="M69 182v324h97v-302q0 -61 19.5 -93.5t75.5 -32.5q74 0 119 56t45 135v237h97v-506q-65 -53 -65 -89q0 -17 14 -27.5t28 -13.5l14 -2l-23 -75q-5 0 -12.5 1.5t-27.5 7.5t-35.5 15.5t-28 28t-12.5 42.5q0 50 54 100v79l2 37h-2q-19 -44 -68.5 -80t-117.5 -36
q-173 0 -173 194z" />
    <glyph glyph-name="Wcircumflex" unicode="&#x174;" horiz-adv-x="948" 
d="M428 706h88l138 -518l15 -75h2q3 37 13 75l130 518h102l-185 -706h-115l-122 458l-21 100h-2q-9 -55 -21 -100l-122 -458h-115l-180 706h102l125 -518l13 -75h2q5 36 15 75zM338 755l88 127h101l88 -127h-85l-53 80h-2l-52 -80h-85z" />
    <glyph glyph-name="wcircumflex" unicode="&#x175;" horiz-adv-x="814" 
d="M180 0l-163 506h103l105 -355q3 -11 6.5 -25t4.5 -22l2 -7h2q5 28 13 54l110 354h89l109 -354l14 -54h2q4 28 12 54l106 355h102l-163 -506h-107l-105 325l-14 55h-2q-6 -29 -14 -55l-104 -325h-108zM269 579l88 127h101l88 -127h-85l-53 80h-2l-52 -80h-85z" />
    <glyph glyph-name="Ycircumflex" unicode="&#x176;" horiz-adv-x="588" 
d="M245 0v299l-237 407h112l131 -232l43 -89h2q21 49 43 89l129 232h112l-236 -407v-299h-99zM156 755l88 127h101l88 -127h-85l-53 80h-2l-52 -80h-85z" />
    <glyph glyph-name="ycircumflex" unicode="&#x177;" horiz-adv-x="510" 
d="M5 -179l34 74q28 -21 59 -21q60 0 91 74l25 58l-212 500h109l127 -331l19 -61h2q8 34 17 60l123 332h105l-237 -597q-23 -57 -66.5 -88t-97.5 -31q-25 0 -49.5 8t-36.5 16zM119 579l88 127h101l88 -127h-85l-53 80h-2l-52 -80h-85z" />
    <glyph glyph-name="Ydieresis" unicode="&#x178;" horiz-adv-x="588" 
d="M245 0v299l-237 407h112l131 -232l43 -89h2q21 49 43 89l129 232h112l-236 -407v-299h-99zM335 781v101h80v-101h-80zM168 781v101h80v-101h-80z" />
    <glyph glyph-name="Zacute" unicode="&#x179;" horiz-adv-x="607" 
d="M41 0v66l340 490q12 18 25 34t20 24l6 7v2q-19 -3 -53 -3h-320v86h496v-65l-340 -491q-12 -17 -24.5 -33t-19.5 -23l-7 -8v-2q19 2 53 2h342v-86h-518zM270 755l73 127h104l-96 -127h-81z" />
    <glyph glyph-name="zacute" unicode="&#x17a;" horiz-adv-x="517" 
d="M39 0v56l255 320l42 47v2q-16 -2 -49 -2h-237v83h417v-56l-255 -321l-43 -46v-2q17 2 50 2h257v-83h-437zM212 579l73 127h104l-96 -127h-81z" />
    <glyph glyph-name="Zdotaccent" unicode="&#x17b;" horiz-adv-x="607" 
d="M41 0v66l340 490q12 18 25 34t20 24l6 7v2q-19 -3 -53 -3h-320v86h496v-65l-340 -491q-12 -17 -24.5 -33t-19.5 -23l-7 -8v-2q19 2 53 2h342v-86h-518zM270 784v98h87v-98h-87z" />
    <glyph glyph-name="zdotaccent" unicode="&#x17c;" horiz-adv-x="517" 
d="M39 0v56l255 320l42 47v2q-16 -2 -49 -2h-237v83h417v-56l-255 -321l-43 -46v-2q17 2 50 2h257v-83h-437zM211 608v98h87v-98h-87z" />
    <glyph glyph-name="Zcaron" unicode="&#x17d;" horiz-adv-x="607" 
d="M41 0v66l340 490q12 18 25 34t20 24l6 7v2q-19 -3 -53 -3h-320v86h496v-65l-340 -491q-12 -17 -24.5 -33t-19.5 -23l-7 -8v-2q19 2 53 2h342v-86h-518zM263 755l-88 127h85l52 -81h2l53 81h85l-88 -127h-101z" />
    <glyph glyph-name="zcaron" unicode="&#x17e;" horiz-adv-x="517" 
d="M39 0v56l255 320l42 47v2q-16 -2 -49 -2h-237v83h417v-56l-255 -321l-43 -46v-2q17 2 50 2h257v-83h-437zM204 579l-88 127h85l52 -81h2l53 81h85l-88 -127h-101z" />
    <glyph glyph-name="longs" unicode="&#x17f;" horiz-adv-x="276" 
d="M103 0v421h-63v78h63v24q0 48 14 83.5t34.5 55t48 31t49.5 15t45 3.5l37 -3v-83q-10 2 -25 2q-17 0 -33 -4t-34 -14t-28.5 -33t-10.5 -56v-520h-97z" />
    <glyph glyph-name="florin" unicode="&#x192;" horiz-adv-x="569" 
d="M28 -21q38 -6 65 -6q17 0 33 4t34.5 14.5t31.5 34t16 58.5l23 266h-82v78h89l10 102q4 48 21.5 83.5t39 55t50 31t51 15t45.5 3.5l84 -7v-84q-50 7 -80 7q-17 0 -33 -4t-34.5 -14.5t-31.5 -34t-16 -58.5l-9 -95h117v-78h-124l-24 -274q-5 -59 -28.5 -99t-57.5 -57.5
t-62 -24t-58 -6.5l-70 6v84z" />
    <glyph glyph-name="Scommaaccent" unicode="&#x218;" horiz-adv-x="546" 
d="M42 81l56 75q3 -3 8.5 -8t24.5 -18.5t38.5 -23.5t49.5 -18t59 -8q52 0 87 28t35 76q0 31 -19 55t-49 41t-66.5 32.5t-73 33.5t-66.5 40t-49 56.5t-19 78.5q0 83 64.5 140t163.5 57q58 0 108 -18t71 -36l21 -17l-45 -82q-7 7 -20.5 17t-54 27t-80.5 17q-55 0 -91.5 -30
t-36.5 -73q0 -40 35 -68t85.5 -48t101 -44t85.5 -68.5t35 -107.5q0 -85 -61 -142t-163 -57q-42 0 -81.5 9.5t-66 23t-47 27.5t-29.5 24zM226 -59h85q7 -27 7 -51q0 -41 -25 -94h-74q19 54 19 84t-12 61z" />
    <glyph glyph-name="scommaaccent" unicode="&#x219;" horiz-adv-x="448" 
d="M35 62l47 69q6 -7 18 -16.5t50 -26t77 -16.5q34 0 59 17t25 46q0 25 -27 44t-65 33.5t-76 32t-65 50.5t-27 79q0 67 52 105.5t131 38.5q49 0 90 -14t57 -28l16 -14l-39 -73q-5 5 -14.5 12.5t-42 20t-68.5 12.5q-35 0 -59 -15.5t-24 -46.5q0 -25 27 -43t65 -32.5t76 -32
t65 -50.5t27 -79q0 -64 -50.5 -105.5t-132.5 -41.5q-55 0 -103 18.5t-68 37.5zM181 -59h85q7 -27 7 -51q0 -41 -25 -94h-74q19 54 19 84t-12 61z" />
    <glyph glyph-name="uni021A" unicode="&#x21a;" horiz-adv-x="593" 
d="M247 0v620h-242v86h583v-86h-242v-620h-99zM250 -59h85q7 -27 7 -51q0 -41 -25 -94h-74q19 54 19 84t-12 61z" />
    <glyph glyph-name="uni021B" unicode="&#x21b;" horiz-adv-x="358" 
d="M97 185v236h-66v78h69v146h94v-146h122v-78h-122v-225q0 -29 8 -50.5t19.5 -33.5t27 -19t28 -9t25.5 -2l23 2v-86q-14 -2 -34 -2q-24 0 -46 3t-50 15t-48.5 31.5t-35 55.5t-14.5 84zM174 -59h85q7 -27 7 -51q0 -41 -25 -94h-74q19 54 19 84t-12 61z" />
    <glyph glyph-name="circumflex" unicode="&#x2c6;" horiz-adv-x="499" 
d="M111 755l88 127h101l88 -127h-85l-53 80h-2l-52 -80h-85z" />
    <glyph glyph-name="caron" unicode="&#x2c7;" horiz-adv-x="499" 
d="M199 755l-88 127h85l52 -81h2l53 81h85l-88 -127h-101z" />
    <glyph glyph-name="breve" unicode="&#x2d8;" horiz-adv-x="499" 
d="M250 751q-55 0 -93.5 31t-38.5 86v14h72v-13q0 -30 17.5 -45t42.5 -15q24 0 41.5 15.5t17.5 45.5v12h72v-14q0 -55 -38.5 -86t-92.5 -31z" />
    <glyph glyph-name="dotaccent" unicode="&#x2d9;" horiz-adv-x="500" 
d="M206 784v98h87v-98h-87z" />
    <glyph glyph-name="ring" unicode="&#x2da;" horiz-adv-x="500" 
d="M250 743q-35 0 -60 20.5t-25 53.5q0 34 25 54.5t60 20.5t60 -20.5t25 -54.5q0 -33 -25 -53.5t-60 -20.5zM250 784q14 0 23.5 9.5t9.5 23.5q0 16 -9.5 25.5t-23.5 9.5q-15 0 -24 -9.5t-9 -25.5q0 -14 9 -23.5t24 -9.5z" />
    <glyph glyph-name="ogonek" unicode="&#x2db;" horiz-adv-x="499" 
d="M170 -112q0 36 25 69.5t49 49.5l25 16l61 -13q-9 -6 -21.5 -16t-34 -36.5t-21.5 -46.5q0 -17 14 -27.5t28 -13.5l14 -2l-23 -75q-5 0 -12.5 1.5t-27.5 7.5t-35.5 15.5t-28 28t-12.5 42.5z" />
    <glyph glyph-name="tilde" unicode="&#x2dc;" horiz-adv-x="499" 
d="M81 756q0 127 102 127q29 0 51 -17t40 -34t35 -17q20 0 29.5 19.5t9.5 45.5h70q0 -127 -102 -127q-36 0 -71.5 34t-54.5 34q-39 0 -39 -65h-70z" />
    <glyph glyph-name="hungarumlaut" unicode="&#x2dd;" horiz-adv-x="499" 
d="M240 755l73 127h101l-96 -127h-78zM86 755l68 127h87l-71 -127h-84z" />
    <glyph glyph-name="uni1E9E" unicode="&#x1e9e;" horiz-adv-x="690" 
d="M88 0v506q0 87 57.5 143.5t145.5 56.5h318v-67l-139 -203l-24 -33v-2h13q81 0 130.5 -59.5t49.5 -136.5q0 -85 -61.5 -145t-147.5 -60h-145v86h138q50 0 82 35t32 84q0 50 -31.5 83.5t-93.5 33.5h-75v69l113 169q42 61 44 61v2q-7 -3 -43 -3h-157q-46 0 -76 -32t-30 -80
v-508h-100z" />
    <glyph glyph-name="thinspace" unicode="&#x2009;" horiz-adv-x="14" 
 />
    <glyph glyph-name="endash" unicode="&#x2013;" horiz-adv-x="706" 
d="M90 246v78h526v-78h-526z" />
    <glyph glyph-name="emdash" unicode="&#x2014;" horiz-adv-x="906" 
d="M90 246v78h726v-78h-726z" />
    <glyph glyph-name="quoteleft" unicode="&#x2018;" horiz-adv-x="227" 
d="M49 522l66 195h71l-43 -195h-94z" />
    <glyph glyph-name="quoteright" unicode="&#x2019;" horiz-adv-x="219" 
d="M51 523l43 195h94l-65 -195h-72z" />
    <glyph glyph-name="quotesinglbase" unicode="&#x201a;" horiz-adv-x="244" 
d="M42 -90l43 195h91l-65 -195h-69z" />
    <glyph glyph-name="quotedblleft" unicode="&#x201c;" horiz-adv-x="369" 
d="M190 522l66 195h72l-43 -195h-95zM49 522l66 195h72l-43 -195h-95z" />
    <glyph glyph-name="quotedblright" unicode="&#x201d;" horiz-adv-x="360" 
d="M192 523l43 195h95l-65 -195h-73zM51 523l43 195h95l-66 -195h-72z" />
    <glyph glyph-name="quotedblbase" unicode="&#x201e;" horiz-adv-x="383" 
d="M180 -90l43 195h92l-65 -195h-70zM42 -90l43 195h91l-65 -195h-69z" />
    <glyph glyph-name="dagger" unicode="&#x2020;" horiz-adv-x="422" 
d="M163 -50v479h-121v77h121v200h93v-200h124v-77h-124v-479h-93z" />
    <glyph glyph-name="daggerdbl" unicode="&#x2021;" horiz-adv-x="458" 
d="M60 171v78h121v180h-121v77h121v200h93v-200h124v-77h-124v-180h124v-78h-124v-221h-93v221h-121z" />
    <glyph glyph-name="bullet" unicode="&#x2022;" horiz-adv-x="411" 
d="M206 136q-64 0 -109.5 45t-45.5 110t45.5 110t109.5 45t109 -45.5t45 -109.5t-45 -109.5t-109 -45.5z" />
    <glyph glyph-name="ellipsis" unicode="&#x2026;" horiz-adv-x="770" 
d="M595 0v103h99v-103h-99zM335 0v103h100v-103h-100zM76 0v103h99v-103h-99z" />
    <glyph glyph-name="perthousand" unicode="&#x2030;" horiz-adv-x="1115" 
d="M199 422q-63 0 -107 43t-44 105q0 61 44 104.5t107 43.5t107.5 -43.5t44.5 -104.5t-44.5 -104.5t-107.5 -43.5zM63 0l540 706h94l-540 -706h-94zM199 496q31 0 52.5 21t21.5 53q0 31 -21.5 53t-52.5 22t-52.5 -22t-21.5 -53q0 -32 21.5 -53t52.5 -21zM765 136
q0 61 44 104.5t107 43.5t107.5 -43.5t44.5 -104.5t-44.5 -104.5t-107.5 -43.5t-107 43t-44 105zM410 136q0 61 44.5 104.5t107.5 43.5q62 0 107 -43.5t45 -104.5t-45 -104.5t-107 -43.5q-64 0 -108 43t-44 105zM842 136q0 -32 21 -53t53 -21t53 21t21 53q0 31 -21.5 53
t-52.5 22t-52.5 -22t-21.5 -53zM488 136q0 -32 21 -53t53 -21q31 0 52.5 21.5t21.5 52.5t-21.5 53t-52.5 22t-52.5 -22t-21.5 -53z" />
    <glyph glyph-name="guilsinglleft" unicode="&#x2039;" horiz-adv-x="355" 
d="M208 77l-164 205l164 206h97l-164 -206l164 -205h-97z" />
    <glyph glyph-name="guilsinglright" unicode="&#x203a;" horiz-adv-x="355" 
d="M50 77l164 205l-164 206h97l164 -206l-164 -205h-97z" />
    <glyph glyph-name="fraction" unicode="&#x2044;" horiz-adv-x="168" 
d="M-46 0h-75l336 706h75z" />
    <glyph glyph-name="zerosuperior" unicode="&#x2070;" 
d="M194 413q-157 0 -157 229q0 228 157 228q158 0 158 -228q0 -229 -158 -229zM194 482q82 0 82 160q0 158 -82 158q-81 0 -81 -158q0 -160 81 -160z" />
    <glyph glyph-name="foursuperior" unicode="&#x2074;" 
d="M230 423v107h-208v50l201 280h81v-264h61v-66h-61v-107h-74zM104 596h126v123l3 58h-2q-14 -27 -29 -48l-98 -131v-2z" />
    <glyph glyph-name="fivesuperior" unicode="&#x2075;" 
d="M186 413q-42 0 -77.5 17t-50.5 34l-15 17l45 51q4 -6 11 -14t31 -22t52 -14q37 0 63 23.5t26 58.5t-26 59t-64 24q-20 0 -38.5 -5.5t-27.5 -11.5l-9 -5l-42 16l23 219h232v-67h-170l-7 -62l-5 -32h2q23 10 56 10q66 0 109 -42.5t43 -102.5q0 -62 -45 -106.5t-116 -44.5z
" />
    <glyph glyph-name="sixsuperior" unicode="&#x2076;" 
d="M206 413q-72 0 -118.5 55.5t-46.5 147.5q0 61 20 117t66.5 96.5t111.5 40.5q24 0 47 -5.5t34 -10.5l11 -6l-24 -64q-33 16 -66 16q-45 0 -76 -35.5t-40 -89.5h2q33 31 80 31q65 0 105.5 -40t40.5 -103q0 -67 -41 -108.5t-106 -41.5zM206 482q33 0 52.5 23.5t19.5 58.5
q0 37 -22 60.5t-59 23.5q-31 0 -54.5 -16.5t-23.5 -36.5q0 -42 25 -77.5t62 -35.5z" />
    <glyph glyph-name="sevensuperior" unicode="&#x2077;" 
d="M58 423l175 323l28 47v2q-19 -2 -44 -2h-171v67h302v-51l-208 -386h-82z" />
    <glyph glyph-name="eightsuperior" unicode="&#x2078;" 
d="M36 549q0 65 70 113q-49 35 -49 91q0 55 41.5 86t99.5 31q57 0 99.5 -31.5t42.5 -87.5q0 -57 -55 -112q64 -37 64 -99q0 -56 -45.5 -91.5t-109.5 -35.5t-111 36t-47 100zM273 543q0 13 -5 23.5t-20.5 21t-23.5 15.5t-34.5 16.5t-32.5 14.5q-48 -37 -48 -82
q0 -34 25.5 -54t59.5 -20q31 0 55 18.5t24 46.5zM130 750q0 -21 17 -38t32.5 -24.5t51.5 -22.5q38 38 38 82q0 27 -21.5 42.5t-50.5 15.5q-28 0 -47.5 -14.5t-19.5 -40.5z" />
    <glyph glyph-name="ninesuperior" unicode="&#x2079;" 
d="M36 720q0 66 41 108t105 42q72 0 118.5 -55.5t46.5 -147.5q0 -61 -19.5 -117t-66 -96.5t-111.5 -40.5q-24 0 -47 5.5t-35 11.5l-11 5l25 64q33 -16 65 -16q46 0 76 35t40 90h-2q-31 -31 -79 -31q-66 0 -106 40.5t-40 102.5zM111 720q0 -37 22 -61t59 -24q31 0 54.5 16.5
t23.5 36.5q0 42 -25.5 77.5t-62.5 35.5q-33 0 -52 -23t-19 -58z" />
    <glyph glyph-name="zeroinferior" unicode="&#x2080;" 
d="M194 -167q-157 0 -157 229q0 228 157 228q158 0 158 -228q0 -229 -158 -229zM194 -98q82 0 82 160q0 158 -82 158q-81 0 -81 -158q0 -160 81 -160z" />
    <glyph glyph-name="oneinferior" unicode="&#x2081;" 
d="M71 -157v66h93v249l2 26h-2q-4 -9 -18 -22l-35 -34l-46 49l106 103h68v-371h91v-66h-259z" />
    <glyph glyph-name="twoinferior" unicode="&#x2082;" 
d="M50 -157l-3 36q0 47 22 83.5t53 59t62 42t53 42.5t22 50q0 28 -20.5 46.5t-51.5 18.5q-22 0 -43 -12t-31 -24l-10 -12l-49 45q2 3 5.5 8t16 17t27.5 21.5t38.5 17.5t49.5 8q62 0 103 -36.5t41 -94.5q0 -40 -20.5 -72t-50.5 -52.5t-60 -38.5t-51.5 -39.5t-23.5 -47.5h213
v-66h-292z" />
    <glyph glyph-name="threeinferior" unicode="&#x2083;" 
d="M187 -168q-45 0 -81.5 16.5t-51.5 33.5l-14 16l42 53q4 -6 12 -14t34.5 -22t55.5 -14q33 0 58 22t25 54q0 33 -26.5 52t-62.5 19h-34l-16 38l89 103l24 24v2q-19 -3 -36 -3h-141v67h271v-48l-109 -126q50 -7 83.5 -39.5t33.5 -88.5q0 -59 -44.5 -102t-111.5 -43z" />
    <glyph glyph-name="fourinferior" unicode="&#x2084;" 
d="M230 -157v107h-208v50l201 280h81v-264h61v-66h-61v-107h-74zM104 16h126v123l3 58h-2q-14 -27 -29 -48l-98 -131v-2z" />
    <glyph glyph-name="fiveinferior" unicode="&#x2085;" 
d="M186 -167q-42 0 -77.5 17t-50.5 34l-15 17l45 51q4 -6 11 -14t31 -22t52 -14q37 0 63 23.5t26 58.5t-26 59t-64 24q-20 0 -38.5 -5.5t-27.5 -11.5l-9 -5l-42 16l23 219h232v-67h-170l-7 -62l-5 -32h2q23 10 56 10q66 0 109 -42.5t43 -102.5q0 -62 -45 -106.5t-116 -44.5z
" />
    <glyph glyph-name="sixinferior" unicode="&#x2086;" 
d="M206 -167q-72 0 -118.5 55.5t-46.5 147.5q0 61 20 117t66.5 96.5t111.5 40.5q24 0 47 -5.5t34 -10.5l11 -6l-24 -64q-33 16 -66 16q-45 0 -76 -35.5t-40 -89.5h2q33 31 80 31q65 0 105.5 -40t40.5 -103q0 -67 -41 -108.5t-106 -41.5zM206 -98q33 0 52.5 23.5t19.5 58.5
q0 37 -22 60.5t-59 23.5q-31 0 -54.5 -16.5t-23.5 -36.5q0 -42 25 -77.5t62 -35.5z" />
    <glyph glyph-name="seveninferior" unicode="&#x2087;" 
d="M58 -158l175 323l28 47v2q-19 -2 -44 -2h-171v67h302v-51l-208 -386h-82z" />
    <glyph glyph-name="eightinferior" unicode="&#x2088;" 
d="M36 -30q0 65 70 113q-49 35 -49 91q0 55 41.5 86t99.5 31q57 0 99.5 -31.5t42.5 -87.5q0 -57 -55 -112q64 -37 64 -99q0 -56 -45.5 -91.5t-109.5 -35.5t-111 36t-47 100zM273 -36q0 13 -5 23.5t-20.5 21t-23.5 15.5t-34.5 16.5t-32.5 14.5q-48 -37 -48 -82
q0 -34 25.5 -54t59.5 -20q31 0 55 18.5t24 46.5zM130 171q0 -21 17 -38t32.5 -24.5t51.5 -22.5q38 38 38 82q0 27 -21.5 42.5t-50.5 15.5q-28 0 -47.5 -14.5t-19.5 -40.5z" />
    <glyph glyph-name="nineinferior" unicode="&#x2089;" 
d="M36 140q0 66 41 108t105 42q72 0 118.5 -55.5t46.5 -147.5q0 -61 -19.5 -117t-66 -96.5t-111.5 -40.5q-24 0 -47 5.5t-35 11.5l-11 5l25 64q33 -16 65 -16q46 0 76 35t40 90h-2q-31 -31 -79 -31q-66 0 -106 40.5t-40 102.5zM111 140q0 -37 22 -61t59 -24q31 0 54.5 16.5
t23.5 36.5q0 42 -25.5 77.5t-62.5 35.5q-33 0 -52 -23t-19 -58z" />
    <glyph glyph-name="Euro" unicode="&#x20ac;" horiz-adv-x="591" 
d="M38 258v63h55q-4 40 0 72h-55v64h67q30 115 123 188t215 73q25 0 50 -3t38 -6l13 -3l-24 -91q-37 11 -79 11q-83 0 -144.5 -46t-86.5 -123h281l-13 -64h-282q-6 -33 -1 -72h270l-13 -63h-240q23 -79 86.5 -127.5t146.5 -48.5q22 0 45 3t34 7l12 3l19 -90
q-48 -17 -112 -17q-126 0 -218.5 74.5t-120.5 195.5h-66z" />
    <glyph glyph-name="trademark" unicode="&#x2122;" horiz-adv-x="940" 
d="M435 266l35 440h69l104 -230l14 -42h2q6 24 13 42l104 230h70l34 -440h-75l-21 263l1 30h-2l-95 -212h-61l-95 212h-2l1 -30l-21 -263h-75zM175 266v373h-152v67h380v-67h-152v-373h-76z" />
    <glyph glyph-name="minus" unicode="&#x2212;" horiz-adv-x="613" 
d="M48 246v78h517v-78h-517z" />
    <glyph glyph-name="infinity" unicode="&#x221e;" horiz-adv-x="508" 
d="M254 167q-75 0 -128.5 53.5t-53.5 128.5t53.5 128t128.5 53q76 0 129 -52.5t53 -128.5q0 -75 -53 -128.5t-129 -53.5z" />
    <glyph glyph-name="approxequal" unicode="&#x2248;" horiz-adv-x="613" 
d="M98 321l-41 59q69 73 151 73q50 0 107.5 -35t90.5 -35q59 0 110 55l41 -59q-70 -72 -151 -72q-50 0 -107.5 35t-90.5 35q-56 0 -110 -56zM98 133l-41 58q69 73 151 73q50 0 107.5 -35t90.5 -35q59 0 110 55l41 -59q-70 -72 -151 -72q-50 0 -107.5 35t-90.5 35
q-57 0 -110 -55z" />
    <glyph glyph-name="notequal" unicode="&#x2260;" horiz-adv-x="613" 
d="M122 73l56 78h-110v78h162l80 111h-242v78h294l82 115l51 -35l-58 -80h108v-78h-160l-79 -111h239v-78h-292l-79 -112z" />
    <glyph glyph-name="lessequal" unicode="&#x2264;" horiz-adv-x="613" 
d="M67 252v66l466 208v-89l-358 -151v-2l358 -151v-89zM68 -95h465v-78h-465v78z" />
    <glyph glyph-name="greaterequal" unicode="&#x2265;" horiz-adv-x="613" 
d="M80 44v89l358 151v2l-358 151v89l467 -208v-66zM80 -95h465v-78h-465v78z" />
    <glyph glyph-name="commaaccent" horiz-adv-x="335" 
d="M126 -59h85q7 -27 7 -51q0 -41 -25 -94h-74q19 54 19 84t-12 61z" />
    <glyph glyph-name="apple" horiz-adv-x="1130" 
d="M168 -5v152l-126 72v278l126 71v151l265 142l134 -71l132 71l265 -142v-151l124 -71v-278l-124 -72v-152l-265 -141l-132 71l-134 -71zM208 30l238 -126l121 66l118 -66l238 126v139l114 64v249l-114 66v136l-238 126l-118 -64l-121 64l-238 -126v-136l-114 -66v-249
l114 -64v-139zM242 64v121l-99 60v225l99 58v123l215 114l110 -59l107 59l214 -114v-123l100 -58v-225l-100 -60v-121l-214 -114l-107 58l-110 -58zM438 91h79v204h206v69h-206v165h151q14 0 19 -6t5 -20v-33h73v74q0 28 -12 40.5t-42 12.5h-331v-68h58v-438z" />
    <glyph glyph-name="zero.tnum" horiz-adv-x="574" 
d="M288 -12q-249 0 -249 366q0 364 249 364q250 0 250 -364q0 -366 -250 -366zM288 79q149 0 149 275q0 273 -149 273q-148 0 -148 -273q0 -275 148 -275z" />
    <glyph glyph-name="one.tnum" horiz-adv-x="574" 
d="M97 0v86h156v456l1 44h-2q-8 -16 -34 -41l-66 -65l-60 62l169 164h88v-620h154v-86h-406z" />
    <glyph glyph-name="two.tnum" horiz-adv-x="574" 
d="M69 0q-5 32 -5 54q0 59 25.5 109.5t64 83.5t83.5 66t83.5 59.5t64 62t25.5 73.5q0 52 -35.5 84.5t-91.5 32.5q-26 0 -50.5 -9.5t-40.5 -22.5t-28.5 -26t-17.5 -23l-6 -9l-73 49q3 5 8 14.5t24.5 32.5t43 40.5t63 32t84.5 14.5q98 0 160.5 -56t62.5 -147q0 -47 -18.5 -88
t-48.5 -70.5t-66 -56.5t-72 -51t-66 -48t-49 -53.5t-19 -61.5h350v-86h-455z" />
    <glyph glyph-name="three.tnum" horiz-adv-x="574" 
d="M50 84l54 75q8 -9 22 -21.5t59 -34t90 -21.5q60 0 102 36.5t42 92.5q0 62 -47 96t-117 34h-49l-23 53l154 181l44 46v2q-21 -3 -60 -3h-239v86h422v-63l-192 -221q82 -9 144.5 -61t62.5 -146t-67 -160.5t-173 -66.5q-40 0 -78.5 10t-64.5 24t-46.5 28t-29.5 24z" />
    <glyph glyph-name="four.tnum" horiz-adv-x="574" 
d="M21 189v62l326 455h113v-433h96v-84h-96v-189h-97v189h-342zM130 273h233v257l4 70h-2q-16 -33 -35 -58l-200 -267v-2z" />
    <glyph glyph-name="five.tnum" horiz-adv-x="574" 
d="M53 86l55 72q2 -3 6.5 -8t19.5 -18.5t31.5 -23.5t43 -18t54.5 -8q64 0 109.5 40t45.5 103t-46 104t-115 41q-31 0 -60.5 -9t-44.5 -17l-14 -9l-57 21l35 350h356v-86h-270l-17 -149l-5 -37h2q39 22 91 22q109 0 177.5 -66.5t68.5 -163.5q0 -102 -71.5 -170t-178.5 -68
q-41 0 -78 10t-61 24.5t-42.5 29t-26.5 24.5z" />
    <glyph glyph-name="six.tnum" horiz-adv-x="574" 
d="M309 -12q-115 0 -189.5 92t-74.5 241q0 70 19.5 138.5t57 127.5t100 95t141.5 36q37 0 71 -7t50 -15l16 -7l-32 -85q-45 23 -101 23q-91 0 -145 -69.5t-67 -167.5h2q22 30 65.5 48.5t90.5 18.5q99 0 161 -66.5t62 -166.5q0 -104 -64 -170t-163 -66zM308 79q59 0 94.5 41
t35.5 104q0 66 -39.5 107.5t-105.5 41.5q-59 0 -101.5 -30t-42.5 -69q0 -72 47 -133.5t112 -61.5z" />
    <glyph glyph-name="seven.tnum" horiz-adv-x="574" 
d="M111 0l275 556q9 18 19 34t16 24l6 7v2q-16 -3 -52 -3h-315v86h472v-68l-319 -638h-102z" />
    <glyph glyph-name="eight.tnum" horiz-adv-x="574" 
d="M40 204q0 37 14 71.5t36.5 59t36 36.5t26.5 21q-79 57 -79 141q0 76 57 130.5t163 54.5q99 0 160.5 -51.5t61.5 -137.5q0 -91 -84 -184q96 -59 96 -150q0 -85 -67.5 -146t-174.5 -61t-176.5 60.5t-69.5 155.5zM426 198q0 18 -9 34.5t-21 28t-35 25t-40.5 21.5t-47.5 21.5
t-47 21.5q-85 -59 -85 -140q0 -59 43 -96t102 -37q57 0 98.5 34t41.5 87zM172 531q0 -14 5 -27t10.5 -23t19.5 -21t23 -17t29 -16t30 -14.5t34.5 -14.5t33.5 -14q62 62 62 139q0 48 -35 77t-91 29q-57 0 -89 -28t-32 -70z" />
    <glyph glyph-name="nine.tnum" horiz-adv-x="574" 
d="M213 -12q-37 0 -71.5 7t-49.5 15l-16 7l32 86q45 -24 101 -24q91 0 145 69.5t67 167.5h-2q-21 -30 -65 -48t-91 -18q-99 0 -161 66t-62 166q0 104 64 170t163 66q114 0 189 -92t75 -241q0 -70 -19.5 -138.5t-57 -127.5t-100 -95t-141.5 -36zM283 333q59 0 101.5 30.5
t42.5 68.5q0 72 -47 133.5t-112 61.5q-60 0 -95 -41t-35 -104q0 -66 39 -107.5t106 -41.5z" />
    <glyph glyph-name="hyphen.case" horiz-adv-x="510" 
d="M109 305v86h292v-86h-292z" />
    <glyph glyph-name="parenleft.case" horiz-adv-x="340" 
d="M293 -65h-85q-116 193 -116 435q0 210 116 395h85q-113 -189 -113 -396q0 -229 113 -434z" />
    <glyph glyph-name="parenright.case" horiz-adv-x="340" 
d="M132 -65h-85q113 205 113 434q0 207 -113 396h85q116 -185 116 -395q0 -242 -116 -435z" />
    <glyph glyph-name="bracketleft.case" horiz-adv-x="351" 
d="M119 -65v830h165v-73h-80v-683h80v-74h-165z" />
    <glyph glyph-name="bracketright.case" horiz-adv-x="352" 
d="M233 765v-830h-166v74h80v683h-80v73h166z" />
    <glyph glyph-name="braceleft.case" horiz-adv-x="402" 
d="M154 107v96q0 29 -9 50.5t-21 32t-24.5 17t-21.5 7.5l-9 2v86q3 0 9 1t20.5 8t26 18t20.5 33t9 51v84q0 45 12.5 78.5t30 51t42 28.5t42 13.5t35.5 2.5l23 -1v-74h-14q-13 0 -24.5 -3.5t-27 -13t-25 -32t-9.5 -56.5v-103q0 -28 -8.5 -51t-20.5 -36.5t-23.5 -23
t-20.5 -13.5l-8 -3v-2q3 -1 8.5 -3t19.5 -12t24.5 -23t19.5 -36.5t9 -52.5v-115q0 -34 9.5 -56.5t25 -32t27 -13t24.5 -3.5h14v-74q-9 -2 -23 -2q-18 0 -35.5 2.5t-42 13.5t-42 28.5t-30 51.5t-12.5 79z" />
    <glyph glyph-name="braceright.case" horiz-adv-x="402" 
d="M63 8h14q13 0 24.5 3.5t27 13t25 32t9.5 56.5v115q0 46 20.5 77.5t40.5 40.5l20 9v2q-3 1 -8.5 3.5t-19.5 12.5t-24.5 23t-19.5 36.5t-9 51.5v103q0 34 -9.5 56.5t-25 32t-27 13t-24.5 3.5h-14v74q9 1 23 1q18 0 35.5 -2.5t42 -13.5t42 -28.5t30 -51t12.5 -78.5v-84
q0 -29 9 -51t21 -33t24.5 -17.5t21.5 -7.5l9 -2v-86q-3 0 -9 -1t-20.5 -8t-26 -17.5t-20.5 -32t-9 -50.5v-96q0 -45 -12.5 -79t-30 -51.5t-42 -28.5t-42 -13.5t-35.5 -2.5l-23 2v74z" />
    <glyph glyph-name="at.case" horiz-adv-x="835" 
d="M74 352q0 155 106 262.5t259 107.5q135 0 197.5 -57.5t62.5 -146.5v-283h72v-73h-273q-91 0 -149 55.5t-58 133.5q0 77 57.5 132.5t149.5 55.5h108q-2 45 -44.5 74t-117.5 29q-115 0 -194 -86t-79 -204q0 -121 79.5 -204.5t204.5 -83.5v-79q-166 0 -273.5 106t-107.5 261
zM389 353q0 -49 33 -83.5t83 -34.5h101v237h-99q-51 0 -84.5 -35t-33.5 -84z" />
    <glyph glyph-name="guillemotleft.case" horiz-adv-x="593" 
d="M428 137l-164 205l164 206h97l-164 -206l164 -205h-97zM227 137l-164 205l164 206h97l-164 -206l164 -205h-97z" />
    <glyph glyph-name="guillemotright.case" horiz-adv-x="594" 
d="M270 137l164 205l-164 206h97l164 -206l-164 -205h-97zM68 137l164 205l-164 206h97l164 -206l-164 -205h-97z" />
    <glyph glyph-name="guilsinglleft.case" horiz-adv-x="392" 
d="M227 137l-164 205l164 206h97l-164 -206l164 -205h-97z" />
    <glyph glyph-name="guilsinglright.case" horiz-adv-x="392" 
d="M68 137l164 205l-164 206h97l164 -206l-164 -205h-97z" />
    <glyph glyph-name="endash.case" horiz-adv-x="744" 
d="M109 306v78h526v-78h-526z" />
    <glyph glyph-name="emdash.case" horiz-adv-x="944" 
d="M109 306v78h726v-78h-726z" />
    <glyph glyph-name="periodcentered.case" horiz-adv-x="309" 
d="M105 294v103h99v-103h-99z" />
    <glyph glyph-name="questiondown.case" horiz-adv-x="514" 
d="M247 609v97h99v-97h-99zM72 170q0 46 18 82.5t44 61t52.5 47t44.5 51t18 61.5v39h94v-45q0 -42 -17.5 -77t-42.5 -58.5t-49.5 -45.5t-42 -49.5t-17.5 -58.5q0 -42 32.5 -71t81.5 -29q28 0 56.5 11t43.5 21l14 11l53 -69q-3 -3 -8 -7t-22 -15t-36 -19.5t-48 -15.5t-60 -7
q-87 0 -148 50.5t-61 131.5z" />
    <glyph glyph-name="exclamdown.case" horiz-adv-x="349" 
d="M124 609v97h99v-97h-99zM124 0l7 512h87l6 -512h-100z" />
    <glyph glyph-name="bullet.case" horiz-adv-x="449" 
d="M225 198q-64 0 -109.5 45.5t-45.5 109.5q0 65 45 110t110 45q64 0 109 -45.5t45 -109.5t-45 -109.5t-109 -45.5z" />
    <glyph glyph-name="zero.p_osf" horiz-adv-x="585" 
d="M52 272q0 75 24.5 138t81 105.5t135.5 42.5q116 0 178 -84.5t62 -202.5q0 -117 -61.5 -200t-178.5 -83t-179 83.5t-62 200.5zM150 273q0 -83 36.5 -142t106.5 -59t106 59t36 142q0 82 -36.5 141.5t-105.5 59.5q-70 0 -106.5 -59t-36.5 -142z" />
    <glyph glyph-name="one.p_osf" horiz-adv-x="475" 
d="M64 0v83h152v306l1 59h-2q-16 -15 -39 -29l-91 -54l-44 68l183 113h86v-463h138v-83h-384z" />
    <glyph glyph-name="two.p_osf" horiz-adv-x="533" 
d="M55 0v67q152 100 230 172t78 136q0 49 -33.5 73t-82.5 24q-37 0 -74.5 -19t-56.5 -37l-20 -19l-52 64q3 4 9.5 10.5t27.5 23t44.5 29.5t60 23.5t74.5 10.5q90 0 146 -48.5t56 -121.5q0 -84 -63.5 -153.5t-196.5 -152.5v-2q20 3 60 3h226v-83h-433z" />
    <glyph glyph-name="three.p_osf" horiz-adv-x="516" 
d="M14 -39l50 68q3 -3 7.5 -8t20.5 -17.5t33.5 -22t44.5 -17.5t54 -8q60 0 102 34t42 89q0 61 -48.5 93t-114.5 32h-52l-22 51l145 165q10 11 21 22t17 16l6 6v1q-21 -3 -60 -3h-206v84h396v-57l-193 -212q37 -3 72 -15t67 -33.5t51.5 -59t19.5 -84.5q0 -92 -67 -152.5
t-174 -60.5q-39 0 -75 9t-60 22t-42 26.5t-27 22.5z" />
    <glyph glyph-name="four.p_osf" horiz-adv-x="589" 
d="M27 33v62l310 451h115v-429h101v-84h-101v-149h-97v149h-328zM135 117h220v256l4 71h-2q-16 -37 -35 -63z" />
    <glyph glyph-name="five.p_osf" horiz-adv-x="530" 
d="M29 -32l51 66q2 -3 6.5 -7.5t19.5 -17t31 -22t41.5 -17t52.5 -7.5q63 0 109.5 35.5t46.5 98.5t-45.5 98.5t-109.5 35.5q-31 0 -61 -7.5t-45 -15.5l-14 -8l-55 20l35 326h344v-84h-261l-15 -136l-6 -35h2q40 19 93 19q104 0 170.5 -57t66.5 -152q0 -101 -70.5 -162
t-177.5 -61q-39 0 -75 9.5t-59.5 22.5t-41 26t-25.5 22z" />
    <glyph glyph-name="six.p_osf" horiz-adv-x="584" 
d="M59 294q0 67 19 132.5t55.5 121.5t98.5 91t140 35q37 0 71.5 -7t50.5 -13l15 -7l-32 -79q-45 22 -101 22q-89 0 -143.5 -67t-67.5 -161h2q23 30 66 47.5t91 17.5q98 0 159.5 -61.5t61.5 -154.5q0 -97 -63.5 -160t-161.5 -63q-114 0 -187.5 83.5t-73.5 222.5zM161 255
q0 -68 45.5 -125.5t112.5 -57.5q60 0 94 38.5t34 99.5t-38.5 99t-104.5 38q-58 0 -100.5 -28t-42.5 -64z" />
    <glyph glyph-name="seven.p_osf" horiz-adv-x="514" 
d="M82 -116l262 519q8 17 17 32t14 21l5 7v2q-14 -2 -49 -2h-302v83h460v-64l-305 -598h-102z" />
    <glyph glyph-name="eight.p_osf" horiz-adv-x="583" 
d="M51 191q0 33 13 64t33 53.5t35.5 36t29.5 22.5q-79 53 -79 133q0 72 56 123t158 51q96 0 156.5 -48.5t60.5 -129.5q0 -40 -21 -83.5t-34.5 -60t-25.5 -28.5q95 -55 95 -141q0 -80 -66 -137.5t-171 -57.5q-103 0 -171.5 57t-68.5 146zM430 185q0 20 -9.5 37t-34 32.5
t-40 24t-56.5 25.5t-54 23q-87 -54 -87 -130q0 -55 42 -90t100 -35q57 0 98 31.5t41 81.5zM178 498q0 -13 4.5 -25.5t10.5 -21.5t19 -19t22 -16t28.5 -15.5t29 -13.5t33.5 -13.5t33 -13.5q61 61 61 131q0 46 -34 73t-89 27q-54 0 -86 -26.5t-32 -66.5z" />
    <glyph glyph-name="nine.p_osf" horiz-adv-x="584" 
d="M107 -22q45 -22 101 -22q90 0 144.5 67.5t66.5 161.5h-2q-22 -31 -65.5 -48.5t-91.5 -17.5q-98 0 -159.5 61.5t-61.5 154.5q0 98 63.5 160.5t161.5 62.5q114 0 187.5 -83.5t73.5 -222.5q0 -67 -19 -132.5t-55.5 -121.5t-98.5 -91t-139 -35q-37 0 -71.5 7t-50.5 13l-16 7z
M281 199q58 0 100 28t42 65q0 67 -45.5 124.5t-112.5 57.5q-60 0 -94 -38.5t-34 -99.5t39 -99t105 -38z" />
    <glyph glyph-name="zero.t_osf" horiz-adv-x="574" 
d="M48 272q0 75 24.5 138t81 105.5t135.5 42.5q116 0 178 -84.5t62 -202.5q0 -117 -61.5 -200t-178.5 -83t-179 83.5t-62 200.5zM146 273q0 -83 36.5 -142t106.5 -59t106 59t36 142q0 82 -36.5 141.5t-105.5 59.5q-70 0 -106.5 -59t-36.5 -142z" />
    <glyph glyph-name="one.t_osf" horiz-adv-x="574" 
d="M121 0v83h152v306l1 59h-2q-16 -15 -39 -29l-91 -54l-44 68l183 113h86v-463h138v-83h-384z" />
    <glyph glyph-name="two.t_osf" horiz-adv-x="574" 
d="M82 0v67q152 100 230 172t78 136q0 49 -33.5 73t-82.5 24q-37 0 -74.5 -19t-57.5 -37l-19 -19l-52 64q3 4 9.5 10.5t27.5 23t44.5 29.5t60 23.5t74.5 10.5q90 0 146 -48.5t56 -121.5q0 -84 -63.5 -153.5t-196.5 -152.5v-2q20 3 60 3h226v-83h-433z" />
    <glyph glyph-name="three.t_osf" horiz-adv-x="574" 
d="M53 -38l50 68q3 -3 7.5 -8t20.5 -17.5t33.5 -22t44.5 -17.5t54 -8q60 0 101.5 34t41.5 89q0 61 -48 93t-114 32h-52l-22 51l145 164q10 11 20.5 22t16.5 16l6 6v1q-21 -3 -59 -3h-206v84h395v-57l-192 -211q37 -3 71.5 -15t66.5 -33.5t51.5 -59t19.5 -84.5
q0 -92 -67 -152.5t-173 -60.5q-62 0 -115 22.5t-75 44.5z" />
    <glyph glyph-name="four.t_osf" horiz-adv-x="574" 
d="M28 33v62l310 451h115v-429h101v-84h-101v-149h-97v149h-328zM136 117h220v256l4 71h-2q-16 -37 -35 -63z" />
    <glyph glyph-name="five.t_osf" horiz-adv-x="574" 
d="M58 -32l51 66q2 -3 6.5 -7.5t19.5 -17t31 -22t41.5 -17t52.5 -7.5q63 0 109.5 35.5t46.5 98.5t-45.5 98.5t-109.5 35.5q-31 0 -61 -7.5t-44 -15.5l-15 -8l-55 20l35 326h344v-84h-261l-15 -136l-6 -35h2q40 19 93 19q104 0 170.5 -57t66.5 -152q0 -101 -70.5 -162
t-177.5 -61q-39 0 -75 9.5t-59.5 22.5t-41 26t-25.5 22z" />
    <glyph glyph-name="six.t_osf" horiz-adv-x="574" 
d="M45 294q0 67 19 132.5t55.5 121.5t98.5 91t140 35q37 0 71.5 -7t50.5 -13l15 -7l-32 -79q-45 22 -101 22q-89 0 -143.5 -67t-67.5 -161h2q23 30 66 47.5t91 17.5q98 0 159.5 -61.5t61.5 -154.5q0 -97 -63.5 -160t-161.5 -63q-114 0 -187.5 83.5t-73.5 222.5zM147 255
q0 -68 45.5 -125.5t112.5 -57.5q60 0 94 38.5t34 99.5t-38.5 99t-104.5 38q-58 0 -100.5 -28t-42.5 -64z" />
    <glyph glyph-name="seven.t_osf" horiz-adv-x="574" 
d="M111 -116l262 519q8 17 17 32t14 21l5 7v2q-14 -2 -49 -2h-302v83h460v-64l-305 -598h-102z" />
    <glyph glyph-name="eight.t_osf" horiz-adv-x="574" 
d="M46 191q0 33 13 64t33 53.5t35.5 36t29.5 22.5q-79 53 -79 133q0 72 56 123t158 51q96 0 156.5 -48.5t60.5 -129.5q0 -40 -21 -83.5t-34.5 -60t-25.5 -28.5q95 -55 95 -141q0 -80 -66 -137.5t-171 -57.5q-103 0 -171.5 57t-68.5 146zM425 185q0 20 -9.5 37t-34 32.5
t-40 24t-56.5 25.5t-54 23q-87 -54 -87 -130q0 -55 42 -90t100 -35q57 0 98 31.5t41 81.5zM173 498q0 -13 4.5 -25.5t10.5 -21.5t19 -19t22 -16t28.5 -15.5t29 -13.5t33.5 -13.5t33 -13.5q61 61 61 131q0 46 -34 73t-89 27q-54 0 -86 -26.5t-32 -66.5z" />
    <glyph glyph-name="nine.t_osf" horiz-adv-x="574" 
d="M112 -22q45 -22 101 -22q90 0 144.5 67.5t66.5 161.5h-2q-22 -31 -65.5 -48.5t-91.5 -17.5q-98 0 -159.5 61.5t-61.5 154.5q0 98 63.5 160.5t161.5 62.5q114 0 187.5 -83.5t73.5 -222.5q0 -67 -19 -132.5t-55.5 -121.5t-98.5 -91t-139 -35q-37 0 -71.5 7t-50.5 13l-16 7z
M286 199q58 0 100 28t42 65q0 67 -45.5 124.5t-112.5 57.5q-60 0 -94 -38.5t-34 -99.5t39 -99t105 -38z" />
    <glyph glyph-name="dollar.osf" horiz-adv-x="529" 
d="M50 85l52 71q3 -3 8 -8.5t22 -19.5t34.5 -24.5t45 -19t54.5 -8.5q47 0 77.5 21t30.5 58q0 29 -31 51.5t-75 39t-88 36.5t-75 57t-31 87q0 67 46 109.5t120 51.5v88h70v-87q45 -4 82.5 -19t52.5 -29l15 -13l-41 -77q-6 6 -17 15t-47 23.5t-74 14.5q-47 0 -76.5 -19.5
t-29.5 -59.5q0 -29 31 -50.5t75 -38t88 -36t75 -56t31 -88.5q0 -65 -47.5 -110.5t-124.5 -53.5v-93h-70v92q-53 6 -98.5 30t-64.5 44z" />
    <glyph glyph-name="cent.osf" horiz-adv-x="558" 
d="M53 299q0 94 57.5 160.5t152.5 82.5v84h73v-81q48 -4 90 -23.5t60 -37.5l18 -17l-45 -72q-6 7 -17 17.5t-47.5 28t-75.5 17.5q-74 0 -121.5 -45t-47.5 -113q0 -70 47.5 -115.5t121.5 -45.5q39 0 74 16t51 32l15 16l45 -72q-7 -8 -20 -19.5t-56.5 -33t-91.5 -25.5v-80h-73
v83q-94 15 -152 82t-58 161z" />
    <glyph glyph-name="sterling.osf" horiz-adv-x="622" 
d="M57 0v83h61v158h-45v68h45v88q0 83 64 138t159 55q47 0 90.5 -14t63.5 -28l20 -13l-48 -72q-56 40 -124 40q-57 0 -92 -31.5t-35 -77.5v-85h216v-68h-216v-158h325v-83h-484z" />
    <glyph glyph-name="yen.osf" horiz-adv-x="621" 
d="M96 283v64h93l-139 232h112l104 -184l43 -90h2q21 51 43 90l104 184h112l-139 -232h95v-64h-133l-34 -57v-14h167v-63h-167v-149h-98v149h-165v63h165v14l-35 57h-130z" />
    <glyph glyph-name="florin.osf" horiz-adv-x="572" 
d="M28 -37q39 -6 66 -6q17 0 33 4t34.5 14.5t31.5 34t16 58.5l20 236h-82v78h89l10 105q4 48 21.5 83.5t39 55t50 31t50.5 15t45 3.5q17 0 38 -2t34 -4l12 -2v-83q-49 7 -79 7q-17 0 -33 -4t-35 -14.5t-32 -34t-16 -58.5l-9 -98h117v-78h-124l-21 -244q-4 -48 -21.5 -83.5
t-39 -55t-50 -31t-50.5 -15t-45 -3.5q-15 0 -32.5 2t-27.5 4l-10 1v84z" />
    <glyph glyph-name="Euro.osf" horiz-adv-x="615" 
d="M57 198v59h64q-4 28 -1 61h-63v60h73q26 93 104.5 152.5t202.5 59.5q24 0 48 -3t37 -6l12 -3l-22 -80q-36 10 -76 10q-77 0 -128.5 -36t-74.5 -94h253l-13 -60h-255q-3 -32 1 -61h245l-12 -59h-216q24 -57 76 -92t127 -35q22 0 43.5 3.5t32.5 7.5l11 3l18 -81
q-46 -16 -107 -16q-119 0 -197.5 58.5t-106.5 151.5h-76z" />
    <glyph glyph-name="zero.numerator" 
d="M194 259q-157 0 -157 229q0 228 157 228q158 0 158 -228q0 -229 -158 -229zM194 328q82 0 82 160q0 158 -82 158q-81 0 -81 -158q0 -160 81 -160z" />
    <glyph glyph-name="one.numerator" 
d="M71 269v66h93v249l2 26h-2q-4 -9 -18 -22l-35 -34l-46 49l106 103h68v-371h91v-66h-259z" />
    <glyph glyph-name="two.numerator" 
d="M50 269q0 4 -1 11.5t-1.5 13.5t-0.5 11q0 47 22 83.5t53 59t62 42t53 42.5t22 50q0 28 -20.5 46.5t-51.5 18.5q-22 0 -43 -12t-31 -24l-10 -12l-49 45q2 3 5.5 8t16 17t27.5 21.5t38.5 17.5t49.5 8q62 0 103 -36.5t41 -94.5q0 -40 -20.5 -72t-50.5 -52.5t-60 -38.5
t-51.5 -39.5t-23.5 -47.5h213v-66h-292z" />
    <glyph glyph-name="three.numerator" 
d="M187 259q-45 0 -81.5 16.5t-51.5 32.5l-14 17l42 53q4 -6 12 -14t34.5 -22t55.5 -14q33 0 58 22t25 54q0 33 -26.5 52t-62.5 19h-34l-16 38l89 103l24 24v2q-19 -3 -36 -3h-141v67h271v-48l-109 -126q50 -7 83.5 -39.5t33.5 -88.5q0 -59 -44.5 -102t-111.5 -43z" />
    <glyph glyph-name="four.numerator" 
d="M230 269v107h-208v50l201 280h81v-264h61v-66h-61v-107h-74zM104 442h126v123l3 58h-2q-14 -27 -29 -48l-98 -131v-2z" />
    <glyph glyph-name="five.numerator" 
d="M186 259q-42 0 -77.5 17t-50.5 34l-15 17l45 51q4 -6 11 -14t31 -22t52 -14q37 0 63 23.5t26 58.5t-26 59t-64 24q-20 0 -38.5 -5.5t-27.5 -11.5l-9 -5l-42 16l23 219h232v-67h-170l-7 -62l-5 -32h2q23 10 56 10q66 0 109 -42.5t43 -102.5q0 -62 -45 -106.5t-116 -44.5z
" />
    <glyph glyph-name="six.numerator" 
d="M206 259q-72 0 -118.5 55.5t-46.5 147.5q0 61 20 117t66.5 96.5t111.5 40.5q24 0 47 -5.5t34 -10.5l11 -6l-24 -64q-33 16 -66 16q-45 0 -76 -35.5t-40 -89.5h2q33 31 80 31q65 0 105.5 -40t40.5 -103q0 -67 -41 -108.5t-106 -41.5zM206 328q33 0 52.5 23.5t19.5 58.5
q0 37 -22 60.5t-59 23.5q-31 0 -54.5 -16.5t-23.5 -36.5q0 -42 25 -77.5t62 -35.5z" />
    <glyph glyph-name="seven.numerator" 
d="M58 269l175 323l28 47v2q-19 -2 -44 -2h-171v67h302v-51l-208 -386h-82z" />
    <glyph glyph-name="eight.numerator" 
d="M36 395q0 65 70 113q-49 35 -49 91q0 55 41.5 86t99.5 31q57 0 99.5 -31.5t42.5 -87.5q0 -57 -55 -112q64 -37 64 -99q0 -56 -45.5 -91.5t-109.5 -35.5t-111 36t-47 100zM273 389q0 13 -5 23.5t-20.5 21t-23.5 15.5t-34.5 16.5t-32.5 14.5q-48 -37 -48 -82
q0 -34 25.5 -54t59.5 -20q31 0 55 18.5t24 46.5zM130 596q0 -21 17 -38t32.5 -24.5t51.5 -22.5q38 38 38 82q0 27 -21.5 42.5t-50.5 15.5q-28 0 -47.5 -14.5t-19.5 -40.5z" />
    <glyph glyph-name="nine.numerator" 
d="M36 566q0 66 41 108t105 42q72 0 118.5 -55.5t46.5 -147.5q0 -61 -19.5 -117t-66 -96.5t-111.5 -40.5q-24 0 -47 5.5t-35 11.5l-11 5l25 64q33 -16 65 -16q46 0 76 35t40 90h-2q-31 -31 -79 -31q-66 0 -106 40.5t-40 102.5zM111 566q0 -37 22 -61t59 -24q31 0 54.5 16.5
t23.5 36.5q0 42 -25.5 77.5t-62.5 35.5q-33 0 -52 -23t-19 -58z" />
    <glyph glyph-name="zero.denominator" 
d="M194 -10q-157 0 -157 229q0 228 157 228q158 0 158 -228q0 -229 -158 -229zM194 59q82 0 82 160q0 158 -82 158q-81 0 -81 -158q0 -160 81 -160z" />
    <glyph glyph-name="one.denominator" 
d="M71 0v66h93v249l2 26h-2q-4 -9 -18 -22l-35 -34l-46 49l106 103h68v-371h91v-66h-259z" />
    <glyph glyph-name="two.denominator" 
d="M50 0l-3 36q0 47 22 83.5t53 59t62 42t53 42.5t22 50q0 28 -20.5 46.5t-51.5 18.5q-22 0 -43 -12t-31 -24l-10 -12l-49 45q2 3 5.5 8t16 17t27.5 21.5t38.5 17.5t49.5 8q62 0 103 -36.5t41 -94.5q0 -40 -20.5 -72t-50.5 -52.5t-60 -38.5t-51.5 -39.5t-23.5 -47.5h213v-66
h-292z" />
    <glyph glyph-name="three.denominator" 
d="M187 -10q-45 0 -81.5 16.5t-51.5 33.5l-14 16l42 53q4 -6 12 -14t34.5 -22t55.5 -14q33 0 58 22t25 54q0 33 -26.5 52t-62.5 19h-34l-16 38l89 103l24 24v2q-19 -3 -36 -3h-141v67h271v-48l-109 -126q50 -7 83.5 -39.5t33.5 -88.5q0 -59 -44.5 -102t-111.5 -43z" />
    <glyph glyph-name="four.denominator" 
d="M230 0v107h-208v50l201 280h81v-264h61v-66h-61v-107h-74zM104 173h126v123l3 58h-2q-14 -27 -29 -48l-98 -131v-2z" />
    <glyph glyph-name="five.denominator" 
d="M186 -10q-42 0 -77.5 17t-50.5 34l-15 17l45 51q4 -6 11 -14t31 -22t52 -14q37 0 63 23.5t26 58.5t-26 59t-64 24q-20 0 -38.5 -5.5t-27.5 -10.5l-9 -6l-42 16l23 219h232v-67h-170l-7 -62l-5 -32h2q23 10 56 10q66 0 109 -42.5t43 -102.5q0 -62 -45 -106.5t-116 -44.5z
" />
    <glyph glyph-name="six.denominator" 
d="M206 -10q-72 0 -118.5 55.5t-46.5 147.5q0 61 20 117t66.5 96.5t111.5 40.5q24 0 47 -5.5t34 -11.5l11 -5l-24 -64q-33 16 -66 16q-45 0 -76 -35.5t-40 -89.5h2q33 31 80 31q65 0 105.5 -40t40.5 -103q0 -67 -41 -108.5t-106 -41.5zM206 59q33 0 52.5 23.5t19.5 58.5
q0 37 -22 60.5t-59 23.5q-31 0 -54.5 -16.5t-23.5 -36.5q0 -42 25 -77.5t62 -35.5z" />
    <glyph glyph-name="seven.denominator" 
d="M58 0l175 323l28 47v2q-19 -2 -44 -2h-171v67h302v-51l-208 -386h-82z" />
    <glyph glyph-name="eight.denominator" 
d="M36 126q0 65 70 113q-49 35 -49 91q0 55 41.5 86t99.5 31q57 0 99.5 -31.5t42.5 -87.5q0 -57 -55 -112q64 -37 64 -99q0 -56 -45.5 -91.5t-109.5 -35.5t-111 36t-47 100zM273 120q0 13 -5 23.5t-20.5 21t-23.5 15.5t-34.5 16.5t-32.5 14.5q-48 -37 -48 -82
q0 -34 25.5 -54t59.5 -20q31 0 55 18.5t24 46.5zM130 327q0 -21 17 -38t32.5 -24.5t51.5 -22.5q38 38 38 82q0 27 -21.5 42.5t-50.5 15.5q-28 0 -47.5 -14.5t-19.5 -40.5z" />
    <glyph glyph-name="nine.denominator" 
d="M36 297q0 66 41 108t105 42q72 0 118.5 -55.5t46.5 -147.5q0 -61 -19.5 -117t-66 -96.5t-111.5 -40.5q-24 0 -47 5.5t-35 10.5l-11 6l25 64q33 -16 65 -16q46 0 76 35t40 90h-2q-31 -31 -79 -31q-66 0 -106 40.5t-40 102.5zM111 297q0 -37 22 -61t59 -24q31 0 54.5 16.5
t23.5 36.5q0 42 -25.5 77.5t-62.5 35.5q-33 0 -52 -23t-19 -58z" />
    </font>
</defs>
</svg>
